<svg id="Group_90" data-name="Group 90" xmlns="http://www.w3.org/2000/svg" width="334.651" height="241.045" viewBox="0 0 334.651 241.045">
  <circle id="Ellipse_145" data-name="Ellipse 145" cx="11.681" cy="11.681" r="11.681" transform="translate(53.901 17.009)" fill="#2f2e41"/>
  <path id="Path_681" data-name="Path 681" d="M235.615,539.389l7.177-24.89,2.443.763s-2.9,18.629-7.482,23.363Z" transform="translate(-205.611 -370.063)" fill="#2f2e41"/>
  <path id="Path_682" data-name="Path 682" d="M304.982,223.5s.916,9.773-1.222,12.521,1.374,8.093,1.374,8.093l6.413,7.635,9.467-4.276,1.374-7.94-.916-5.5s-3.207-3.207-1.832-9.009S304.982,223.5,304.982,223.5Z" transform="translate(-247.646 -187.783)" fill="#ffb9b9"/>
  <path id="Path_683" data-name="Path 683" d="M304.982,223.5s.916,9.773-1.222,12.521,1.374,8.093,1.374,8.093l6.413,7.635,9.467-4.276,1.374-7.94-.916-5.5s-3.207-3.207-1.832-9.009S304.982,223.5,304.982,223.5Z" transform="translate(-247.646 -187.783)" opacity="0.1"/>
  <path id="Path_684" data-name="Path 684" d="M166.73,575.738V582l8.4,1.68-.764-10.383Z" transform="translate(-103.896 -357.243)" fill="#ffb9b9"/>
  <path id="Path_685" data-name="Path 685" d="M230.556,571.779l-1.833,8.7,3.665,2.6,6.413-4.733-.764-7.483Z" transform="translate(-142.527 -355.728)" fill="#ffb9b9"/>
  <path id="Path_686" data-name="Path 686" d="M322.779,724.863a6.474,6.474,0,0,0-9.162-2.023s-1.069,5.993-2.138,6.451-7.024,9.162,0,9.925,10.536-1.527,10.536-1.527-1.374,1.182.763.572,1.222-3.97,1.222-3.97Z" transform="translate(-250.784 -499.191)" fill="#2f2e41"/>
  <path id="Path_687" data-name="Path 687" d="M386.131,718.426s-4.734,3.359-5.5,1.832a2.086,2.086,0,0,0-1.985-1.374s-4.276,16.118-1.527,16.881a9.265,9.265,0,0,0,5.344-.276s3.665-2.567,3.665-.582,10.231,1.842,14.506,1.689,1.985-3.359,1.985-3.359l-5.65-5.5-6.413-9.315S387.658,715.83,386.131,718.426Z" transform="translate(-293.216 -496.419)" fill="#2f2e41"/>
  <path id="Path_688" data-name="Path 688" d="M283.022,446.057l6.413,61.537s3.512,37.564,4.123,38.175,4.581,2.6,13.285,0L304.857,496.6l3.665-30.54,8.4,21.072s1.985,56.651,3.359,56.651,9.773,2.749,11.758-.611,1.68-39.549,1.68-39.549-.916-57.109-7.635-58.942S283.022,446.057,283.022,446.057Z" transform="translate(-235.152 -326.205)" fill="#2f2e41"/>
  <circle id="Ellipse_146" data-name="Ellipse 146" cx="10.536" cy="10.536" r="10.536" transform="translate(55.046 20.292)" fill="#ffb9b9"/>
  <path id="Path_689" data-name="Path 689" d="M285.172,265.993s-1.069-6.566-1.069-7.788-4.734-1.985-4.734-1.985-3.665-4.123-4.428-3.512-12.369,8.4-14.2,9.467-3.817,5.65-3.665,5.955,9.62,20.156,9.62,20.156,4.123,12.216,1.222,18.629S261.352,326,266.7,328.6s31.3,8.246,36.037,3.359,8.093-6.261,9.315-6.261-5.039-21.225-3.665-23.21-.611-14.354-.611-14.354l7.024-19.7S314.185,257.442,300.29,255l-8.313-4.031Z" transform="translate(-218.979 -205.846)" fill="#575a89"/>
  <path id="Path_690" data-name="Path 690" d="M252.585,456.053s-.763,7.33-.763,9.467-3.665,14.659,1.68,16.186,4.886-16.644,4.886-16.644v-9.315Z" transform="translate(-214.946 -333.452)" fill="#ffb9b9"/>
  <path id="Path_691" data-name="Path 691" d="M412.851,438.324s.916,7.024.458,8.551,4.428,14.812-2.138,15.575-4.886-15.881-4.886-15.881v-8.246Z" transform="translate(-311.843 -322.595)" fill="#ffb9b9"/>
  <path id="Path_692" data-name="Path 692" d="M252.227,535.178l4.428-23.516h1.374a9.249,9.249,0,0,1,1.374,8.857c-1.832,5.192-3.359,14.659-3.359,14.659Z" transform="translate(-215.963 -368.296)" fill="#2f2e41"/>
  <path id="Path_693" data-name="Path 693" d="M254,291.647l-2.29,1.832s-3.054,48.558-2.29,52.223-2.749,8.857.305,9.315,6.719,2.443,8.4,1.222,1.985-5.65,2.6-6.719,1.68-13.743,1.68-13.743,3.207-12.674,1.222-22.141-3.817-19.087-3.817-19.087Z" transform="translate(-213.61 -231.195)" fill="#575a89"/>
  <path id="Path_694" data-name="Path 694" d="M387.067,281.517l7.024,5.955,5.344,31.15s3.359,24.279.763,24.584-6.566-.458-8.246,0a3.576,3.576,0,0,1-3.054-.763s-1.832-9.773-1.832-9.925-1.222-11.3-1.222-11.3L384.318,308.7l2.29-13.743Z" transform="translate(-298.274 -224.883)" fill="#575a89"/>
  <path id="Path_695" data-name="Path 695" d="M224.143,604.931s-.993,2.851-2.361,6.732c-.635,1.8-1.351,3.834-2.089,5.9-.475,1.338-.957,2.692-1.432,4.014-.757,2.115-1.493,4.146-2.136,5.89-.849,2.3-1.538,4.1-1.907,4.946-1.68,3.817-32.372-2.29-34.815-3.817s-3.054-6.719-3.359-14.048c0-.038,0-.076,0-.115a26.713,26.713,0,0,1,.968-6.268c.315-1.292.693-2.678,1.115-4.118.565-1.932,1.206-3.956,1.877-5.972,2.88-8.658,6.274-17.121,6.274-17.121s5.955-4.123,8.093-6.871,13.9-4.886,13.9-4.886c3.359.153,10.994,13.132,14.048,17.1S224.143,604.931,224.143,604.931Z" transform="translate(-168.486 -404.149)" fill="#3f3d56"/>
  <circle id="Ellipse_147" data-name="Ellipse 147" cx="1.374" cy="1.374" r="1.374" transform="translate(37.18 174.823)" fill="#2f2e41"/>
  <circle id="Ellipse_148" data-name="Ellipse 148" cx="0.763" cy="0.763" r="0.763" transform="translate(39.929 176.961)" fill="#2f2e41"/>
  <path id="Path_696" data-name="Path 696" d="M225.231,659.414c-.635,1.8-1.351,3.834-2.089,5.9L181.571,651.8c.565-1.932,1.206-3.956,1.877-5.972Z" transform="translate(-171.934 -451.9)" fill="#f2f2f2"/>
  <path id="Path_697" data-name="Path 697" d="M218.261,686.016c-.757,2.115-1.493,4.146-2.136,5.89L176.04,678.871a26.712,26.712,0,0,1,.968-6.268Z" transform="translate(-168.486 -468.584)" fill="#f2f2f2"/>
  <path id="Path_698" data-name="Path 698" d="M258.305,599.588s3.054,13.437,1.222,25.348,4.581,23.057,4.581,23.057" transform="translate(-219.751 -423.086)" fill="none" stroke="#2f2e41" stroke-miterlimit="10" stroke-width="3"/>
  <path id="Path_699" data-name="Path 699" d="M244.536,602.425s-5.955,21.683-6.108,24.737-2.6,24.89-5.65,27.18" transform="translate(-203.844 -424.853)" fill="none" stroke="#2f2e41" stroke-miterlimit="10" stroke-width="3"/>
  <path id="Path_700" data-name="Path 700" d="M307.234,179.915s-2.385-6.2,1.073-8.228l.954,2.743s8.705-5.247,10.971-4.054l-2.146,2.862s10.136,0,10.851,3.935l-3.577.119s3.816,2.5,3.935,6.559l-7.632.477,3.7,2.146s-13.833,1.908-17.172-3.577Z" transform="translate(-249.741 -155.515)" fill="#2f2e41"/>
  <path id="Path_701" data-name="Path 701" d="M303.078,190.823s2.749,5.5,6.413,4.123,0-6.413,0-6.413l-2.443-1.222Z" transform="translate(-247.65 -166.179)" fill="#2f2e41"/>
  <path id="Path_702" data-name="Path 702" d="M624.552,242.6l-49.84-62.281a16.734,16.734,0,0,1-8.06,4.07c-9.383,1.848-18.546-4.56-20.467-14.311a18.077,18.077,0,0,1,6.24-17.609l-16.994-21.236-96.816,82.745,89.12,111.367Z" transform="translate(-332.109 -131.237)" fill="#f2f2f2"/>
  <circle id="Ellipse_149" data-name="Ellipse 149" cx="14.051" cy="14.051" r="14.051" transform="translate(216.464 22.096)" fill="#f2f2f2"/>
  <rect id="Rectangle_179" data-name="Rectangle 179" width="6.575" height="19.142" transform="translate(138.299 103.729) rotate(-49.171)" fill="#6c63ff"/>
  <rect id="Rectangle_180" data-name="Rectangle 180" width="6.575" height="16.967" transform="translate(231.406 192.705) rotate(-49.171)" fill="#6c63ff"/>
  <path id="Path_703" data-name="Path 703" d="M629.9,424.494v.386q-.013,1.453-.083,2.893a64.439,64.439,0,0,1-128.664.842q-.132-2.045-.132-4.121a64.12,64.12,0,0,1,11.849-37.248q.927-1.315,1.929-2.582c.46-.587.934-1.162,1.411-1.732a64.451,64.451,0,0,1,89.8-8.522c.776.627,1.539,1.276,2.284,1.938q.894.8,1.758,1.626a64.265,64.265,0,0,1,19.621,41.1Q629.9,421.758,629.9,424.494Z" transform="translate(-370.995 -273.821)" fill="#3f3d56"/>
  <path id="Path_704" data-name="Path 704" d="M552.049,522.018a72.549,72.549,0,0,1-53.191-121.886l1.607,1.491a70.357,70.357,0,0,0,102.094,96.825l1.574,1.526a71.975,71.975,0,0,1-52.083,22.044Z" transform="translate(-357.586 -298.796)" fill="#6c63ff"/>
  <rect id="Rectangle_181" data-name="Rectangle 181" width="18.411" height="18.411" transform="translate(186.573 221.687)" fill="#6c63ff"/>
  <path id="Path_705" data-name="Path 705" d="M514.8,422.5a.362.362,0,0,1,.088.053c.346.285-.088.833-.035,1.284.061.579.833.706,1.416.763s1.319.53,1.043,1.048c-1.464.5-2.946.009-4.441-.565a64.12,64.12,0,0,0-11.849,37.248q0,2.078.132,4.121a1.665,1.665,0,0,0,.4.215,8.514,8.514,0,0,1,1.35.373c.32.189.535.522.855.7.916.5,2.187-.46,3.042.136a7.852,7.852,0,0,1,.627.64c.789.684,2.087.224,3,.736a3.557,3.557,0,0,1,1.206,1.582c.785,1.49,2.056,2.955,3.735,3.073a10.056,10.056,0,0,1,1.587.053c.517.118,1.026.57.943,1.091-.145.9.3,1.881.18,2.779-.215,1.644-2.542,2.363-2.74,4.007a9.9,9.9,0,0,1-.061,1.083c-.105.43-.43.78-.544,1.21a2.3,2.3,0,0,0,1,2.165,5.91,5.91,0,0,1,1.753,1.784,9.194,9.194,0,0,1,.307,2.635c.263,1.924,1.924,3.349,3.634,4.27a3.8,3.8,0,0,1,1.42,1.035,5.725,5.725,0,0,1,.544,2.231c.359,1.854,1.92,3.384,1.964,5.274.031,1.346-.714,2.564-1.162,3.831a8.841,8.841,0,0,0-.4,4.138,64.743,64.743,0,0,0,7.948,5.764,2.316,2.316,0,0,0,.329-.736,1.456,1.456,0,0,0-.679-1.508,3.6,3.6,0,0,0,1.258-.807,1.234,1.234,0,0,0,.228-1.394,2.436,2.436,0,0,0,2.2-.447,1.962,1.962,0,0,0,.219-1.784,7.358,7.358,0,0,1-.438-1.815,32.644,32.644,0,0,0,5.357-.18,3.477,3.477,0,0,0-1.631-2.043,2.824,2.824,0,0,0,1.793-1.876,4.779,4.779,0,0,0,.035-2.424,1.29,1.29,0,0,1-.026-.631,1.242,1.242,0,0,1,.64-.618q2-1.151,4-2.3a2.412,2.412,0,0,0,.64-.469,1.908,1.908,0,0,0,.14-1.846,9.3,9.3,0,0,1-.64-1.824c-.246-1.916,1.806-3.292,2.5-5.1a7.655,7.655,0,0,0,.377-2.231,2.65,2.65,0,0,0-.561-2.28c-.6-.5-1.534-.39-2.161-.859-.574-.43-.772-1.258-1.4-1.6-.57-.316-1.28-.114-1.916-.263-1.113-.259-1.815-1.543-2.955-1.661-.64-.07-1.368.245-1.894-.127-.465-.333-.482-1-.57-1.556a4.347,4.347,0,0,0-3.507-3.516,4.9,4.9,0,0,1-1.946-.43c-.57-.368-.828-1.056-1.28-1.569a5.357,5.357,0,0,0-2.924-1.363q-2.17-.506-4.335-1.017c-.767-.184-1.758-.281-2.174.395a2.963,2.963,0,0,0-.254.811,2.515,2.515,0,0,1-2.358,1.771,2.786,2.786,0,0,0-1.639-1.271,10.352,10.352,0,0,1-1.333-.316,1.867,1.867,0,0,1-.807-2.591,2.326,2.326,0,0,0-.4-2.792,3.773,3.773,0,0,0-2.792-.758c-.259-.565.175-1.2.64-1.613s1.035-.811,1.135-1.425c.162-.964-1.07-1.7-2-1.411a3.488,3.488,0,0,0-1.924,2.091,6.305,6.305,0,0,1-.776,1.486,1.523,1.523,0,0,1-1.473.6c-.771-.2-1.065-1.113-1.236-1.885a12.292,12.292,0,0,1-.412-3.161,4.126,4.126,0,0,1,1.192-2.876c1.276-1.175,3.24-1.061,4.962-.872a1.264,1.264,0,0,1,.132-1.666,1.894,1.894,0,0,1,1.718-.421,2.357,2.357,0,0,1,1.328.793,12.309,12.309,0,0,1,1,2.082c.373.68,1.206,1.258,1.885.894a1.591,1.591,0,0,0,.539-1.784,6.624,6.624,0,0,1-.408-1.951c.1-1.267,1.42-2.034,2.582-2.556s2.49-1.227,2.674-2.49a2.326,2.326,0,0,1,.14-.719,1.405,1.405,0,0,1,.522-.491c3.389-2.24,6.839-4.511,10.714-5.734.2-.066.224,0,.43-.044.289-.167.1-.627-.18-.811s-.644-.329-.715-.653c-.048-.237.092-.473.127-.715a.892.892,0,0,0-1.17-.9c-.311-.412.3-.89.8-1.03a21.908,21.908,0,0,1,4.581-.745.816.816,0,0,1,.522.088.62.62,0,0,1,.039.85,4.8,4.8,0,0,1-.7.636,1.915,1.915,0,0,0-.5,1.924,4.368,4.368,0,0,0,2.586.693c.894-.145,1.688-1.153,1.267-1.955-.39-.75-1.569-.921-1.771-1.74-.237-.96,1.122-1.815.815-2.753-.131-.412-.544-.658-.859-.951a2.594,2.594,0,0,1-.565-2.867,3.267,3.267,0,0,1-2.858-.894c-.684-.688-1.227-1.78-2.2-1.745-.89.026-1.657,1.065-2.49.75-.206-.079-.421-.237-.618-.145a.511.511,0,0,0-.232.381c-.21,1.013.153,2.166-.4,3.042-.6.951-1.99,1.083-2.718,1.942-.395.465-.548,1.092-.912,1.582s-1.131.807-1.569.377a2.16,2.16,0,0,0-.587-2.63,5.648,5.648,0,0,0-1.3-.631,7.7,7.7,0,0,1-1.451-.807,1.437,1.437,0,0,1-.53-.57,1.31,1.31,0,0,1,.035-.9,3.691,3.691,0,0,1,2.933-2.429c.579-.079,1.254-.053,1.639-.5.2-.232.307-.587.6-.679a.881.881,0,0,1,.557.066l2.166.763a1.484,1.484,0,0,0,.772.127.519.519,0,0,0,.451-.548c-.07-.359-.622-.53-.57-.894a.568.568,0,0,1,.18-.307,7.746,7.746,0,0,1,6.141-2.424c.272.451-.158.982-.522,1.363s-.649,1.07-.21,1.363a1.155,1.155,0,0,0,.574.132,5.01,5.01,0,0,1,1.534.465c.75.324,1.486.684,2.2,1.07a2.78,2.78,0,0,1,.053-1.42.965.965,0,0,1,1.14-.618c.43.167.649.736,1.109.789.609.07.85-.833.6-1.394s-.763-1.026-.8-1.644c-.031-.412.127-.925-.2-1.175a.872.872,0,0,0-.39-.14q-4.129-.756-8.263-1.517c-.491-.092-1.2-.022-1.219.473-.013.281.237.557.127.811-.118.272-.5.25-.785.346a1.065,1.065,0,0,0-.614,1.127,3.072,3.072,0,0,0,.517,1.267c-.539-.224-1.35-.263-1.889-.491a7.272,7.272,0,0,0-.473-1.819.642.642,0,0,0-.837-.517c-.71.11-1.42.215-2.13.324a.824.824,0,0,0-.487.188c-.276.294,0,.763-.013,1.166a1.093,1.093,0,0,1-.846.942,3.188,3.188,0,0,1-1.35-.018l-2.981-.46a4.883,4.883,0,0,0,2.253-1.508c.395-.465.6-1.333.035-1.552a1.36,1.36,0,0,0-.517-.039c-1.35.009-2.415-1.118-3.678-1.6a3.615,3.615,0,0,0-1.241-.228Z" transform="translate(-370.995 -311.653)" fill="#6c63ff"/>
  <path id="Path_706" data-name="Path 706" d="M704.458,450.841a1.583,1.583,0,0,1-1.341.636c-1.372-.118-1.951-2.1-3.31-2.319a.53.53,0,0,0-.359.035c-.2.11-.237.381-.25.609a7.558,7.558,0,0,0,.338,3.349c.644,1.525,2.315,2.806,1.964,4.423-1.885-.872-2.867-2.99-3.31-5.019s-.517-4.16-1.315-6.08c-.609.776-1.881.136-2.433-.679-.526-.772-.85-1.666-1.359-2.45a3.015,3.015,0,0,0-2.218-1.525,3.976,3.976,0,0,0-2.573,1.262,5.954,5.954,0,0,0-1.6,1.78,8.088,8.088,0,0,0-.412,3.459,5.279,5.279,0,0,1-1.157,3.529,2.558,2.558,0,0,1-3.406.412,3.842,3.842,0,0,1-.951-1.714,83.411,83.411,0,0,1-2.578-9.2c-.158.71-.785,1.626-1.381,1.21a1.232,1.232,0,0,1-.316-.412,9.207,9.207,0,0,0-5.252-3.691c-2.078-.675-4.265-.991-6.321-1.736a16.163,16.163,0,0,1-3.283-1.635,2.586,2.586,0,0,0-.158,2.639,2.114,2.114,0,0,0,2.376,1c.456-.149.842-.465,1.293-.622a1.011,1.011,0,0,1,1.258.359c.193.416-.1.921.048,1.359.215.662,1.219.715,1.569,1.319a1.221,1.221,0,0,1-.329,1.412,5.911,5.911,0,0,1-1.324.815c-1.473.82-2.521,2.218-3.809,3.305s-3.108,1.885-4.642,1.188c.364-1.854-1.841-3.213-2.249-5.059-.136-.609-.066-1.254-.254-1.845a6,6,0,0,0-1.661-2.1,8.236,8.236,0,0,1-2.258-5.984,8.306,8.306,0,0,0,0-2.284,1.712,1.712,0,0,0-1.552-1.429c-1.74.079-3.936.21-4.848-1.276a1.368,1.368,0,0,1,0-1.714,1.655,1.655,0,0,1,1.258-.215c1.311.127,2.617.259,3.928.386a4.368,4.368,0,0,0,2.7-.316c.789-.478,1.131-1.753.4-2.319-.53-.412-1.486-.39-1.644-1.043-.127-.548.478-1.166.149-1.626-.232-.324-.758-.237-1.078.009a7.05,7.05,0,0,1-.907.793,2.767,2.767,0,0,1-2.047-.2c-.675-.21-1.578-.228-1.9.4-.368.7.32,1.618-.039,2.319-.482.925-2.1.4-2.779,1.2-.772.912.526,2.279.267,3.446a2.148,2.148,0,0,1-2.117-.118,2.05,2.05,0,0,1-.885-1.911c.061-.526.338-1.065.153-1.561a1.822,1.822,0,0,0-.925-.846q-1.907-1.059-3.814-2.109a1.721,1.721,0,0,0,.653,1.964,6.786,6.786,0,0,1,1.626,1.512,1.988,1.988,0,0,1-.745,2.621.462.462,0,0,1-.381.066.528.528,0,0,1-.245-.329,8.108,8.108,0,0,0-3.3-4.318c-1.618-.9-3.937-.715-5,.8-.25.359-.421.772-.64,1.153a6.654,6.654,0,0,1-5.992,2.915,1.155,1.155,0,0,1-.653-.153c-.377-.259-.359-.811-.3-1.267.083-.644.162-1.284.245-1.929a1.545,1.545,0,0,1,.425-1.056c.434-.342,1.056-.127,1.609-.136a2.026,2.026,0,0,0,1.845-1.425,2.29,2.29,0,0,0-.64-2.28c-.25-.237-.587-.535-.456-.855a.711.711,0,0,1,.5-.333c.986-.285,2.034-.359,3-.7a3.122,3.122,0,0,0,2.148-2.034c.07-.307.1-.679.377-.833a1.222,1.222,0,0,1,.438-.088,2.133,2.133,0,0,0,1.828-2.222,1.394,1.394,0,0,1,1.569.263,4.36,4.36,0,0,0,1.394.951c1.021.281,2.008-.627,3.069-.631a3.838,3.838,0,0,0,1.324,0c.425-.153.68-.574,1-.885s.9-.5,1.2-.167c-.088-.636-.171-1.267-.259-1.9a3.731,3.731,0,0,0,3.038-.552l-3.31-1.118a.715.715,0,0,1-.311-.167c-.241-.259,0-.662.193-.956.469-.706.548-1.867-.224-2.218a1.883,1.883,0,0,0-1.631.329c-.807.447-1.613.9-2.42,1.346-.074.46.487.723.833,1.03a1.4,1.4,0,0,1-.912,2.442,1.75,1.75,0,0,1,.311,1.477l-1.626.118a.7.7,0,0,1-.526-.105c-.175-.153-.149-.425-.193-.653a1.411,1.411,0,0,0-1.192-1.039,4.116,4.116,0,0,0-1.661.153,1.012,1.012,0,0,1-.719-.018.717.717,0,0,1-.281-.359,1.833,1.833,0,0,1,.368-1.762,10.084,10.084,0,0,1,1.385-1.276,8.075,8.075,0,0,0,2.407-3.726c.894-.377,1.819-.885,2.718-1.262a10.857,10.857,0,0,1,2.258-.758,10.668,10.668,0,0,1,2.214-.105c1.008.018,2.021.035,3.029.057a7.29,7.29,0,0,1,2.652.381,2.474,2.474,0,0,1,1.618,1.977.607.607,0,0,1-.2.557.71.71,0,0,1-.381.088c-.837.026-1.192.237-2.03.267a3.425,3.425,0,0,0,1.9,1.263c1.359.175,2.336-1.232,2.963-2.455a1.2,1.2,0,0,0,1.249,1.109,2.519,2.519,0,0,0,.942-.368,18.54,18.54,0,0,1,8.789-2.271.946.946,0,0,1,.723-1.043c.627-.123,1.188.416,1.49.978a5.259,5.259,0,0,0,.969,1.631c.478.421,1.4.4,1.591-.206.184-.583-.425-1.083-.929-1.429s-1.039-.978-.7-1.486a45.07,45.07,0,0,1,7.82-1.258,3.327,3.327,0,0,0,1.315-.228,1.022,1.022,0,0,0,.614-1.083,2.989,2.989,0,0,1-3.112-1.175,26.762,26.762,0,0,1,8.162.188l2.284,1.938c-.434.452-1.013.877-.7,1.328a.972.972,0,0,0,.8.276c.552.009,1.1.022,1.653.022a64.265,64.265,0,0,1,19.621,41.1,1.939,1.939,0,0,0-1.648,2.148,8.525,8.525,0,0,0,1.6,3.143,4.781,4.781,0,0,1,.272.513Z" transform="translate(-445.639 -296.89)" fill="#6c63ff"/>
  <line id="Line_19" data-name="Line 19" x2="334.651" transform="translate(0 240.045)" fill="none" stroke="#3f3d56" stroke-miterlimit="10" stroke-width="2"/>
  <circle id="Ellipse_150" data-name="Ellipse 150" cx="5.561" cy="5.561" r="5.561" transform="translate(132.503 19.037)" fill="none" stroke="#3f3d56" stroke-miterlimit="10" stroke-width="2"/>
  <circle id="Ellipse_151" data-name="Ellipse 151" cx="5.561" cy="5.561" r="5.561" transform="translate(296.813 124.934)" fill="none" stroke="#3f3d56" stroke-miterlimit="10" stroke-width="2"/>
  <circle id="Ellipse_152" data-name="Ellipse 152" cx="5.561" cy="5.561" r="5.561" transform="translate(258.851 69.536)" fill="none" stroke="#3f3d56" stroke-miterlimit="10" stroke-width="2"/>
  <path id="Path_707" data-name="Path 707" d="M0,6.24Z" transform="translate(221.687 115.832)" fill="#3f3d56"/>
  <circle id="Ellipse_154" data-name="Ellipse 154" cx="8.226" cy="8.226" r="8.226" transform="translate(239.747 93.789)" fill="#fff"/>
</svg>
