<svg id="Group_52" data-name="Group 52" xmlns="http://www.w3.org/2000/svg" xmlns:xlink="http://www.w3.org/1999/xlink" width="330.973" height="242.65" viewBox="0 0 330.973 242.65">
  <defs>
    <linearGradient id="linear-gradient" x1="16.614" y1="1" x2="16.614" gradientUnits="objectBoundingBox">
      <stop offset="0" stop-color="gray" stop-opacity="0.251"/>
      <stop offset="0.54" stop-color="gray" stop-opacity="0.122"/>
      <stop offset="1" stop-color="gray" stop-opacity="0.102"/>
    </linearGradient>
  </defs>
  <path id="Path_256" data-name="Path 256" d="M198.458,543.33c10.946-4.305,28.13-5.183,43.77-4.838,49.129,1.076,93.476,11.539,131.835,23.376,13.888,4.286,27.559,8.905,36.574,14.806,18.35,12.013,12.906,28.653-12.608,38.549-8.683,3.368-19.206,5.958-30.011,8.234a375.783,375.783,0,0,1-61.741,8.275,459.06,459.06,0,0,1-46.743-.8c-43.187-2.593-85.575-8.291-121.1-18.083-15.584-4.286-30.271-9.617-36.687-16.556s-2.314-15.725,13.6-19.833c6.585-1.7,14.449-2.465,22.153-3.183,11.338-1.06,22.859-2.107,33.09-4.261,10.57-2.226,23.085-6.532,20.993-11.458C189.324,552.27,187.524,547.629,198.458,543.33Z" transform="translate(-90.501 -389.377)" fill="#6c63ff" opacity="0.1"/>
  <path id="Path_257" data-name="Path 257" d="M573,92.378l-1.195,69.3s43.247,0,80.04,11.947l.718-70.025S593.553,89.512,573,92.378Z" transform="translate(-415.163 -82.93)" opacity="0.1"/>
  <path id="Path_258" data-name="Path 258" d="M571,89.378l-1.195,69.3s43.247,0,80.04,11.947l.718-70.025S591.553,86.512,571,89.378Z" transform="translate(-413.79 -80.871)" fill="#f5f5fb"/>
  <path id="Path_259" data-name="Path 259" d="M342.7,92.209l1.195,69.3s-43.247,0-80.04,11.947l-.718-70.006S322.156,89.343,342.7,92.209Z" transform="translate(-203.281 -82.814)" opacity="0.1"/>
  <path id="Path_260" data-name="Path 260" d="M344.7,89.209l1.195,69.3s-43.247,0-80.04,11.947l-.718-70.006S324.156,86.343,344.7,89.209Z" transform="translate(-204.654 -80.755)" fill="#f5f5fb"/>
  <path id="Path_261" data-name="Path 261" d="M862.65,160.51v68.573s14.11-1.671,43.723,34.884L909,195.394S878.181,162.184,862.65,160.51Z" transform="translate(-614.806 -129.963)" opacity="0.1"/>
  <path id="Path_262" data-name="Path 262" d="M860.65,158.51v68.573s14.11-1.671,43.723,34.884L907,193.394S876.181,160.184,860.65,158.51Z" transform="translate(-613.433 -128.59)" fill="#f5f5fb"/>
  <path id="Path_263" data-name="Path 263" d="M130.831,167v68.576s-14.11-1.671-43.723,34.884L84.48,201.887S115.3,168.678,130.831,167Z" transform="translate(-80.642 -134.418)" opacity="0.1"/>
  <path id="Path_264" data-name="Path 264" d="M132.831,164v68.576s-14.11-1.671-43.723,34.884L86.48,198.887S117.3,165.678,132.831,164Z" transform="translate(-82.015 -132.358)" fill="#f5f5fb"/>
  <path id="Path_265" data-name="Path 265" d="M519.954,531.624c0,2.336-14.835,15.835-48.6,15.835S419.3,534.43,419.3,532.094s18.911,3.449,52.679,3.449S519.954,529.285,519.954,531.624Z" transform="translate(-310.475 -384.35)" fill="#f7f7fd"/>
  <ellipse id="Ellipse_66" data-name="Ellipse 66" cx="3.593" cy="0.492" rx="3.593" ry="0.492" transform="translate(95.527 114.115)" fill="#6c63ff" opacity="0.1"/>
  <ellipse id="Ellipse_67" data-name="Ellipse 67" cx="3.593" cy="0.492" rx="3.593" ry="0.492" transform="translate(81.765 115.511)" fill="#6c63ff" opacity="0.1"/>
  <ellipse id="Ellipse_68" data-name="Ellipse 68" cx="3.593" cy="0.492" rx="3.593" ry="0.492" transform="translate(65.56 113.623)" fill="#6c63ff" opacity="0.1"/>
  <ellipse id="Ellipse_69" data-name="Ellipse 69" cx="2.552" cy="0.351" rx="2.552" ry="0.351" transform="translate(88.315 119.624)" fill="#6c63ff" opacity="0.1"/>
  <ellipse id="Ellipse_70" data-name="Ellipse 70" cx="2.552" cy="0.351" rx="2.552" ry="0.351" transform="translate(74.032 119.273)" fill="#6c63ff" opacity="0.1"/>
  <path id="Path_266" data-name="Path 266" d="M310.767,372.975s5.036-16.515-.79-23.128c-4.359-4.948-9.313-4.368-11.508-3.741a4.1,4.1,0,0,0-2.643,2.195c-.774,1.671-.627,4.39,4.835,7.551,9.153,5.3,9.72,12.571,9.72,12.571Z" transform="translate(-225.484 -257.082)" fill="#6c63ff"/>
  <path id="Path_267" data-name="Path 267" d="M307.48,354.46S322.33,359.1,319,378.99" transform="translate(-233.717 -263.097)" fill="none" stroke="#565987" stroke-miterlimit="10" stroke-width="1"/>
  <path id="Path_268" data-name="Path 268" d="M331.807,359.77s-2.044,1.377-1.4,3.449" transform="translate(-249.371 -266.742)" fill="none" stroke="#565987" stroke-miterlimit="10" stroke-width="1"/>
  <path id="Path_269" data-name="Path 269" d="M312.23,361.968A2.577,2.577,0,0,1,315,361.4" transform="translate(-236.978 -267.714)" fill="none" stroke="#565987" stroke-miterlimit="10" stroke-width="1"/>
  <path id="Path_270" data-name="Path 270" d="M331,383.149s2.195-1.113,2.763.282" transform="translate(-249.862 -282.502)" fill="none" stroke="#565987" stroke-miterlimit="10" stroke-width="1"/>
  <path id="Path_271" data-name="Path 271" d="M344.6,391.462s-1.649-.132-1.678.655" transform="translate(-258.045 -288.491)" fill="none" stroke="#565987" stroke-miterlimit="10" stroke-width="1"/>
  <path id="Path_272" data-name="Path 272" d="M325.365,407.4s-5.9-12-7.526-11.74c-.768.125-1.123.881-1.286,1.643a4.829,4.829,0,0,0,.314,2.922A13,13,0,0,0,325.365,407.4Z" transform="translate(-239.879 -291.376)" fill="#6c63ff"/>
  <path id="Path_273" data-name="Path 273" d="M321,402.93s6.193,8.98,7.391,9.376" transform="translate(-242.998 -296.369)" fill="none" stroke="#565987" stroke-miterlimit="10" stroke-width="1"/>
  <line id="Line_11" data-name="Line 11" x2="1.446" transform="translate(77.441 107.963)" fill="none" stroke="#565987" stroke-miterlimit="10" stroke-width="1"/>
  <line id="Line_12" data-name="Line 12" x2="2.264" y2="0.097" transform="translate(79.172 111.249)" fill="none" stroke="#565987" stroke-miterlimit="10" stroke-width="1"/>
  <line id="Line_13" data-name="Line 13" x1="0.248" y2="1.179" transform="translate(80.304 108.622)" fill="none" stroke="#565987" stroke-miterlimit="10" stroke-width="1"/>
  <line id="Line_14" data-name="Line 14" x1="0.044" y2="1.072" transform="translate(82.916 112.212)" fill="none" stroke="#565987" stroke-miterlimit="10" stroke-width="1"/>
  <path id="Path_274" data-name="Path 274" d="M344.31,407.4s5.9-12,7.526-11.74c.771.125,1.126.881,1.286,1.643a4.851,4.851,0,0,1-.314,2.922A13,13,0,0,1,344.31,407.4Z" transform="translate(-258.999 -291.376)" fill="#6c63ff"/>
  <path id="Path_275" data-name="Path 275" d="M351.978,402.93s-6.193,8.98-7.388,9.376" transform="translate(-259.191 -296.369)" fill="none" stroke="#565987" stroke-miterlimit="10" stroke-width="1"/>
  <line id="Line_15" data-name="Line 15" x1="1.446" transform="translate(91.912 107.963)" fill="none" stroke="#565987" stroke-miterlimit="10" stroke-width="1"/>
  <line id="Line_16" data-name="Line 16" x1="2.267" y2="0.097" transform="translate(89.359 111.249)" fill="none" stroke="#565987" stroke-miterlimit="10" stroke-width="1"/>
  <line id="Line_17" data-name="Line 17" x2="0.248" y2="1.179" transform="translate(90.247 108.622)" fill="none" stroke="#565987" stroke-miterlimit="10" stroke-width="1"/>
  <line id="Line_18" data-name="Line 18" x2="0.044" y2="1.072" transform="translate(87.839 112.212)" fill="none" stroke="#565987" stroke-miterlimit="10" stroke-width="1"/>
  <path id="Path_276" data-name="Path 276" d="M311.233,438.5a1.022,1.022,0,0,1-.336-.508.445.445,0,0,1,.235-.514c.213-.085.445.066.627.216a.828.828,0,0,0,.6.292.922.922,0,0,1-.285-.859.4.4,0,0,1,.082-.176c.119-.129.336-.072.48.028a1.784,1.784,0,0,1,.583,1.5,2.684,2.684,0,0,0,0-.627.627.627,0,0,1,.232-.546.709.709,0,0,1,.351-.085.734.734,0,0,1,.574.163.577.577,0,0,1-.022.706,2.242,2.242,0,0,1-.593.473,1.276,1.276,0,0,0-.423.4.294.294,0,0,0-.031.072h-1.286A3.731,3.731,0,0,1,311.233,438.5Z" transform="translate(-236.053 -319.668)" fill="#6c63ff"/>
  <path id="Path_277" data-name="Path 277" d="M382.932,423.08a1.016,1.016,0,0,1-.336-.5.448.448,0,0,1,.235-.517.659.659,0,0,1,.627.22.812.812,0,0,0,.6.288.919.919,0,0,1-.285-.859.352.352,0,0,1,.082-.172c.119-.129.336-.075.48.025a1.786,1.786,0,0,1,.583,1.5,2.709,2.709,0,0,0,0-.627.627.627,0,0,1,.232-.546.674.674,0,0,1,.351-.082.721.721,0,0,1,.574.163.571.571,0,0,1-.022.7,2.242,2.242,0,0,1-.593.473,1.308,1.308,0,0,0-.423.4.294.294,0,0,0-.031.072h-1.286a3.618,3.618,0,0,1-.79-.539Z" transform="translate(-285.27 -309.087)" fill="#6c63ff"/>
  <path id="Path_278" data-name="Path 278" d="M359.034,438.5a1.022,1.022,0,0,1-.336-.508.448.448,0,0,1,.235-.514c.216-.085.445.066.627.216a.831.831,0,0,0,.6.292.919.919,0,0,1-.282-.859.358.358,0,0,1,.078-.176c.119-.129.336-.072.48.028a1.786,1.786,0,0,1,.586,1.5,2.876,2.876,0,0,0,0-.627.627.627,0,0,1,.232-.546.941.941,0,0,1,.925.078.571.571,0,0,1-.022.706,2.195,2.195,0,0,1-.593.473,1.336,1.336,0,0,0-.423.4.5.5,0,0,0-.031.072h-1.282A3.671,3.671,0,0,1,359.034,438.5Z" transform="translate(-268.866 -319.668)" fill="#6c63ff"/>
  <path id="Path_279" data-name="Path 279" d="M289.645,410.89s-.48.627.223,1.568,1.286,1.753,1.05,2.345c0,0-1.063-1.765-1.925-1.79S288.7,411.95,289.645,410.89Z" transform="translate(-220.736 -301.833)" fill="#6c63ff"/>
  <path id="Path_280" data-name="Path 280" d="M289.65,410.89a.739.739,0,0,0-.1.2c-.843.988-1.292,1.913-.483,1.935.756.022,1.662,1.373,1.881,1.712a.577.577,0,0,1-.025.078s-1.063-1.765-1.925-1.79S288.709,411.95,289.65,410.89Z" transform="translate(-220.741 -301.833)" opacity="0.1"/>
  <path id="Path_281" data-name="Path 281" d="M289.18,413.13c0,.223.025.4.056.4s.053-.179.053-.4-.028-.116-.06-.116S289.18,412.911,289.18,413.13Z" transform="translate(-221.156 -303.273)" fill="#ffd037"/>
  <path id="Path_282" data-name="Path 282" d="M287.956,413.959c.194.107.364.169.379.141s-.132-.135-.314-.238-.119-.031-.132,0S287.761,413.869,287.956,413.959Z" transform="translate(-220.239 -303.836)" fill="#ffd037"/>
  <path id="Path_283" data-name="Path 283" d="M297.243,410.89s.483.627-.223,1.568-1.282,1.753-1.047,2.345c0,0,1.06-1.765,1.925-1.79S298.193,411.95,297.243,410.89Z" transform="translate(-225.782 -301.833)" fill="#6c63ff"/>
  <path id="Path_284" data-name="Path 284" d="M297.291,410.89a.739.739,0,0,1,.1.2c.844.988,1.292,1.913.483,1.935-.756.022-1.659,1.373-1.881,1.712a.571.571,0,0,0,.025.078s1.06-1.765,1.925-1.79S298.241,411.95,297.291,410.89Z" transform="translate(-225.83 -301.833)" opacity="0.1"/>
  <path id="Path_285" data-name="Path 285" d="M302.76,413.13c0,.223-.022.4-.053.4s-.056-.179-.056-.4.031-.116.063-.116S302.76,412.911,302.76,413.13Z" transform="translate(-230.402 -303.273)" fill="#ffd037"/>
  <path id="Path_286" data-name="Path 286" d="M303.175,413.959c-.194.107-.364.169-.376.141s.129-.135.314-.238.119-.031.135,0S303.36,413.869,303.175,413.959Z" transform="translate(-230.503 -303.836)" fill="#ffd037"/>
  <path id="Path_287" data-name="Path 287" d="M291.545,421.556a4.936,4.936,0,0,1-1.753-.329c-.4-.288-2.069-.627-2.17-.172s-2.022,2.3-.5,2.317a12.935,12.935,0,0,0,3.935-.483C291.457,422.644,291.545,421.556,291.545,421.556Z" transform="translate(-219.341 -308.657)" fill="#a8a8a8"/>
  <path id="Path_288" data-name="Path 288" d="M287.094,424.786a13.247,13.247,0,0,0,3.935-.483c.314-.188.43-.862.47-1.173h.047s-.088,1.085-.492,1.333a12.819,12.819,0,0,1-3.935.483c-.436,0-.589-.16-.58-.392C286.6,424.7,286.768,424.782,287.094,424.786Z" transform="translate(-219.342 -310.235)" opacity="0.2"/>
  <ellipse id="Ellipse_71" data-name="Ellipse 71" cx="10.887" cy="1.609" rx="10.887" ry="1.609" transform="translate(50.311 154.041)" fill="#6c63ff" opacity="0.1"/>
  <ellipse id="Ellipse_72" data-name="Ellipse 72" cx="10.887" cy="1.609" rx="10.887" ry="1.609" transform="translate(80.721 167.361)" fill="#6c63ff" opacity="0.1"/>
  <ellipse id="Ellipse_73" data-name="Ellipse 73" cx="10.887" cy="1.609" rx="10.887" ry="1.609" transform="translate(35.988 182.516)" fill="#6c63ff" opacity="0.1"/>
  <ellipse id="Ellipse_74" data-name="Ellipse 74" cx="10.887" cy="1.609" rx="10.887" ry="1.609" transform="translate(266.661 215.804)" fill="#6c63ff" opacity="0.1"/>
  <ellipse id="Ellipse_75" data-name="Ellipse 75" cx="7.209" cy="0.806" rx="7.209" ry="0.806" transform="translate(146.779 179.593)" fill="#6c63ff" opacity="0.1"/>
  <ellipse id="Ellipse_76" data-name="Ellipse 76" cx="7.209" cy="0.806" rx="7.209" ry="0.806" transform="translate(249.941 138.203)" fill="#6c63ff" opacity="0.1"/>
  <ellipse id="Ellipse_77" data-name="Ellipse 77" cx="7.209" cy="0.806" rx="7.209" ry="0.806" transform="translate(193.81 199.348)" fill="#6c63ff" opacity="0.1"/>
  <ellipse id="Ellipse_78" data-name="Ellipse 78" cx="7.209" cy="0.806" rx="7.209" ry="0.806" transform="translate(131.587 194.03)" fill="#6c63ff" opacity="0.1"/>
  <ellipse id="Ellipse_79" data-name="Ellipse 79" cx="7.209" cy="0.806" rx="7.209" ry="0.806" transform="translate(73.274 191.938)" fill="#6c63ff" opacity="0.1"/>
  <ellipse id="Ellipse_80" data-name="Ellipse 80" cx="7.209" cy="0.806" rx="7.209" ry="0.806" transform="translate(58.078 206.375)" fill="#6c63ff" opacity="0.1"/>
  <g id="Group_51" data-name="Group 51" transform="translate(111.074 53.811)" opacity="0.1">
    <ellipse id="Ellipse_81" data-name="Ellipse 81" cx="47.699" cy="21.288" rx="47.699" ry="21.288" transform="translate(0.768)"/>
    <path id="Path_289" data-name="Path 289" d="M523.465,326.228c-2.11,11.1-22.962,19.814-48.38,19.814-25.64,0-46.636-8.868-48.436-20.1h-.179v18.089c8.385,8.761,26.948,14.853,48.5,14.853s40.111-6.092,48.5-14.853Z" transform="translate(-426.47 -297.33)"/>
    <path id="Path_290" data-name="Path 290" d="M523.465,396.422c-2.11,11.1-22.962,19.814-48.38,19.814-25.64,0-46.636-8.868-48.436-20.106h-.179v18.093c8.385,8.761,26.948,14.85,48.5,14.85s40.111-6.089,48.5-14.85Z" transform="translate(-426.47 -345.511)"/>
    <path id="Path_291" data-name="Path 291" d="M523.465,473.638c-2.11,11.1-22.962,19.814-48.38,19.814-25.64,0-46.636-8.864-48.436-20.1h-.179v19.51a3.007,3.007,0,0,0,.966,2.214c8.78,8.062,26.775,11.219,47.53,11.219s38.741-3.158,47.533-11.219a3.007,3.007,0,0,0,.966-2.214Z" transform="translate(-426.47 -398.518)"/>
  </g>
  <ellipse id="Ellipse_82" data-name="Ellipse 82" cx="47.699" cy="21.288" rx="47.699" ry="21.288" transform="translate(111.842 52.556)" fill="#6c63ff"/>
  <path id="Path_292" data-name="Path 292" d="M523.465,322.228c-2.11,11.1-22.962,19.814-48.38,19.814-25.64,0-46.636-8.868-48.436-20.1h-.179v18.089c8.385,8.761,26.948,14.853,48.5,14.853s40.111-6.092,48.5-14.853Z" transform="translate(-315.396 -240.774)" fill="#6c63ff"/>
  <path id="Path_293" data-name="Path 293" d="M523.465,392.422c-2.11,11.1-22.962,19.814-48.38,19.814-25.64,0-46.636-8.868-48.436-20.106h-.179v18.093c8.385,8.761,26.948,14.85,48.5,14.85s40.111-6.089,48.5-14.85Z" transform="translate(-315.396 -288.955)" fill="#6c63ff"/>
  <path id="Path_294" data-name="Path 294" d="M523.465,469.638c-2.11,11.1-22.962,19.814-48.38,19.814-25.64,0-46.636-8.864-48.436-20.1h-.179v19.51a3.007,3.007,0,0,0,.966,2.214c8.78,8.062,26.775,11.219,47.53,11.219s38.741-3.158,47.533-11.219a3.007,3.007,0,0,0,.966-2.214Z" transform="translate(-315.396 -341.962)" fill="#6c63ff"/>
  <ellipse id="Ellipse_83" data-name="Ellipse 83" cx="17.873" cy="3.217" rx="17.873" ry="3.217" transform="translate(211.978 175.906)" fill="#6c63ff" opacity="0.1"/>
  <path id="Path_295" data-name="Path 295" d="M772.178,402.1a3.69,3.69,0,0,0,4.1-.267l-.016,2.543c.125,1.743,2.283,8.1,2.283,8.1l1.521,5.227a40.786,40.786,0,0,1,1.671,11.376,10.893,10.893,0,0,0,.486,3.581c.812,2.195-.313,5.017-.806,6.058a25.1,25.1,0,0,1-2.509.706,1.825,1.825,0,0,0-.223.069v-.016a10.345,10.345,0,0,1-3.3.781.887.887,0,0,0-.627,1.546,4.666,4.666,0,0,1-1.518.2c-1.016-.125-1.524,1.618.379,2.117s12.687,0,12.687,0a1.527,1.527,0,0,0,.809-1.687l1.348-.056s1.9-.872,0-3.239l-.1.075-.4-1.2V436.4s2.411-11.6,1.649-12.96-1.167-8.363-1.167-8.363l.267-7.588a18.013,18.013,0,0,0,1.217-5.384,11.289,11.289,0,0,0,.486-2.552c.031-.411.056-.837.072-1.282a8.549,8.549,0,0,0-.464-2.872A28.868,28.868,0,0,1,792.9,391.8a3.706,3.706,0,0,0,1.144-3.239l-.627-4.236-1.524-7.212a5.516,5.516,0,0,0-.69-3.81c.11-.649.213-1.3.292-1.947a24.96,24.96,0,0,0-.445-8.466,5.72,5.72,0,0,0-1.2-2.693c-.768-.834-2.016-1.339-2.3-2.427a6.484,6.484,0,0,0-.176-.822c-.279-.712-1.157-.972-1.928-1.066a10.475,10.475,0,0,0-4.678.248,5.672,5.672,0,0,0-2.709,2.515,2.16,2.16,0,0,0-.314,1.552,2.07,2.07,0,0,0,.216.533,4.826,4.826,0,0,0,2.8,6.177c.031.1.06.191.082.282a4.831,4.831,0,0,1,.125.68c-.025.439-.053.881-.072,1.323l-.047.179a32.965,32.965,0,0,0-3.189,1.624c.759,1.123-.129,5.857-.129,5.857-1.9,1.119-3.8,3.985-1.775,6.977a7.465,7.465,0,0,1,.887,6.227l-.314,4.873h0l-.063.975h.022l-.022.37h.053v.4a5.914,5.914,0,0,0-2.969,2.211,7.823,7.823,0,0,1-1.326,1.627.978.978,0,0,0,.157,1.6ZM787.5,389.159a4.633,4.633,0,0,1,.452-2.452h.9a5.835,5.835,0,0,0,.11.59C789.211,388.41,788.182,388.933,787.5,389.159Z" transform="translate(-552.36 -263.972)" fill="url(#linear-gradient)"/>
  <path id="Path_296" data-name="Path 296" d="M800.741,614.223l.489,1.464-1.587,1.587-5.249,1.236-3.785-.367.245-1.342h0a1.621,1.621,0,0,1,1.2-1.185c1.568-.364,4.522-1.2,5.146-2.355Z" transform="translate(-565.355 -440.747)" fill="#db8b8b"/>
  <path id="Path_297" data-name="Path 297" d="M800.741,614.223l.489,1.464-1.587,1.587-5.249,1.236-3.785-.367.245-1.342h0a1.621,1.621,0,0,1,1.2-1.185c1.568-.364,4.522-1.2,5.146-2.355Z" transform="translate(-565.355 -440.747)" opacity="0.1"/>
  <path id="Path_298" data-name="Path 298" d="M785.647,622.273l.734-.975-.734-1.132a9.815,9.815,0,0,1-3.173.765c-.978-.122-1.464,1.587.367,2.076s12.207,0,12.207,0,1.831-.856,0-3.176l-1.587,1.223s-2.687,1.464-4.029,1.22Z" transform="translate(-559.173 -445.257)" fill="#c17174"/>
  <path id="Path_299" data-name="Path 299" d="M784,623.552l3.785.367,5.249-1.223,1.587-1.587-.129-.386-.182-.546-.179-.533-3.546-.975a2.2,2.2,0,0,1-.718.718,15.087,15.087,0,0,1-4.427,1.637,1.185,1.185,0,0,0-.151.047,1.567,1.567,0,0,0-.627.379,1.6,1.6,0,0,0-.433.759Z" transform="translate(-560.818 -444.46)" fill="#db8b8b"/>
  <path id="Path_300" data-name="Path 300" d="M784,628.048l3.785.367,5.249-1.223,1.587-1.587-.129-.386-1.458,1.119s-2.687,1.464-4.029,1.22h-3.788l.734-.975-.658-1.016a1.567,1.567,0,0,0-.627.379,1.6,1.6,0,0,0-.433.759Z" transform="translate(-560.818 -448.957)" opacity="0.1"/>
  <path id="Path_301" data-name="Path 301" d="M779.027,627.729l.734-.975-.734-1.132a9.813,9.813,0,0,1-3.173.765c-.978-.122-1.464,1.587.367,2.076s12.207,0,12.207,0,1.831-.856,0-3.173l-1.587,1.22s-2.687,1.464-4.029,1.22Z" transform="translate(-554.629 -449.005)" fill="#c17174"/>
  <path id="Path_302" data-name="Path 302" d="M797.61,393.109s5.861.627,5.017-1.831a4.361,4.361,0,0,1-.182-2.157,5.938,5.938,0,0,1,1.035-2.48l-5.494.853a6.855,6.855,0,0,1,.746,1.765A3.609,3.609,0,0,1,797.61,393.109Z" transform="translate(-570.16 -285.187)" fill="#db8b8b"/>
  <path id="Path_303" data-name="Path 303" d="M814.013,496s-.122,5.249-1.342,7.814l-.245,7.447s.364,6.836,1.1,8.178-1.587,12.7-1.587,12.7v1.954s-3.907,1.464-5.017-.245l1.1-14.527-.489-20.14Z" transform="translate(-576.551 -360.255)" fill="#474463"/>
  <path id="Path_304" data-name="Path 304" d="M814.013,496s-.122,5.249-1.342,7.814l-.245,7.447s.364,6.836,1.1,8.178-1.587,12.7-1.587,12.7v1.954s-3.907,1.464-5.017-.245l1.1-14.527-.489-20.14Z" transform="translate(-576.551 -360.255)" opacity="0.1"/>
  <path id="Path_305" data-name="Path 305" d="M825.335,442.31l.734,1.954.627,4.148a3.685,3.685,0,0,1-1.1,3.176,34.95,34.95,0,0,0-3.418,4.515l-2.317-6.958s2.317-.367,1.95-1.953a22.543,22.543,0,0,1-.241-4.515Z" transform="translate(-585.434 -323.4)" fill="#ff748e"/>
  <path id="Path_306" data-name="Path 306" d="M825.384,442.22l.731,1.954.627,4.152a3.669,3.669,0,0,1-1.1,3.173,34.6,34.6,0,0,0-3.418,4.518l-2.336-6.967s2.32-.367,1.953-1.953a22.666,22.666,0,0,1-.245-4.518Z" transform="translate(-585.454 -323.339)" opacity="0.05"/>
  <path id="Path_307" data-name="Path 307" d="M802.72,619.4c1.568,2.465,4,1.066,4.437.79l-.179-.533-3.543-.988A2.2,2.2,0,0,1,802.72,619.4Z" transform="translate(-573.668 -444.46)" opacity="0.1"/>
  <path id="Path_308" data-name="Path 308" d="M787.1,481.559c.122,1.709,2.195,7.933,2.195,7.933l1.464,5.124a40.886,40.886,0,0,1,1.609,11.144,10.882,10.882,0,0,0,.467,3.509c.978,2.687-.975,6.346-.975,6.346,1.709,3.054,4.638.978,4.638.978V514.64s2.32-10.62,1.709-12.7a50.487,50.487,0,0,1-.853-7.689V484.121a11.5,11.5,0,0,0,3.349-7.287c.028-.4.053-.822.069-1.254.1-2.753-1.787-5.983-2.508-7.134-.176-.279-.288-.436-.288-.436L787.2,472.287h-.025v1.345Z" transform="translate(-562.946 -341.042)" fill="#474463"/>
  <path id="Path_309" data-name="Path 309" d="M798.78,387.493a6.856,6.856,0,0,1,.746,1.765,4.772,4.772,0,0,0,3.713-.138,5.939,5.939,0,0,1,1.035-2.48Z" transform="translate(-570.964 -285.187)" opacity="0.1"/>
  <circle id="Ellipse_84" data-name="Ellipse 84" cx="4.76" cy="4.76" r="4.76" transform="translate(225.499 94.618)" fill="#db8b8b"/>
  <path id="Path_310" data-name="Path 310" d="M787.1,473.6h.053c5.117,1.054,11.545-4.28,11.545-4.28a6.377,6.377,0,0,1-.445-.909c-.176-.279-.288-.436-.288-.436l-10.777,4.277-.028.426Z" transform="translate(-562.946 -341.014)" opacity="0.1"/>
  <path id="Path_311" data-name="Path 311" d="M785.562,400.629s6.836-4.152,9.031-2.443l3.054,3.907s1.953.611,1.59,4.531l1.464,7.08-4.39,1.1a4.809,4.809,0,0,0-.486,5.983s-6.472,5.371-11.6,4.271l.367-5.735a7.445,7.445,0,0,0-.853-6.105,4.772,4.772,0,0,1,1.709-6.836C785.44,406.368,786.293,401.727,785.562,400.629Z" transform="translate(-560.063 -292.829)" fill="#ff748e"/>
  <path id="Path_312" data-name="Path 312" d="M778.443,486.3a6.3,6.3,0,0,0-3.785,2.443,7.616,7.616,0,0,1-1.279,1.6.966.966,0,0,0,.154,1.543c.969.583,2.546.941,4.543-.7C781.509,488.376,778.443,486.3,778.443,486.3Z" transform="translate(-553.31 -353.597)" fill="#db8b8b"/>
  <path id="Path_313" data-name="Path 313" d="M793.2,414.079s2.44-.245,3.051,6.1,1.587,7.814,1.587,7.814.612,3.3-.856,5.249-4.271,6.105-4.271,6.105-3.051.853-3.662-2.195l3.785-7.08a5.09,5.09,0,0,0-.856-4.152C790.514,424.213,789.417,412.856,793.2,414.079Z" transform="translate(-564.285 -303.958)" opacity="0.1"/>
  <path id="Path_314" data-name="Path 314" d="M792.456,412.91s2.44-.245,3.051,6.105,1.587,7.811,1.587,7.811.627,3.3-.853,5.249-4.258,6.105-4.258,6.105-3.051.853-3.662-2.195l3.785-7.08a5.076,5.076,0,0,0-.856-4.152C789.781,423.044,788.671,411.69,792.456,412.91Z" transform="translate(-563.784 -303.156)" fill="#ff748e"/>
  <path id="Path_315" data-name="Path 315" d="M795.031,427.71s-.241,3.785.856,5.861,1.1,4.76,0,6.224" transform="translate(-568.375 -313.378)" opacity="0.1"/>
  <path id="Path_316" data-name="Path 316" d="M793.14,408.373s.975-.975,3.785-1.1a8.081,8.081,0,0,0,4.026-.975" transform="translate(-567.092 -298.682)" opacity="0.1"/>
  <path id="Path_317" data-name="Path 317" d="M798.846,360.1c.743.091,1.59.345,1.856,1.041a6.927,6.927,0,0,1,.172.806c.276,1.066,1.477,1.568,2.217,2.377a5.707,5.707,0,0,1,1.154,2.643,24.829,24.829,0,0,1,.43,8.294c-.238,2.022-.727,4.017-.862,6.049a9.608,9.608,0,0,0,1.223,5.882,14.2,14.2,0,0,1,1.449,2.195,4.23,4.23,0,0,1-2.568.68q-1.568.053-3.151,0a3.346,3.346,0,0,1-1.6-.336,2.464,2.464,0,0,1-.84-.9,6.443,6.443,0,0,1-.728-3.427c.025-1.182.213-2.358.235-3.543a3.079,3.079,0,0,0-.411-1.856,5.984,5.984,0,0,0-1.022-.941,6.479,6.479,0,0,1-1.8-4.763c-.044-1.747.245-3.493.1-5.233-.056-.68-.314-1.5-.981-1.631a3.568,3.568,0,0,1-.627-.082c-.536-.207-.483-.963-.627-1.518-.172-.627-.706-1.107-.856-1.734-.351-1.477,1.53-3.242,2.763-3.763A9.88,9.88,0,0,1,798.846,360.1Z" transform="translate(-566.01 -266.873)" opacity="0.1"/>
  <path id="Path_318" data-name="Path 318" d="M799.236,359.33c.743.091,1.59.345,1.856,1.044a6.757,6.757,0,0,1,.172.8c.276,1.066,1.477,1.568,2.217,2.377a5.707,5.707,0,0,1,1.154,2.643,24.825,24.825,0,0,1,.426,8.3c-.235,2.022-.724,4.017-.859,6.052a9.594,9.594,0,0,0,1.223,5.879,14.353,14.353,0,0,1,1.449,2.195,4.208,4.208,0,0,1-2.568.68q-1.568.05-3.151,0a3.342,3.342,0,0,1-1.6-.332,2.474,2.474,0,0,1-.84-.9,6.442,6.442,0,0,1-.727-3.427c.025-1.182.213-2.358.235-3.54a3.161,3.161,0,0,0-.411-1.856,5.871,5.871,0,0,0-1.022-.941,6.48,6.48,0,0,1-1.8-4.763c-.044-1.747.245-3.493.1-5.233-.056-.68-.314-1.5-.981-1.631a3.566,3.566,0,0,1-.627-.082c-.536-.207-.483-.963-.627-1.518-.172-.627-.705-1.1-.856-1.734-.351-1.477,1.53-3.242,2.762-3.763A9.889,9.889,0,0,1,799.236,359.33Z" transform="translate(-566.277 -266.349)" fill="#464353"/>
  <path id="Path_319" data-name="Path 319" d="M200.28,631.883s3.361-.1,4.371-.825,5.168-1.583,5.418-.426,5.048,5.751,1.254,5.782-8.811-.593-9.824-1.207S200.28,631.883,200.28,631.883Z" transform="translate(-160.131 -452.284)" fill="#a8a8a8"/>
  <path id="Path_320" data-name="Path 320" d="M211.393,639.953c-3.791.031-8.811-.59-9.821-1.2-.768-.47-1.076-2.151-1.179-2.929h-.113s.213,2.709,1.223,3.324,6.03,1.235,9.824,1.207c1.094,0,1.471-.4,1.452-.975C212.625,639.736,212.208,639.953,211.393,639.953Z" transform="translate(-160.131 -456.233)" opacity="0.2"/>
  <path id="Path_321" data-name="Path 321" d="M881.17,492.479a8.454,8.454,0,0,0,3-.568c.7-.5,3.546-1.085,3.719-.292s3.468,3.948.862,3.97-6.049-.408-6.742-.828S881.17,492.479,881.17,492.479Z" transform="translate(-627.519 -356.982)" fill="#a8a8a8"/>
  <path id="Path_322" data-name="Path 322" d="M888.8,498.038c-2.6.019-6.049-.408-6.742-.828-.53-.314-.74-1.477-.809-2.01h-.078s.147,1.859.84,2.283,4.139.847,6.742.828c.753,0,1.013-.273,1-.671C889.646,497.884,889.36,498.031,888.8,498.038Z" transform="translate(-627.519 -359.706)" opacity="0.2"/>
  <circle id="Ellipse_85" data-name="Ellipse 85" cx="6.782" cy="6.782" r="6.782" transform="translate(3.029 0)" fill="#6c63ff" opacity="0.1"/>
  <circle id="Ellipse_86" data-name="Ellipse 86" cx="6.782" cy="6.782" r="6.782" transform="translate(294.643 19.441)" fill="#6c63ff" opacity="0.1"/>
  <circle id="Ellipse_87" data-name="Ellipse 87" cx="5.017" cy="5.017" r="5.017" transform="translate(0 28.277)" fill="#6c63ff" opacity="0.1"/>
  <circle id="Ellipse_88" data-name="Ellipse 88" cx="5.017" cy="5.017" r="5.017" transform="translate(50.797 0.056)" fill="#6c63ff" opacity="0.1"/>
  <circle id="Ellipse_89" data-name="Ellipse 89" cx="5.017" cy="5.017" r="5.017" transform="translate(256.495 0.684)" fill="#6c63ff" opacity="0.1"/>
  <path id="Path_323" data-name="Path 323" d="M954.3,709.49s1.254,1.643-.58,4.123-3.349,4.572-2.737,6.118c0,0,2.769-4.6,5.017-4.669S956.773,712.262,954.3,709.49Z" transform="translate(-675.344 -506.803)" fill="#fc6681"/>
  <path id="Path_324" data-name="Path 324" d="M954.44,709.49a2.016,2.016,0,0,1,.254.517c2.195,2.584,3.374,4.995,1.254,5.055-1.969.056-4.33,3.578-4.9,4.468a1.675,1.675,0,0,0,.069.2s2.769-4.6,5.017-4.669S956.917,712.262,954.44,709.49Z" transform="translate(-675.487 -506.803)" opacity="0.1"/>
  <path id="Path_325" data-name="Path 325" d="M968.668,715.35c0,.577-.066,1.047-.144,1.047s-.144-.47-.144-1.047.082-.314.16-.314S968.668,714.77,968.668,715.35Z" transform="translate(-687.383 -510.568)" fill="#ffd037"/>
  <path id="Path_326" data-name="Path 326" d="M969.681,717.505c-.508.276-.941.442-.991.373s.345-.351.85-.627.313-.075.348,0S970.189,717.229,969.681,717.505Z" transform="translate(-687.593 -512.033)" fill="#ffd037"/>
  <path id="Path_327" data-name="Path 327" d="M934.55,709.49s-1.254,1.643.58,4.123,3.349,4.572,2.737,6.118c0,0-2.772-4.6-5.017-4.669S932.07,712.262,934.55,709.49Z" transform="translate(-662.233 -506.803)" fill="#fc6681"/>
  <path id="Path_328" data-name="Path 328" d="M934.555,709.49a2.074,2.074,0,0,0-.257.517c-2.195,2.584-3.371,4.995-1.254,5.055,1.969.056,4.333,3.578,4.9,4.468-.019.066-.041.135-.066.2,0,0-2.772-4.6-5.017-4.669S932.075,712.262,934.555,709.49Z" transform="translate(-662.238 -506.803)" opacity="0.1"/>
  <path id="Path_329" data-name="Path 329" d="M933.25,715.35c0,.577.066,1.047.147,1.047s.144-.47.144-1.047-.082-.314-.163-.314S933.25,714.77,933.25,715.35Z" transform="translate(-663.269 -510.568)" fill="#ffd037"/>
  <path id="Path_330" data-name="Path 330" d="M930.029,717.505c.508.276.941.442.988.373s-.342-.351-.85-.627-.314-.075-.345,0S929.521,717.229,930.029,717.505Z" transform="translate(-660.848 -512.033)" fill="#ffd037"/>
  <path id="Path_331" data-name="Path 331" d="M934.53,737.316s3.512-.11,4.569-.862,5.4-1.652,5.666-.445,5.274,6.011,1.311,6.042-9.213-.627-10.266-1.254S934.53,737.316,934.53,737.316Z" transform="translate(-664.147 -524.601)" fill="#a8a8a8"/>
  <path id="Path_332" data-name="Path 332" d="M946.148,745.785c-3.967.031-9.212-.627-10.269-1.254-.8-.489-1.126-2.248-1.232-3.06h-.116s.223,2.822,1.279,3.474,6.3,1.292,10.266,1.254c1.144,0,1.539-.417,1.518-1.019C947.436,745.549,947,745.778,946.148,745.785Z" transform="translate(-664.147 -528.755)" opacity="0.2"/>
  <path id="Path_333" data-name="Path 333" d="M374.275,189.06a6.585,6.585,0,1,0,6.585,6.585A6.585,6.585,0,0,0,374.275,189.06Zm0,1.276a5.331,5.331,0,1,1-5.331,5.331,5.331,5.331,0,0,1,5.331-5.331M378,193.8l-.6-.605a.314.314,0,0,0-.452,0l-3.763,3.728-1.587-1.612a.314.314,0,0,0-.452,0l-.6.6a.314.314,0,0,0,0,.452l2.414,2.433a.314.314,0,0,0,.452,0L378,194.243a.314.314,0,0,0,0-.452Z" transform="translate(-275.048 -149.56)" fill="#3acc6c" opacity="0.7"/>
  <path id="Path_334" data-name="Path 334" d="M145.053,295.006a6.585,6.585,0,1,0,4.98.83,6.585,6.585,0,0,0-4.98-.83Zm.288,1.254a5.331,5.331,0,1,1-3.985,6.378,5.331,5.331,0,0,1,3.985-6.378m4.412,2.54-.721-.464a.314.314,0,0,0-.439.1l-2.822,4.478-1.91-1.207a.314.314,0,0,0-.439.1l-.455.721a.314.314,0,0,0,.1.439l2.9,1.828a.314.314,0,0,0,.442-.1l3.449-5.465a.314.314,0,0,0-.1-.439Z" transform="translate(-118.723 -222.168)" fill="#3acc6c" opacity="0.7"/>
  <path id="Path_335" data-name="Path 335" d="M680.345,192.1a6.585,6.585,0,1,0,6.585,6.585A6.585,6.585,0,0,0,680.345,192.1Zm0,1.276a5.331,5.331,0,1,1-5.331,5.331,5.331,5.331,0,0,1,5.331-5.331m3.728,3.465-.6-.605a.314.314,0,0,0-.452,0l-3.763,3.728-1.59-1.6a.314.314,0,0,0-.452,0l-.6.605a.314.314,0,0,0,0,.452l2.414,2.433a.314.314,0,0,0,.452,0l4.587-4.553a.314.314,0,0,0,0-.452Z" transform="translate(-485.145 -151.647)" fill="#3acc6c" opacity="0.7"/>
  <path id="Path_336" data-name="Path 336" d="M920.159,295.766a6.585,6.585,0,1,0,4.5,2.286A6.585,6.585,0,0,0,920.159,295.766Zm-.1,1.27a5.315,5.315,0,1,1-3.871,1.262,5.331,5.331,0,0,1,3.871-1.262m3.449,3.744-.552-.649a.314.314,0,0,0-.448-.038l-4.036,3.427-1.461-1.721a.314.314,0,0,0-.452-.038l-.649.552a.313.313,0,0,0-.034.448l2.217,2.612a.314.314,0,0,0,.448.038l4.929-4.183a.314.314,0,0,0,.038-.448Z" transform="translate(-649.412 -222.794)" fill="#3acc6c" opacity="0.7"/>
</svg>
