<svg id="Group_91" data-name="Group 91" xmlns="http://www.w3.org/2000/svg" width="462.992" height="349.5" viewBox="0 0 462.992 349.5">
  <path id="Path_708" data-name="Path 708" d="M651.6,123.471c3.971,8.451-4.444,10.845-14.084,15.375s-16.854,9.48-20.825,1.029-7.194-25.226,6.443-31.634C637.246,101.612,647.633,115.019,651.6,123.471Z" transform="translate(-384.795 -106.46)" fill="#2f2e41"/>
  <circle id="Ellipse_155" data-name="Ellipse 155" cx="12.977" cy="12.977" r="12.977" transform="translate(234.164 7.676)" fill="#ffb8b8"/>
  <path id="Path_709" data-name="Path 709" d="M729.192,239.277c-.449-.586-.9-1.162-1.353-1.722q-.88-1.094-1.77-2.119c-6.726-7.762-13.88-12.649-21.758-13.172H704.3l-.116-.011-15.7,15.3-5.337,5.2.116.285,2.879,7.17H736.6a124.066,124.066,0,0,0-7.408-10.932Z" transform="translate(-417.759 -161.072)" fill="#2f2e41"/>
  <path id="Path_710" data-name="Path 710" d="M620.735,136.954h0l4.645-2.183-.647-6.7,3.106,5.546,2.22-1.043-.378-3.909,1.812,3.235,16.5-7.753h0a13.738,13.738,0,0,0-18.276-6.591l-2.391,1.124a13.738,13.738,0,0,0-6.591,18.276Z" transform="translate(-387.705 -111.076)" fill="#2f2e41"/>
  <path id="Path_711" data-name="Path 711" d="M575.736,442.442H304.77a8.728,8.728,0,0,1-8.718-8.718V270.906a6.394,6.394,0,0,1,6.387-6.387H577.957a6.5,6.5,0,0,1,6.5,6.5V433.724a8.728,8.728,0,0,1-8.718,8.718Z" transform="translate(-235.19 -181.006)" fill="#f2f2f2"/>
  <path id="Path_712" data-name="Path 712" d="M321.006,446.314H575.065a8.454,8.454,0,0,0,8.454-8.454V299.667a8.454,8.454,0,0,0-8.454-8.454H321.006a8.454,8.454,0,0,0-8.454,8.454V437.86A8.454,8.454,0,0,0,321.006,446.314Z" transform="translate(-242.972 -193.596)" fill="#fff"/>
  <path id="Path_713" data-name="Path 713" d="M584.224,263.9H295.82v-4.438a8.757,8.757,0,0,1,8.75-8.744h270.9a8.757,8.757,0,0,1,8.75,8.744Z" transform="translate(-235.081 -174.495)" fill="#6c63ff"/>
  <circle id="Ellipse_156" data-name="Ellipse 156" cx="2.263" cy="2.263" r="2.263" transform="translate(74.377 80.559)" fill="#fff"/>
  <circle id="Ellipse_157" data-name="Ellipse 157" cx="2.263" cy="2.263" r="2.263" transform="translate(82.968 80.559)" fill="#fff"/>
  <circle id="Ellipse_158" data-name="Ellipse 158" cx="2.263" cy="2.263" r="2.263" transform="translate(91.558 80.559)" fill="#fff"/>
  <path id="Path_714" data-name="Path 714" d="M559.214,498.8h-22.72a5.025,5.025,0,0,1-5.019-5.019v-22.72a5.025,5.025,0,0,1,5.019-5.019h22.72a5.025,5.025,0,0,1,5.02,5.019v22.72A5.025,5.025,0,0,1,559.214,498.8Zm-22.72-31.7a3.967,3.967,0,0,0-3.963,3.963v22.72a3.967,3.967,0,0,0,3.963,3.963h22.72a3.967,3.967,0,0,0,3.963-3.963v-22.72a3.967,3.967,0,0,0-3.963-3.963Z" transform="translate(-346.224 -276.05)" fill="#ccc"/>
  <path id="Path_715" data-name="Path 715" d="M561.8,498.117H548.06a1.587,1.587,0,0,1-1.585-1.585V479.625a1.587,1.587,0,0,1,1.585-1.585h9.954a1.589,1.589,0,0,1,.993.35l3.783,3.04a1.577,1.577,0,0,1,.592,1.236v13.868a1.587,1.587,0,0,1-1.585,1.585ZM548.06,479.1a.529.529,0,0,0-.528.528v16.908a.529.529,0,0,0,.528.528H561.8a.529.529,0,0,0,.528-.528V482.665a.526.526,0,0,0-.2-.412l-3.784-3.04a.529.529,0,0,0-.331-.116Z" transform="translate(-353.298 -281.71)" fill="#ccc"/>
  <path id="Path_716" data-name="Path 716" d="M562.457,491.1H554a.528.528,0,1,1,0-1.057h8.454a.528.528,0,0,1,0,1.057Z" transform="translate(-356.6 -287.369)" fill="#ccc"/>
  <path id="Path_717" data-name="Path 717" d="M562.457,497.1H554a.528.528,0,1,1,0-1.057h8.454a.528.528,0,0,1,0,1.057Z" transform="translate(-356.6 -290.199)" fill="#ccc"/>
  <path id="Path_718" data-name="Path 718" d="M562.457,503.1H554a.528.528,0,1,1,0-1.057h8.454a.528.528,0,0,1,0,1.057Z" transform="translate(-356.6 -293.029)" fill="#ccc"/>
  <path id="Path_719" data-name="Path 719" d="M661.214,498.8h-22.72a5.025,5.025,0,0,1-5.019-5.019v-22.72a5.025,5.025,0,0,1,5.019-5.019h22.72a5.025,5.025,0,0,1,5.02,5.019v22.72A5.025,5.025,0,0,1,661.214,498.8Zm-22.72-31.7a3.967,3.967,0,0,0-3.963,3.963v22.72a3.967,3.967,0,0,0,3.963,3.963h22.72a3.967,3.967,0,0,0,3.963-3.963v-22.72a3.967,3.967,0,0,0-3.963-3.963Z" transform="translate(-394.33 -276.05)" fill="#ccc"/>
  <path id="Path_720" data-name="Path 720" d="M663.854,497.664H649.06a1.587,1.587,0,0,1-1.585-1.585v-8.454a1.587,1.587,0,0,1,1.585-1.585h14.794a1.587,1.587,0,0,1,1.585,1.585v8.454a1.587,1.587,0,0,1-1.585,1.585ZM649.06,487.1a.529.529,0,0,0-.528.528v8.454a.529.529,0,0,0,.528.528h14.794a.529.529,0,0,0,.528-.528v-8.454a.529.529,0,0,0-.528-.528Z" transform="translate(-400.933 -285.483)" fill="#ccc"/>
  <path id="Path_721" data-name="Path 721" d="M656.456,494.189a1.586,1.586,0,0,1-.84-.239l-7.894-4.934a.528.528,0,1,1,.56-.9l7.894,4.934a.531.531,0,0,0,.56,0l7.894-4.934a.529.529,0,0,1,.56.9l-7.893,4.934A1.588,1.588,0,0,1,656.456,494.189Z" transform="translate(-400.933 -286.426)" fill="#ccc"/>
  <path id="Path_722" data-name="Path 722" d="M457.214,498.8h-22.72a5.025,5.025,0,0,1-5.02-5.019v-22.72a5.025,5.025,0,0,1,5.02-5.019h22.72a5.025,5.025,0,0,1,5.019,5.019v22.72A5.025,5.025,0,0,1,457.214,498.8Zm-22.72-31.7a3.967,3.967,0,0,0-3.963,3.963v22.72a3.967,3.967,0,0,0,3.963,3.963h22.72a3.967,3.967,0,0,0,3.963-3.963v-22.72a3.967,3.967,0,0,0-3.963-3.963Z" transform="translate(-298.117 -276.05)" fill="#ccc"/>
  <path id="Path_723" data-name="Path 723" d="M459.854,497.664H445.059a1.587,1.587,0,0,1-1.585-1.585v-8.454a1.587,1.587,0,0,1,1.585-1.585h14.794a1.587,1.587,0,0,1,1.585,1.585v8.454a1.587,1.587,0,0,1-1.585,1.585ZM445.059,487.1a.529.529,0,0,0-.528.528v8.454a.529.529,0,0,0,.528.528h14.794a.529.529,0,0,0,.528-.528v-8.454a.529.529,0,0,0-.528-.528Z" transform="translate(-304.72 -285.483)" fill="#ccc"/>
  <path id="Path_724" data-name="Path 724" d="M459.6,501.2H448.969a1.057,1.057,0,0,1-.915-1.585l3.2-5.548a1.057,1.057,0,0,1,1.83,0l2.069,3.583,1.2-2.076a1.057,1.057,0,0,1,1.83,0l2.333,4.041a1.057,1.057,0,0,1-.915,1.585Zm0-1.057h0l-2.333-4.041-1.656,2.868a.528.528,0,0,1-.458.264h0a.528.528,0,0,1-.458-.264l-2.526-4.376-3.2,5.548Z" transform="translate(-306.813 -289.02)" fill="#ccc"/>
  <circle id="Ellipse_159" data-name="Ellipse 159" cx="1.057" cy="1.057" r="1.057" transform="translate(152.492 202.67)" fill="#ccc"/>
  <path id="Path_725" data-name="Path 725" d="M760.292,625.847h-6.478l-3.081-24.985h9.56Z" transform="translate(-354.071 -283.386)" fill="#ffb8b8"/>
  <path id="Path_726" data-name="Path 726" d="M934.172,759H913.285v-.264a8.13,8.13,0,0,1,8.13-8.13h12.757Z" transform="translate(-526.298 -410.261)" fill="#2f2e41"/>
  <path id="Path_727" data-name="Path 727" d="M810.292,625.847h-6.478l-3.081-24.985h9.56Z" transform="translate(-377.652 -283.386)" fill="#ffb8b8"/>
  <path id="Path_728" data-name="Path 728" d="M984.172,759H963.285v-.264a8.13,8.13,0,0,1,8.13-8.13h12.757Z" transform="translate(-549.88 -410.261)" fill="#2f2e41"/>
  <path id="Path_729" data-name="Path 729" d="M964.29,648.388l-6-1.825a2.374,2.374,0,0,1-1.673-2.025l-5.593-53.009a.253.253,0,0,0-.253-.236.248.248,0,0,0-.27.216l-9.368,51.357a2.378,2.378,0,0,1-2.819,1.9l-7.667-1.579a2.386,2.386,0,0,1-1.893-2.49l5.7-84.175,38.644-4.17-5.742,93.9a2.375,2.375,0,0,1-3.065,2.13Z" transform="translate(-533.592 -316.758)" fill="#2f2e41"/>
  <circle id="Ellipse_160" data-name="Ellipse 160" cx="12.977" cy="12.977" r="12.977" transform="translate(417.684 140.506)" fill="#ffb8b8"/>
  <path id="Path_730" data-name="Path 730" d="M939.433,499.033l8.379-52.758a20,20,0,0,1,25.364-16.062h0a19.942,19.942,0,0,1,14.055,22.858l-8.766,47.115Z" transform="translate(-538.631 -258.775)" fill="#6c63ff"/>
  <path id="Path_731" data-name="Path 731" d="M995.3,556.846a5.313,5.313,0,0,0,.923-8.095l8.663-16.776-9.756,1.041L988.4,548.787a5.342,5.342,0,0,0,6.9,8.058Z" transform="translate(-561.06 -307.147)" fill="#ffb8b8"/>
  <path id="Path_732" data-name="Path 732" d="M1001.452,504.841a2.381,2.381,0,0,1-1.282-.608l-3.315-3.063a2.386,2.386,0,0,1-.577-2.67l6.624-15.7-.94-31.026a7.659,7.659,0,0,1,15.178,2.07l1.607,19.5a24.5,24.5,0,0,1-4.722,16.589L1003.7,503.9a2.38,2.38,0,0,1-1.688.953A2.353,2.353,0,0,1,1001.452,504.841Z" transform="translate(-565.354 -266.196)" fill="#6c63ff"/>
  <path id="Path_733" data-name="Path 733" d="M854.419,377.9a5.313,5.313,0,0,0,7.094,4.006l12.071,14.519,2.845-9.39-11.9-12.347a5.342,5.342,0,0,0-10.111,3.213Z" transform="translate(-498.49 -231.485)" fill="#ffb8b8"/>
  <path id="Path_734" data-name="Path 734" d="M872.1,392.268a2.381,2.381,0,0,1,1.06-.944l4.113-1.858a2.385,2.385,0,0,1,2.684.51L891.832,402.2l28.937,11.231a7.659,7.659,0,0,1-7.824,13.17l-18.586-6.125a24.5,24.5,0,0,1-13.435-10.817L872.09,394.7a2.377,2.377,0,0,1,.009-2.432Z" transform="translate(-506.714 -239.837)" fill="#6c63ff"/>
  <path id="Path_735" data-name="Path 735" d="M825.842,375.652l-.528,16.908-9.734,16.914,8.127-18.848Z" transform="translate(-384.655 -177.17)" opacity="0.1"/>
  <path id="Path_736" data-name="Path 736" d="M979.446,385.034a3.394,3.394,0,0,1-3.715-2.484,5.159,5.159,0,0,0-3.672-3.843c-2.381-.544-5.29.577-7.034-1.227a3.507,3.507,0,0,1-.832-3.087,7.089,7.089,0,0,1,2.939-4.136,18,18,0,0,1,9.968-3.725,35.758,35.758,0,0,1,5.612.279,24.835,24.835,0,0,1,5.74,1.049,13.514,13.514,0,0,1,8.455,9.87,15.6,15.6,0,0,1-3.2,12.75,16.75,16.75,0,0,1-6.425,4.892,2.507,2.507,0,0,1-1.905.1c-1.562-.621-1.307-2.557-.595-3.848.762-1.382,1.936-2.719,1.322-4.4a3.33,3.33,0,0,0-1.652-1.779,8.517,8.517,0,0,0-4.961-.412Z" transform="translate(-550.271 -229.111)" fill="#2f2e41"/>
  <path id="Path_737" data-name="Path 737" d="M695.139,369.213H534.515a8.728,8.728,0,0,1-8.718-8.718V326.151a8.728,8.728,0,0,1,8.718-8.718H695.139a8.728,8.728,0,0,1,8.718,8.718v34.344a8.728,8.728,0,0,1-8.718,8.718Z" transform="translate(-343.546 -205.962)" fill="#fff"/>
  <path id="Path_738" data-name="Path 738" d="M694.9,369.241H534.279a8.992,8.992,0,0,1-8.982-8.982V325.915a8.992,8.992,0,0,1,8.982-8.982H694.9a8.992,8.992,0,0,1,8.982,8.982v34.344a8.992,8.992,0,0,1-8.982,8.982ZM534.279,317.99a7.934,7.934,0,0,0-7.926,7.925v34.344a7.934,7.934,0,0,0,7.926,7.925H694.9a7.934,7.934,0,0,0,7.925-7.925V325.915a7.935,7.935,0,0,0-7.925-7.926Z" transform="translate(-343.31 -205.726)" fill="#3f3d56"/>
  <path id="Path_739" data-name="Path 739" d="M693.04,367.834H571.515a8.728,8.728,0,0,1-8.718-8.718V341.151a8.728,8.728,0,0,1,8.718-8.718H693.04a8.728,8.728,0,0,1,8.718,8.718v17.964A8.728,8.728,0,0,1,693.04,367.834Z" transform="translate(-360.997 -213.037)" fill="#f2f2f2"/>
  <circle id="Ellipse_161" data-name="Ellipse 161" cx="10.426" cy="10.426" r="10.426" transform="translate(226.244 124.263)" fill="#ff6584"/>
  <path id="Path_740" data-name="Path 740" d="M699.842,372.641,685.126,360.3l-14.462-12.129a2.114,2.114,0,0,0-2.723.005L653.525,360.36,650,363.336l-5.309-4.453L628.56,345.352a2.113,2.113,0,0,0-2.722.005l-16.082,13.594L593.42,372.759a.528.528,0,0,0,.342.932l33.491-.065,10.6-.02-.1.088,31.6-.061,30.152-.058a.528.528,0,0,0,.338-.933Z" transform="translate(-375.351 -218.896)" fill="#3f3d56"/>
  <path id="Path_741" data-name="Path 741" d="M965.111,766.99H863.664a.528.528,0,0,1,0-1.057H965.111a.528.528,0,1,1,0,1.057Z" transform="translate(-502.646 -417.49)" fill="#ccc"/>
  <path id="Path_742" data-name="Path 742" d="M737.453,202.448a5.929,5.929,0,0,0-3.831-2.695,5.443,5.443,0,0,0-.877-.111L692.489,163.65a4.763,4.763,0,0,0-2.975-1.421,4.053,4.053,0,0,0-.671-.021,4.784,4.784,0,0,0-3.149,8.179l15.412,13.436,25.309,22.059a6.3,6.3,0,0,0,.185,1.231,5.953,5.953,0,0,0,5.109,4.422,5.861,5.861,0,0,0,3.2-.528,6.027,6.027,0,0,0,2.05-1.569c.058-.069.111-.132.164-.206a5.967,5.967,0,0,0,.333-6.784Z" transform="translate(-418.29 -132.75)" fill="#ffb8b8"/>
  <path id="Path_743" data-name="Path 743" d="M644.885,251.926l-.375-15.249-.317-12.654-.217-8.855-.428-17.262a4.779,4.779,0,0,0-8.3-2.774,3.655,3.655,0,0,0-.4.507,4.721,4.721,0,0,0-.824,3.2l.941,25.187.47,12.654.6,16.142a6.371,6.371,0,0,0-.47.745,5.975,5.975,0,1,0,9.315-1.638Z" transform="translate(-394.579 -147.54)" fill="#ffb8b8"/>
  <path id="Path_744" data-name="Path 744" d="M681.57,193.64l-3.736-10.118-6.044-16.39a8.457,8.457,0,0,0-5.257-5.115c-.095-.032-.2-.063-.291-.09a8.445,8.445,0,0,0-7,.962L638.888,175.8a8.5,8.5,0,0,0-2.785,11.492,146.016,146.016,0,0,0,8.311,12.781c2.372,3.228,6.79,3.572,7.556,8.855h15.011l15.2-13.642Z" transform="translate(-395.017 -132.449)" fill="#ccc"/>
  <circle id="Ellipse_162" data-name="Ellipse 162" cx="12.243" cy="12.243" r="12.243" transform="translate(41.209 160.365)" fill="#a0616a"/>
  <path id="Path_745" data-name="Path 745" d="M311.849,416.133q.181.144.351.305a5.485,5.485,0,0,1-.22,8.181,5.14,5.14,0,0,1-.43.324l.829,27.974a4.259,4.259,0,0,1-2.93,4.157l-.05.011L286.684,459.5a4.7,4.7,0,1,1-.91-9.359l16.191-1.426,2.8-24.226a5.221,5.221,0,0,1-.513-.523,5.484,5.484,0,0,1,7.6-7.837Z" transform="translate(-228.34 -251.953)" fill="#a0616a"/>
  <path id="Path_746" data-name="Path 746" d="M139.327,628.133h6.112l2.907-23.572h-9.02Z" transform="translate(-65.711 -285.131)" fill="#a0616a"/>
  <path id="Path_747" data-name="Path 747" d="M317.242,751.858h12.036a7.67,7.67,0,0,1,7.67,7.67v.249H317.243Z" transform="translate(-245.185 -410.851)" fill="#2f2e41"/>
  <path id="Path_748" data-name="Path 748" d="M24.366,615.1l5.251,3.126,14.558-18.766-7.75-4.614Z" transform="translate(-11.492 -280.551)" fill="#a0616a"/>
  <path id="Path_749" data-name="Path 749" d="M201.011,734.889l10.341,6.157h0a7.67,7.67,0,0,1,2.666,10.514l-.128.214L196.96,741.693Z" transform="translate(-188.455 -402.848)" fill="#2f2e41"/>
  <path id="Path_750" data-name="Path 750" d="M276.613,639.549H269.77a2.239,2.239,0,0,1-2.231-2.006l-6.9-64.85a.748.748,0,0,0-1.425-.229L246.77,600.022l-22.035,35.93a2.254,2.254,0,0,1-2.816.88l-8.8-3.873a2.244,2.244,0,0,1-1.022-3.2l20.256-33.917,6.212-28.577c-1.954-12.393,6.422-30.818,6.507-31l.042-.09,23.072-9.018.116.142c9.1,29.86,14.644,61.994,10.55,110.2A2.258,2.258,0,0,1,276.613,639.549Z" transform="translate(-195.444 -304.872)" fill="#2f2e41"/>
  <path id="Path_751" data-name="Path 751" d="M264.046,509.477l-.107-.226c-.051-.108-5.182-10.929-9.137-22.493a17.058,17.058,0,0,1,1.183-13.671,17.245,17.245,0,0,1,11-8.456h0a17.265,17.265,0,0,1,20.04,10.34c3.137,7.845,2.137,16.218,1.2,22.8l-.019.132-.12.057Z" transform="translate(-215.308 -275.16)" fill="#3f3d56"/>
  <path id="Path_752" data-name="Path 752" d="M292.771,410.837H273.33v-8.474c4.267-1.7,8.442-3.137,10.967,0a8.474,8.474,0,0,1,8.474,8.474Z" transform="translate(-224.474 -245.145)" fill="#2f2e41"/>
  <path id="Path_753" data-name="Path 753" d="M258.015,401.185c-11.622,0-14.875,14.568-14.875,22.786,0,4.583,2.073,6.223,5.33,6.777l1.15-6.135,2.694,6.4c.915,0,1.876-.013,2.873-.032l.913-1.881,2.037,1.847c8.158.012,14.752,1.2,14.752-6.976C272.89,415.753,270.037,401.185,258.015,401.185Z" transform="translate(-210.236 -245.462)" fill="#2f2e41"/>
  <path id="Path_754" data-name="Path 754" d="M282.839,766.99H181.393a.528.528,0,1,1,0-1.057H282.839a.528.528,0,1,1,0,1.057Z" transform="translate(-180.864 -417.49)" fill="#ccc"/>
  <path id="Path_755" data-name="Path 755" d="M352.714,409.692h-22.72a5.025,5.025,0,0,1-5.02-5.02v-22.72a5.025,5.025,0,0,1,5.019-5.019h22.72a5.025,5.025,0,0,1,5.02,5.019v22.72a5.025,5.025,0,0,1-5.02,5.019Z" transform="translate(-248.831 -234.025)" fill="#fff"/>
  <path id="Path_756" data-name="Path 756" d="M352.714,409.692h-22.72a5.025,5.025,0,0,1-5.02-5.02v-22.72a5.025,5.025,0,0,1,5.019-5.019h22.72a5.025,5.025,0,0,1,5.02,5.019v22.72a5.025,5.025,0,0,1-5.02,5.019Zm-22.72-31.7a3.967,3.967,0,0,0-3.963,3.963v22.72a3.967,3.967,0,0,0,3.963,3.963h22.72a3.967,3.967,0,0,0,3.963-3.963v-22.72a3.967,3.967,0,0,0-3.963-3.963Z" transform="translate(-248.831 -234.025)" fill="#3f3d56"/>
  <path id="Path_757" data-name="Path 757" d="M355.354,408.7H340.559a1.587,1.587,0,0,1-1.585-1.585v-11.1a1.587,1.587,0,0,1,1.585-1.585h4.165a1.575,1.575,0,0,1,1.35.754l1.161,1.888h8.118a1.587,1.587,0,0,1,1.585,1.585v8.454A1.587,1.587,0,0,1,355.354,408.7Z" transform="translate(-255.434 -242.278)" fill="#6c63ff"/>
  <path id="Path_758" data-name="Path 758" d="M330.387,429.5q.111.2.2.418a5.485,5.485,0,0,1-3.378,7.454,5.141,5.141,0,0,1-.522.132l-10.091,26.1a4.259,4.259,0,0,1-4.313,2.694l-.051-.01-21.873-6.585a4.7,4.7,0,1,1,2.793-8.979l15.476,4.969,11.981-21.241a5.218,5.218,0,0,1-.27-.681,5.484,5.484,0,0,1,10.043-4.275Z" transform="translate(-230.948 -257.475)" fill="#a0616a"/>
</svg>
