<svg xmlns="http://www.w3.org/2000/svg" width="106.667" height="80" viewBox="0 0 106.667 80">
  <path id="Icon_awesome-chart-bar" data-name="Icon awesome-chart-bar" d="M69.333,57.833h8A2.868,2.868,0,0,0,80,55.167v-28A2.868,2.868,0,0,0,77.333,24.5h-8a2.868,2.868,0,0,0-2.667,2.667v28a2.868,2.868,0,0,0,2.667,2.667Zm20,0h8A2.868,2.868,0,0,0,100,55.167v-48A2.868,2.868,0,0,0,97.333,4.5h-8a2.868,2.868,0,0,0-2.667,2.667v48a2.868,2.868,0,0,0,2.667,2.667Zm-60,0h8A2.868,2.868,0,0,0,40,55.167V40.5a2.868,2.868,0,0,0-2.667-2.667h-8A2.868,2.868,0,0,0,26.667,40.5V55.167a2.868,2.868,0,0,0,2.667,2.667Zm20,0h8A2.868,2.868,0,0,0,60,55.167V13.833a2.868,2.868,0,0,0-2.667-2.667h-8a2.868,2.868,0,0,0-2.667,2.667V55.167A2.868,2.868,0,0,0,49.333,57.833Zm54,13.333h-90V7.833A3.332,3.332,0,0,0,10,4.5H3.333A3.332,3.332,0,0,0,0,7.833v70A6.667,6.667,0,0,0,6.667,84.5h96.667a3.332,3.332,0,0,0,3.333-3.333V74.5A3.332,3.332,0,0,0,103.333,71.167Z" transform="translate(0 -4.5)" fill="#9f9ebd"/>
</svg>
