<svg id="Group_87" data-name="Group 87" xmlns="http://www.w3.org/2000/svg" width="107.724" height="88.5" viewBox="0 0 107.724 88.5">
  <g id="Group_86" data-name="Group 86">
    <path id="Path_601" data-name="Path 601" d="M40.333,15C27.206,15,1,21.588,1,34.667v4.917A4.931,4.931,0,0,0,5.917,44.5H74.75a4.931,4.931,0,0,0,4.917-4.917V34.667C79.667,21.588,53.461,15,40.333,15Z" transform="translate(-1 44)" fill="#9f9ebd"/>
    <path id="Path_602" data-name="Path 602" d="M6.659,28.583H48.6a2.413,2.413,0,0,0,2.409-2.409v-.1A2.413,2.413,0,0,0,48.6,23.667H47.271A19.651,19.651,0,0,0,37.438,6.7v4.671a2.458,2.458,0,0,1-4.917,0V4.688A20.112,20.112,0,0,0,27.6,4a20.112,20.112,0,0,0-4.917.688v6.687a2.458,2.458,0,1,1-4.917,0V6.7A19.651,19.651,0,0,0,7.937,23.667H6.659A2.413,2.413,0,0,0,4.25,26.076v.147A2.4,2.4,0,0,0,6.659,28.583Z" transform="translate(11.729 0.917)" fill="#9f9ebd"/>
    <path id="Path_603" data-name="Path 603" d="M24.118,24.75A19.666,19.666,0,0,0,43.1,10H5.14A19.666,19.666,0,0,0,24.118,24.75Z" transform="translate(15.215 24.417)" fill="#9f9ebd"/>
    <path id="Path_604" data-name="Path 604" d="M45.049,18.881,49.622,14.8,45.934,8.408l-5.851,1.917A9.747,9.747,0,0,0,37.772,9L36.543,3H29.168L27.939,9a11.169,11.169,0,0,0-2.36,1.328l-5.8-1.917L16.09,14.8l4.573,4.081a11.116,11.116,0,0,0,0,2.557L16.09,25.617l3.688,6.392,5.9-1.868a11.3,11.3,0,0,0,2.114,1.229l1.377,6.048h7.375l1.327-6a11.7,11.7,0,0,0,2.163-1.229l5.851,1.868,3.688-6.392L45,21.487A11.652,11.652,0,0,0,45.049,18.881ZM32.856,26.354A6.146,6.146,0,1,1,39,20.208,6.148,6.148,0,0,1,32.856,26.354Z" transform="translate(58.103 -3)" fill="#9f9ebd"/>
    <path id="Path_605" data-name="Path 605" d="M36.359,13.884,32.18,15.261a6.638,6.638,0,0,0-1.623-.934L29.673,10H24.412l-.885,4.278a9.158,9.158,0,0,0-1.672.934l-4.13-1.377L15.07,18.407l3.245,2.9a11.233,11.233,0,0,0,0,1.819l-3.245,3L17.725,30.7l4.228-1.327a9.458,9.458,0,0,0,1.524.885l.885,4.327h5.261l.934-4.278a9.912,9.912,0,0,0,1.573-.885l4.179,1.328,2.655-4.573-3.245-3a11.231,11.231,0,0,0,0-1.819l3.245-2.9ZM27.017,26.667a4.376,4.376,0,1,1,4.376-4.376A4.386,4.386,0,0,1,27.017,26.667Z" transform="translate(54.108 24.417)" fill="#9f9ebd"/>
  </g>
</svg>
