<svg id="Group_88" data-name="Group 88" xmlns="http://www.w3.org/2000/svg" width="651" height="452.5" viewBox="0 0 651 452.5">
  <rect id="Rectangle_155" data-name="Rectangle 155" width="77.836" height="23.53" rx="7.43" transform="translate(92.286 181.31)" fill="#6c63ff" opacity="0.1"/>
  <rect id="Rectangle_156" data-name="Rectangle 156" width="77.836" height="23.53" rx="7.43" transform="translate(173.742 204.846)" fill="#6c63ff" opacity="0.1"/>
  <rect id="Rectangle_157" data-name="Rectangle 157" width="77.836" height="23.53" rx="7.43" transform="translate(255.204 228.376)" fill="#6c63ff" opacity="0.1"/>
  <rect id="Rectangle_158" data-name="Rectangle 158" width="77.836" height="23.53" rx="7.43" transform="translate(92.286 146.015)" fill="#6c63ff" opacity="0.1"/>
  <rect id="Rectangle_159" data-name="Rectangle 159" width="77.836" height="23.53" rx="7.43" transform="translate(173.742 169.545)" fill="#6c63ff" opacity="0.1"/>
  <rect id="Rectangle_160" data-name="Rectangle 160" width="77.836" height="23.53" rx="7.43" transform="translate(255.204 193.081)" fill="#6c63ff" opacity="0.1"/>
  <rect id="Rectangle_161" data-name="Rectangle 161" width="77.836" height="23.53" rx="7.43" transform="translate(345.71 181.31)" fill="#6c63ff" opacity="0.1"/>
  <rect id="Rectangle_162" data-name="Rectangle 162" width="77.836" height="23.53" rx="7.43" transform="translate(427.166 204.846)" fill="#6c63ff" opacity="0.1"/>
  <rect id="Rectangle_163" data-name="Rectangle 163" width="77.836" height="23.53" rx="7.43" transform="translate(508.628 228.376)" fill="#6c63ff" opacity="0.1"/>
  <rect id="Rectangle_164" data-name="Rectangle 164" width="77.836" height="23.53" rx="7.43" transform="translate(345.71 146.015)" fill="#6c63ff" opacity="0.1"/>
  <rect id="Rectangle_165" data-name="Rectangle 165" width="77.836" height="23.53" rx="7.43" transform="translate(427.166 169.545)" fill="#6c63ff" opacity="0.1"/>
  <rect id="Rectangle_166" data-name="Rectangle 166" width="77.836" height="23.53" rx="7.43" transform="translate(508.628 193.081)" fill="#6c63ff" opacity="0.1"/>
  <rect id="Rectangle_167" data-name="Rectangle 167" width="77.836" height="23.53" rx="7.43" transform="translate(92.286 98.949)" fill="#6c63ff" opacity="0.1"/>
  <rect id="Rectangle_168" data-name="Rectangle 168" width="77.836" height="23.53" rx="7.43" transform="translate(173.742 122.479)" fill="#6c63ff" opacity="0.1"/>
  <rect id="Rectangle_169" data-name="Rectangle 169" width="77.836" height="23.53" rx="7.43" transform="translate(255.204 146.015)" fill="#6c63ff" opacity="0.1"/>
  <rect id="Rectangle_170" data-name="Rectangle 170" width="77.836" height="23.53" rx="7.43" transform="translate(92.286 63.648)" fill="#6c63ff" opacity="0.1"/>
  <rect id="Rectangle_171" data-name="Rectangle 171" width="77.836" height="23.53" rx="7.43" transform="translate(173.742 87.184)" fill="#6c63ff" opacity="0.1"/>
  <rect id="Rectangle_172" data-name="Rectangle 172" width="77.836" height="23.53" rx="7.43" transform="translate(255.204 110.714)" fill="#6c63ff" opacity="0.1"/>
  <rect id="Rectangle_173" data-name="Rectangle 173" width="77.836" height="23.53" rx="7.43" transform="translate(345.71 98.949)" fill="#6c63ff" opacity="0.1"/>
  <rect id="Rectangle_174" data-name="Rectangle 174" width="77.836" height="23.53" rx="7.43" transform="translate(427.166 122.479)" fill="#6c63ff" opacity="0.1"/>
  <rect id="Rectangle_175" data-name="Rectangle 175" width="77.836" height="23.53" rx="7.43" transform="translate(508.628 146.015)" fill="#6c63ff" opacity="0.1"/>
  <rect id="Rectangle_176" data-name="Rectangle 176" width="77.836" height="23.53" rx="7.43" transform="translate(345.71 63.648)" fill="#6c63ff" opacity="0.1"/>
  <rect id="Rectangle_177" data-name="Rectangle 177" width="77.836" height="23.53" rx="7.43" transform="translate(427.166 87.184)" fill="#6c63ff" opacity="0.1"/>
  <rect id="Rectangle_178" data-name="Rectangle 178" width="77.836" height="23.53" rx="7.43" transform="translate(508.628 110.714)" fill="#6c63ff" opacity="0.1"/>
  <ellipse id="Ellipse_136" data-name="Ellipse 136" cx="325.5" cy="59" rx="325.5" ry="59" transform="translate(0 334.5)" fill="#6c63ff" opacity="0.1"/>
  <path id="Path_606" data-name="Path 606" d="M221.388,320.8,194,488.7l123.842-13.1-5.359-14.289-96.752,8.038L238.357,320.5Z" transform="translate(-78.493 -129.676)" fill="#3f3d56"/>
  <path id="Path_607" data-name="Path 607" d="M186,.6,352.711,0l48.227,364.977L233.632,387.6Z" transform="translate(-75.257)" fill="#3f3d56"/>
  <path id="Path_608" data-name="Path 608" d="M216.5,24.5H351.059L398.1,363.875,259.368,382.928Z" transform="translate(-87.597 -9.913)" fill="#fff"/>
  <path id="Path_609" data-name="Path 609" d="M468.588,636.2a33.181,33.181,0,0,0,2.578,4.829c3.215,4.3,9.318,4.972,13.9,7.776a1.28,1.28,0,0,1,.542.524c.208.494-.256,1.012-.7,1.322-3.471,2.435-8.026,2.489-12.271,2.459a16.366,16.366,0,0,1-4.245-.4c-2.245-.6-4.168-2.161-6.383-2.8a16.936,16.936,0,0,0-3.507-.494l-4.65-.316a10.96,10.96,0,0,1-3.626-.673,3.668,3.668,0,0,1-2.286-2.709,7.784,7.784,0,0,1,.542-2.911c.6-2.286.411-5.049,2.191-6.609A6.759,6.759,0,0,1,453.137,635a78.818,78.818,0,0,1,9.89-2.632C465.783,631.828,467.367,633.852,468.588,636.2Z" transform="translate(-212.782 -297.502)" fill="#3f3d56"/>
  <path id="Path_610" data-name="Path 610" d="M382.426,649.559c.119,1.268.155,2.721-.762,3.608a4.068,4.068,0,0,1-1.995.893c-4.4,1.024-9.306,1.1-13.134-1.3a3.627,3.627,0,0,1-1.036-.887,3.233,3.233,0,0,1-.524-1.637,14.048,14.048,0,0,1,.851-4.971,87.238,87.238,0,0,0,2.53-11.759c.048-.327,11.235,1.786,11.979,2.894.935,1.369.941,4.656,1.191,6.287Q382.092,646.105,382.426,649.559Z" transform="translate(-179.218 -297.984)" fill="#3f3d56"/>
  <path id="Path_611" data-name="Path 611" d="M419.867,387.169l2.977,27.68c.6,5.656,1.221,11.342.81,17.016-.476,6.549-2.31,13.1-1.536,19.588.3,2.524.994,5,1.1,7.544a41.087,41.087,0,0,1-.256,5.061c-1.346,16.8,2.911,33.461,5.293,50.138a21.755,21.755,0,0,1,.25,6.24c-.31,2.114-.929,4.888.953,5.888l-17.671,6.406c-2.257-2.828-.762-7.228-1.191-10.818-.393-3.233-2.167-6.115-3.114-9.229a43.587,43.587,0,0,1-1.316-8.651c-1.542-15.82-6.275-31.228-7.383-47.084a21.434,21.434,0,0,0-.6-4.543,42.255,42.255,0,0,0-2.655-5.543,39.092,39.092,0,0,1-2.632-8.842l-3.781-17.713c-3.822,5.692-3.668,13.1-4.424,19.922-1.06,9.526-3.429,18.892-5.359,28.3a56.242,56.242,0,0,0-1.006,6.133c-.5,5.519.494,11.092-.036,16.606-.6,6.389-3.281,12.622-2.632,19.011.357,3.537,1.715,6.883,2.632,10.312s1.369,7.192-.03,10.461a32.152,32.152,0,0,0-15.308-1.691c-5.674-5.805-6.68-13.9-7.067-22.03s.548-16.266-.464-24.316c-.3-2.382-.762-4.7-.839-7.079-.25-7.615,3.412-14.742,5.234-22.143a46.857,46.857,0,0,0,.458-20.333c-.893-4.448-2.429-8.764-2.977-13.271-.744-6.317.518-12.682,1.786-18.922.851-4.209,1.7-8.419,2.661-12.6,1.036-4.5,2.268-9.086,5.037-12.765,4.43-5.888,12.295-8.5,19.648-7.931s14.218,3.918,20.291,8.085a76.5,76.5,0,0,1,13.146,11.116Z" transform="translate(-175.017 -190.528)" fill="#192534"/>
  <path id="Path_612" data-name="Path 612" d="M415.869,214.987a5.139,5.139,0,0,0-.685,1.75c-.149,1.221.6,2.34,1.191,3.406a18.547,18.547,0,0,1,1.745,4.346,7.144,7.144,0,0,1,.256,2.9,7,7,0,0,1-.774,2.084,10.6,10.6,0,0,1-5.168,5.186,9.1,9.1,0,0,1-5.591.226,16.976,16.976,0,0,1-5.114-2.429,15.547,15.547,0,0,1-3.5-3.037,20.988,20.988,0,0,1-2.417-4.168c-1.238-2.59-2.495-5.359-2.268-8.2a2.739,2.739,0,0,1,.143-.756,4.066,4.066,0,0,1,.8-1.191,15.54,15.54,0,0,0,3.644-10.806l8.675,1.971c1.911.435,3.822.869,5.71,1.411,1.548.447,3.93,1.066,4.936,2.447S416.554,213.725,415.869,214.987Z" transform="translate(-190.774 -124.338)" fill="#fbbebe"/>
  <circle id="Ellipse_137" data-name="Ellipse 137" cx="15.766" cy="15.766" r="15.766" transform="translate(204.685 57.64)" fill="#fbbebe"/>
  <path id="Path_613" data-name="Path 613" d="M403.24,239.615c.667-1.459,2.108-2.382,3.424-3.3s2.65-2.09,2.906-3.68a2.637,2.637,0,0,1,.262-1.036c.506-.762,1.709-.381,2.429.179a18.658,18.658,0,0,1,4.1,5.186,44.312,44.312,0,0,1,3.84,7.258c1.673,4.412,1.875,9.229,2.06,13.938.167,4.287.327,8.639-.714,12.8-.655,2.632-1.786,5.186-1.852,7.895-.2,9.842-3.614,19.249-3.852,29.091a75.47,75.47,0,0,0,.429,8.52l.56,6.389q-12.986-.744-25.9-2.28a49.543,49.543,0,0,0-1.858-8.639,187.51,187.51,0,0,1-6.019-35.569c-.458-6.383-.929-12.741-1.637-19.1-.637-5.781-1.887-11.6-1.137-17.368a23.977,23.977,0,0,1,2.441-7.514,4.954,4.954,0,0,1,1.905-2.28,5.148,5.148,0,0,1,1.346-.435,24.968,24.968,0,0,1,4.1-.482,2.823,2.823,0,0,1,1,.1,3.138,3.138,0,0,1,1.363,1.322,24.721,24.721,0,0,0,10.806,9.014Z" transform="translate(-185.326 -134.402)" fill="#f2f2f2"/>
  <path id="Path_614" data-name="Path 614" d="M406.72,243.751c1.107,1.584,3.453,1.959,4.477,3.572a9.365,9.365,0,0,1,.78,2.126c.625,1.995,1.887,3.727,2.655,5.674,1.107,2.8,1.137,5.894,1.149,8.9a29.456,29.456,0,0,1-.548,7.145c-.357,1.471-.941,2.87-1.369,4.323a21.136,21.136,0,0,0-.8,7.621,3.119,3.119,0,0,0,.428,1.577,3.424,3.424,0,0,0,1.524,1.036A11.284,11.284,0,0,0,420.5,287.1a2.006,2.006,0,0,0,1.09-.363,2.422,2.422,0,0,0,.536-.708l1.191-2.012c1.078-1.84,2.2-3.9,1.786-6a11.905,11.905,0,0,0-1.352-3.078,36.175,36.175,0,0,1-1.941-4.8c-1.9-5.46-3.822-11-4.251-16.76a14.73,14.73,0,0,1,.714-6.5,18.519,18.519,0,0,1,2.1-3.626,1.554,1.554,0,0,0-1.673-.566,9.956,9.956,0,0,0-1.733.72,8.219,8.219,0,0,1-5.46-.036,9.542,9.542,0,0,0-2.5-.845C408.756,242.548,406.762,243.822,406.72,243.751Z" transform="translate(-196.117 -139.801)" fill="#6c63ff"/>
  <path id="Path_615" data-name="Path 615" d="M426.09,238.269c-.357-.286-.911-.548-1.227-.214a1.381,1.381,0,0,0-.226.482,3.2,3.2,0,0,1-2.048,1.566c-.828.322-1.721.5-2.221-.113a1.346,1.346,0,0,1,.077-1.59,4.858,4.858,0,0,1,1.3-1.1,12.729,12.729,0,0,0,5.192-8.169,3.882,3.882,0,0,1,1.423,2.459c.2.947.22,1.923.417,2.87a40.219,40.219,0,0,1,1.09,4,20.917,20.917,0,0,1,0,2.2,13.525,13.525,0,0,0,.25,2.132C428.728,241.318,427.745,239.585,426.09,238.269Z" transform="translate(-201.549 -134.385)" fill="#f2f2f2"/>
  <path id="Path_616" data-name="Path 616" d="M403.663,230.338c-.6-.566-1.191-1.1-1.786-1.679a23.161,23.161,0,0,1-5.758-9.139A3.436,3.436,0,0,0,394.5,221.9a3.65,3.65,0,0,0,.786,1.935,30.174,30.174,0,0,1,4.364,11.676,3.477,3.477,0,0,1,3.007-1.6c.941,0,5.162,2.5,5.466,1.87C408.569,234.792,404.378,231.011,403.663,230.338Z" transform="translate(-191.173 -130.497)" fill="#f2f2f2"/>
  <path id="Path_617" data-name="Path 617" d="M392.9,226.441a49.417,49.417,0,0,0,19.993,12.1,4.489,4.489,0,0,1,2.018,1.024,4.126,4.126,0,0,1,.84,1.846,104.779,104.779,0,0,1,2.423,17.4,9.694,9.694,0,0,1-.06,2.906,9.167,9.167,0,0,1-2.548,4c-3.418,3.662-7.317,7.49-7.895,12.468a19.919,19.919,0,0,1-.339,2.858c-.3,1.107-.959,2.084-1.363,3.162-1.989,5.3,2.507,11.729-.232,16.671a30.089,30.089,0,0,1,3.013,9.086,11.823,11.823,0,0,0,.816,3.5c.816,1.7,2.495,2.786,3.816,4.168,4.031,4.132,4.525,10.455,4.763,16.225.149,3.251.1,6.984-2.382,9.115a10.422,10.422,0,0,1-5.269,1.959c-2.495.417-5.21.714-7.419-.518a11.919,11.919,0,0,1-3.691-3.912c-1.953-2.84-3.912-5.674-5.763-8.586-2.929-4.59-5.692-9.836-4.846-15.218a35.353,35.353,0,0,1-4.1,15.855,21.819,21.819,0,0,1-12.337,10.39c-5.281,1.584-11.455.464-15.391-3.394a20.8,20.8,0,0,1-3.281-4.424,43.179,43.179,0,0,1-4.846-12.331,4.794,4.794,0,0,1,.119-3.388c.268-.476.679-.851.959-1.322.941-1.6.036-3.62-.875-5.251-1.387.131-2.382-1.5-2.257-2.894a12.214,12.214,0,0,1,1.548-3.87c1.727-3.739,1.346-8.091.512-12.122s-2.078-8.038-1.983-12.152c.1-4.352-3.031-8.27-5.418-11.908-1.334-2.048-2.888-3.953-4.049-6.1a19.69,19.69,0,0,1-1.56-14.742,38.639,38.639,0,0,1,3.263-7.276l1.965-3.685a6.079,6.079,0,0,1,4.168-3.572l13.593-5.359a20.453,20.453,0,0,0,4.906-2.453c1.661-1.25,2.9-2.977,4.483-4.311a2.513,2.513,0,0,1,1.786-.78c1.274.113,1.727,1.721,1.858,2.977.3,2.81,2.382,5.192,3.09,7.925,3.834,15.093,11.95,29.014,14.176,44.422a161.471,161.471,0,0,1,8.2-17.683,14.685,14.685,0,0,0,1.268-2.566,10.956,10.956,0,0,0,.423-3.983,52.09,52.09,0,0,0-2.209-11.408C395.469,236.187,394.279,231.49,392.9,226.441Z" transform="translate(-167.118 -131.338)" fill="#3f3d56"/>
  <path id="Path_618" data-name="Path 618" d="M465.086,297.8c.262,2.536.518,5.079.988,7.585.548,2.9,1.381,5.734,2.209,8.568a22.3,22.3,0,0,0,1.727,4.6,5.919,5.919,0,0,1,.637,1.363c.292,1.191-.375,2.382-.661,3.572-.857,3.572,1.715,7.544.1,10.836a20.688,20.688,0,0,0-1.661,2.9,8.692,8.692,0,0,0,.2,3.822c.506,3.572-.714,7.2-1.917,10.64l-2.048,5.8a53.793,53.793,0,0,0-6.341-9.973c-.923-1.072-1.929-2.066-2.781-3.2a22.423,22.423,0,0,1-2.977-5.8,50.27,50.27,0,0,1-3.078-15.314,10.473,10.473,0,0,1,.506-4.406,23.433,23.433,0,0,1,1.322-2.382c1.6-2.876,1.923-6.281,1.893-9.568s-.381-6.585,0-9.854a22.543,22.543,0,0,1,2.382-7.818,11.092,11.092,0,0,1,3.233-4.031,5.823,5.823,0,0,1,3.572-1.161c1.947.113,1.5,1.786,1.667,3.4Z" transform="translate(-213.395 -156.581)" fill="#3f3d56"/>
  <path id="Path_619" data-name="Path 619" d="M324.234,283q-1.822,5.359-3.287,10.812-1.429,5.359-2.554,10.777a23.076,23.076,0,0,0-.643,4.847,21.684,21.684,0,0,0,.971,5.6c3.834,13.819,10.824,26.566,18.7,38.552a34.7,34.7,0,0,1,7.919-7.228,1.7,1.7,0,0,0,.6-.6,1.613,1.613,0,0,0-.19-1.393c-2.173-4.454-5.615-8.377-6.7-13.218-.453-2.012-.47-4.108-.982-6.109-.661-2.59-2.137-4.96-2.477-7.615-.363-2.894.6-6.049-.762-8.615,2.769-1.078,4.37-3.93,5.543-6.662a36.49,36.49,0,0,0,2.667-8.758,26.352,26.352,0,0,0-3.221-16.76,26.794,26.794,0,0,0-5.388-6.764c-.709-.637-2.382-2.465-3.412-2.447-1.375.03-1.816,2.257-2.209,3.257C327.211,274.761,325.639,278.852,324.234,283Z" transform="translate(-160.119 -149.877)" fill="#3f3d56"/>
  <path id="Path_620" data-name="Path 620" d="M361.49,401.68c.179.131.381.31.333.524s-.22.268-.375.357a4.62,4.62,0,0,0-1.715,2.322,64.813,64.813,0,0,0-2.584,6.841,29.99,29.99,0,0,0-4.668-5.448c-1.357-1.25-2.876-2.435-3.6-4.126,0-.048,3.12-2.352,3.406-2.6.875-.78,1.977-2.941,2.882-3.418,1.024-.536,2,1.566,2.781,2.411a23.649,23.649,0,0,0,3.543,3.138Z" transform="translate(-172.715 -201.92)" fill="#fbbebe"/>
  <path id="Path_621" data-name="Path 621" d="M425.82,172.8a2.923,2.923,0,0,0-.738-2.149,2.816,2.816,0,0,0-1.786-.494c-3.471-.113-7.061.47-10.336-.7-2.155-.768-4-2.245-6.1-3.162s-4.793-1.161-6.49.381c-1.286,1.191-1.637,3.019-2.084,4.7a27.577,27.577,0,0,1-5.138,10.193,6.324,6.324,0,0,1-3.513-3.453c-2.53-5.156-1.286-11.312.512-16.778.6-1.834,1.256-3.65,1.917-5.46l1.453-4a7.811,7.811,0,0,0,4.977-2.477l.625,1.518a7.919,7.919,0,0,0,4.465-1.578,2.421,2.421,0,0,0,2.828.887c1.042-.3,1.941-.887,2.977-1.191,2.769-.893,5.722.482,8.627.637a34.53,34.53,0,0,1,3.685.107c3.429.554,5.853,3.781,6.9,7.091.7,2.2,1.274,4.912,3.447,5.692.048.834-1.429.994-1.554,1.786a1.37,1.37,0,0,0,.179.756l1.995,4.281a4.953,4.953,0,0,1-2.882-.143C428.892,171.368,425.909,174.416,425.82,172.8Z" transform="translate(-188.626 -101.862)" fill="#192534"/>
  <path id="Path_622" data-name="Path 622" d="M618.267,192.1a78.214,78.214,0,0,1,2.382,9.961c.429,2.524.679,5.329-.768,7.436,5.513-8.294,11.271-16.838,19.648-22.19a17.939,17.939,0,0,1-4.674-13.837c.048-.5-6.877,2.114-7.407,2.411-2.429,1.352-4.656,3.031-7.026,4.477-1.227.744-6.335,2.507-6.383,3.572,0,.685,2.03,2.78,2.411,3.5A27.186,27.186,0,0,1,618.267,192.1Z" transform="translate(-280 -111.838)" fill="#fbbebe"/>
  <path id="Path_623" data-name="Path 623" d="M640.656,727.087a9.229,9.229,0,0,0-9.431-.714c-2.7,1.393-4.513,4.031-6.966,5.817-4.215,3.06-9.782,3.3-14.718,4.96a5.017,5.017,0,0,0-3.257,2.382,4.227,4.227,0,0,0,.244,3.316,8.585,8.585,0,0,0,4.084,4.209c2.215,1.06,4.763,1.107,7.216,1.137l21.315.25a174.589,174.589,0,0,1,19.648.971c1.518.19,3.162.4,4.5-.345,2.179-1.191,2.429-4.2,2.262-6.686a61.368,61.368,0,0,0-4.168-18.338c-.256-.649-.6-1.387-1.316-1.506a2.144,2.144,0,0,0-1.417.452c-6.013,3.572-13.629,5.591-20.023,2.733" transform="translate(-276.769 -334.02)" fill="#fff"/>
  <path id="Path_624" data-name="Path 624" d="M673.507,500.84c-2.382,13.831-.828,28.043,1.852,41.815a72.9,72.9,0,0,0,1.947,8.121c.959,3.036,2.251,5.954,3.15,9.008,2.286,7.74,1.965,16.016,1.625,24.1l-1.56,36.766c-.131,3.084-.25,6.24.679,9.181.375,1.191.834,2.679-.113,3.483a2.656,2.656,0,0,1-1.256.482,19.445,19.445,0,0,1-12.5-1.875l-.423-37.141c-.131-11.449-.268-22.946-2.03-34.253-1.4-8.99-3.828-17.862-3.989-26.959-.167-9.526,2.167-18.928,4.549-28.162.512-1.977,2.382-3.424,3.918-4.763a4.817,4.817,0,0,1,1.905-1.155C671.971,499.286,673.066,500.238,673.507,500.84Z" transform="translate(-298.95 -243.76)" fill="#3f3d56"/>
  <path id="Path_625" data-name="Path 625" d="M673.507,500.84c-2.382,13.831-.828,28.043,1.852,41.815a72.9,72.9,0,0,0,1.947,8.121c.959,3.036,2.251,5.954,3.15,9.008,2.286,7.74,1.965,16.016,1.625,24.1l-1.56,36.766c-.131,3.084-.25,6.24.679,9.181.375,1.191.834,2.679-.113,3.483a2.656,2.656,0,0,1-1.256.482,19.445,19.445,0,0,1-12.5-1.875l-.423-37.141c-.131-11.449-.268-22.946-2.03-34.253-1.4-8.99-3.828-17.862-3.989-26.959-.167-9.526,2.167-18.928,4.549-28.162.512-1.977,2.382-3.424,3.918-4.763a4.817,4.817,0,0,1,1.905-1.155C671.971,499.286,673.066,500.238,673.507,500.84Z" transform="translate(-298.95 -243.76)" opacity="0.1"/>
  <path id="Path_626" data-name="Path 626" d="M606.839,425.23c-.881,3.626.988,7.383.78,11.11-.119,2.257-1.006,4.507-.6,6.722s1.995,3.882,2.84,5.912a16.039,16.039,0,0,1,.965,5.287c.244,4.454.048,8.931-.119,13.367-.28,7.442-.488,14.927.494,22.3a69.776,69.776,0,0,0,5.162,18.547,32.145,32.145,0,0,1,1.923,5,35.652,35.652,0,0,1,.655,4.847,49.241,49.241,0,0,0,4.21,15.308c1.518,3.316,4.168,5.954,5.007,9.473.8,3.37.262,6.924.839,10.336.423,2.53,1.453,4.924,2.024,7.425.744,3.233.726,6.585,1.1,9.884,1.072,9.526,5.4,19.053,2.816,28.293-.518,1.858-1.322,3.745-.959,5.638a7.032,7.032,0,0,1,.429,2.769,13.117,13.117,0,0,1-1.084,2.138,3.928,3.928,0,0,0,1.1,4.126,11.725,11.725,0,0,0,3.87,2.286c4.388,1.876,8.931,3.781,13.694,3.739a3.68,3.68,0,0,0,1.685-.31,4.172,4.172,0,0,0,1.643-2.31l2.441-6.037a2.589,2.589,0,0,0,.185-2.268,4.23,4.23,0,0,0-1.024-.953c-1.971-1.661-1.524-4.763-1-7.258a105.9,105.9,0,0,0,2.215-19.469c.262-13.051-1.887-26.025-4.031-38.9a81.064,81.064,0,0,0-2.977-13.259c-1.483-4.287-3.668-8.413-3.31-12.866.381-4.811-.869-9.854,0-14.6s2.245-9.389,3.132-14.129a146.069,146.069,0,0,0,1.786-18.66c.149-2.548.339-5.18,1.53-7.442.7-1.322,1.709-2.453,2.489-3.733,2.012-3.328,2.334-7.454,4.257-10.836.911-1.6,2.167-3.013,2.834-4.727a13.214,13.214,0,0,0,.726-4.2,50.013,50.013,0,0,0-.6-10.747,69.93,69.93,0,0,0-32.747-7.6,38.848,38.848,0,0,0-12.837,2.018C614.5,422.89,610.947,424.92,606.839,425.23Z" transform="translate(-276.99 -211.376)" fill="#3f3d56"/>
  <path id="Path_627" data-name="Path 627" d="M627.373,744.629c-1.75,2.179-1.631,5.293-2.751,7.859-1.357,3.114-4.382,5.109-7.252,6.924l-17.862,11.313a4.979,4.979,0,0,0-2.382,2.435,3.906,3.906,0,0,0,.089,2.138,9.276,9.276,0,0,0,6.24,6.335,18.455,18.455,0,0,0,4.829.494l8.032.107a47.032,47.032,0,0,0,7.329-.286c2.227-.322,4.394-.959,6.609-1.364,4.031-.732,8.175-.667,12.212-1.375a64.58,64.58,0,0,0,7.311-1.887,29.16,29.16,0,0,0,8.389-3.519,4.353,4.353,0,0,0,1.614-1.739,5.134,5.134,0,0,0-.048-3.15l-3.834-16.85a10.044,10.044,0,0,0-1.5-3.936,3.436,3.436,0,0,0-3.709-1.4,7.862,7.862,0,0,0-1.542.929,9.47,9.47,0,0,1-6.805,1.1,10.721,10.721,0,0,1-4.692-1.673c-.917-.756-1.191-1.929-1.971-2.786a5.591,5.591,0,0,0-8.306.327Z" transform="translate(-273.113 -342.142)" fill="#fff"/>
  <circle id="Ellipse_138" data-name="Ellipse 138" cx="21.512" cy="21.512" r="21.512" transform="translate(321.168 34.914)" fill="#fbbebe"/>
  <path id="Path_628" data-name="Path 628" d="M600.224,143.1c2.06-1.155,2.06-4.483,4.168-5.591s4.5.816,5.853,2.757a25.358,25.358,0,0,1,4.019,9.449,4.754,4.754,0,0,0,1.1,2.691,4.215,4.215,0,0,0,2.608.851q4.078.4,8.169.738c3.036.244,6.24.441,9-.863a6.549,6.549,0,0,0,2.7-2.239,10.075,10.075,0,0,0,1.155-3.025c1.423-5.412,2.858-10.89,2.977-16.486a13.31,13.31,0,0,0-1.268-6.728c-.649-1.191-1.6-2.227-1.87-3.537s.6-2.977,1.953-2.834a8.014,8.014,0,0,1-3.572-.679,2.744,2.744,0,0,1-1.494-3.042c-3.025.387-5.228-2.6-7.585-4.537a2.054,2.054,0,0,0-1.441-.6,5.2,5.2,0,0,0-1.191.458c-1.191.417-2.435-.375-3.656-.72-3.275-.917-7.436,1.3-9.866-1.084.232,1.518-1.631,2.536-3.167,2.507s-3.12-.6-4.573-.083a2.977,2.977,0,0,1-1.7,4.263l.72,1.572a4.061,4.061,0,0,0-3.126,2.929c-.792,3.126-.6,7.567-.4,10.783C599.82,131.461,601.195,142.565,600.224,143.1Z" transform="translate(-274.139 -85.407)" fill="#192534"/>
  <path id="Path_629" data-name="Path 629" d="M616.2,203.59c-10.806,12.152-13.557,29.258-15.861,45.363l-3.394,23.78c-.881,6.168-1.786,12.337-2.554,18.523-.536,4.233-1.036,8.532-.453,12.759a69.593,69.593,0,0,0,2.5,9.759,92.023,92.023,0,0,1,3.572,25.894c.72-2.12,3.215-2.977,5.406-3.453a87.416,87.416,0,0,1,54.693,5.841c3.007-8.425,2.441-17.642,3.281-26.549,1.191-12.7,5.293-25.007,6.508-37.683.447-4.721.5-9.467.548-14.212A47.58,47.58,0,0,0,669.8,253.2a43.712,43.712,0,0,0-4.287-10.717,279.291,279.291,0,0,0-16.266-27.638q-4.489-6.716-9.366-13.164-2.471-3.269-5.043-6.466c-1.661-2.066-2.382-3.858-5.019-2.62C624.831,194.927,619.83,199.512,616.2,203.59Z" transform="translate(-271.762 -119.437)" fill="#6c63ff"/>
  <path id="Path_630" data-name="Path 630" d="M630.548,378.256a58.354,58.354,0,0,1-7.9-.25,17.144,17.144,0,0,0-5.835,0,6.073,6.073,0,0,0-2.268,1.113,1.709,1.709,0,0,0,.97,2.977l2.036.179a5.725,5.725,0,0,1,3.644,1.191,2.274,2.274,0,0,1,.738,1.435c.125,1.387-1.078,2.143-2.155,2.721a17.083,17.083,0,0,0-4.2,2.8,5.823,5.823,0,0,0-1.745,3.572.691.691,0,0,0,1.012.637c2.382-1.191,3.936-4.721,6.549-4.132a10.611,10.611,0,0,0-5.752,4.424,2.667,2.667,0,0,0,3.572,3.769,11.775,11.775,0,0,0,1.119-.744,27.513,27.513,0,0,0,4.721-4.906c-1.905,4.019-3.834,8.723-1.643,12.718a1.268,1.268,0,0,0,1.191.7c.691-.071.893-.72,1.006-1.292.357-1.84.447-3.781,1.352-5.418,2.1-3.8,7.264-4.168,11.2-6.019,4.721-2.191,7.954-6.907,9.258-11.944a9.182,9.182,0,0,0,.232-4.537c-.875-3.388-5.055-4.168-7.74-2.53C636.615,376.81,634.7,378.125,630.548,378.256Z" transform="translate(-279.914 -192.958)" fill="#fbbebe"/>
  <path id="Path_631" data-name="Path 631" d="M632.687,249.779c4.168,6.436,11.4,10.062,17.606,14.581a14.759,14.759,0,0,1,3.894,3.7c1.566,2.417,1.786,5.49,1.465,8.336a52.8,52.8,0,0,1-2.81,10.955l-2.6,7.77c-1.649,4.93-3.352,9.961-6.49,14.1-.8,1.054-1.739,2.179-1.7,3.5a4.526,4.526,0,0,0,.762,2.132,14.337,14.337,0,0,0,9.1,6.5,6.943,6.943,0,0,0,3.423,0,9.274,9.274,0,0,0,3.936-3.025c5.359-5.912,10.717-11.908,14.587-18.844,3.781-6.77,6.043-14.289,8.127-21.738a45.764,45.764,0,0,0,1.786-8.413,30.747,30.747,0,0,0-3.263-15.558,76.778,76.778,0,0,0-8.717-13.48,93.816,93.816,0,0,0-10.211-11.717c-6.478-6.055-14.4-9.616-23.072-6.18-6.121,2.429-8.413,7.5-8.961,13.986A21.279,21.279,0,0,0,632.687,249.779Z" transform="translate(-286.233 -131.123)" opacity="0.1"/>
  <path id="Path_632" data-name="Path 632" d="M636.31,247.081c4.168,6.436,11.408,10.062,17.606,14.581a14.806,14.806,0,0,1,3.876,3.727c1.566,2.417,1.786,5.484,1.465,8.336a52.811,52.811,0,0,1-2.816,10.955l-2.6,7.74c-1.649,4.93-3.352,9.955-6.49,14.1-.8,1.054-1.733,2.173-1.7,3.5a4.418,4.418,0,0,0,.762,2.126,14.331,14.331,0,0,0,9.1,6.508,6.966,6.966,0,0,0,3.43,0,9.3,9.3,0,0,0,3.936-3.019c5.359-5.918,10.717-11.908,14.587-18.844,3.781-6.77,6.043-14.289,8.127-21.744a45.3,45.3,0,0,0,1.786-8.407,30.839,30.839,0,0,0-3.257-15.564A76.219,76.219,0,0,0,675.4,237.6a93.865,93.865,0,0,0-10.235-11.652c-6.472-6.049-14.4-9.616-23.066-6.174-6.127,2.429-8.413,7.49-8.967,13.986a21.3,21.3,0,0,0,3.173,13.319Z" transform="translate(-287.689 -130.057)" fill="#6c63ff"/>
  <path id="Path_633" data-name="Path 633" d="M841.431,613.3a22.029,22.029,0,0,1-.476,4.62c-.06.286-.125.6-.191.839-1.691,6.782-6.46,11.741-12.152,12.057h-.6c-6.019,0-11.11-5.192-12.789-12.343-.048-.19-.089-.381-.131-.6a22.037,22.037,0,0,1-.476-4.62c0-9.687,6-17.534,13.4-17.534S841.431,603.627,841.431,613.3Z" transform="translate(-361.155 -282.709)" fill="#3f3d56"/>
  <path id="Path_634" data-name="Path 634" d="M841.447,613.316a22.029,22.029,0,0,1-.476,4.62c-.06.286-.125.6-.191.839h-.6a27.244,27.244,0,0,1-4.382-.6,26.76,26.76,0,0,1-3.906.893,27.3,27.3,0,0,1-3.06.286H827.8a27.656,27.656,0,0,1-3.67-.244,26.894,26.894,0,0,1-5.755-1.429,27.115,27.115,0,0,1-3.108.834c-.048-.191-.089-.381-.131-.6a22.025,22.025,0,0,1-.476-4.62c0-9.687,6-17.534,13.4-17.534S841.447,603.647,841.447,613.316Z" transform="translate(-361.172 -282.729)" opacity="0.1"/>
  <path id="Path_635" data-name="Path 635" d="M848.2,543.558a27.113,27.113,0,0,0-2.917-12.271l-15.754,4.9,13.831-8.133A27.227,27.227,0,0,0,822.9,516.4a27.19,27.19,0,0,0-2.125-2.81l-22.625,7.043,18.558-10.914a27.227,27.227,0,0,0-42.868,14.522l19.38,22.309L772.2,531.34a27.233,27.233,0,0,0,24.369,48.048,27.341,27.341,0,0,0,17.433.482,27.257,27.257,0,0,0,33.116-26.59c0-.6,0-1.191-.059-1.786A27.17,27.17,0,0,0,848.2,543.558Z" transform="translate(-339.346 -245.634)" fill="#6c63ff"/>
  <path id="Path_636" data-name="Path 636" d="M847.7,574.61a72.58,72.58,0,0,0-25.209-.322c-9.461,1.566-19.13,5.007-28.383,2.495-5.43-1.477-10.122-4.894-15.427-6.793a29.282,29.282,0,0,0-15.927-.953,27.245,27.245,0,0,0,33.753,36.355,27.341,27.341,0,0,0,17.433.482,27.257,27.257,0,0,0,33.116-26.59c0-.6,0-1.191-.06-1.786a26.9,26.9,0,0,0,.7-2.888Z" transform="translate(-339.319 -271.637)" opacity="0.1"/>
</svg>
