<svg xmlns="http://www.w3.org/2000/svg" width="79.695" height="85" viewBox="0 0 79.695 85">
  <path id="Icon_awesome-shield-alt" data-name="Icon awesome-shield-alt" d="M75.922,13.894,44.044.612a7.994,7.994,0,0,0-6.127,0L6.04,13.894A7.961,7.961,0,0,0,1.125,21.25c0,32.957,19.011,55.737,36.776,63.142a8,8,0,0,0,6.127,0C58.257,78.464,80.82,57.993,80.82,21.25A7.971,7.971,0,0,0,75.922,13.894ZM40.989,74.1l-.017-63.258,29.2,12.17C69.63,48.147,56.546,66.361,40.989,74.1Z" transform="translate(-1.125 -0.002)" fill="#9f9ebd"/>
</svg>
