<svg xmlns="http://www.w3.org/2000/svg" width="29.5" height="21.324" viewBox="0 0 29.5 21.324">
  <g id="Icon_feather-youtube" data-name="Icon feather-youtube" transform="translate(-0.499 -5)">
    <path id="Path_337" data-name="Path 337" d="M28.423,9.025A3.475,3.475,0,0,0,26,6.525C23.849,6,15.249,6,15.249,6S6.65,6,4.5,6.575a3.475,3.475,0,0,0-2.425,2.5A36.248,36.248,0,0,0,1.5,15.687a36.248,36.248,0,0,0,.575,6.662,3.475,3.475,0,0,0,2.425,2.4c2.15.575,10.749.575,10.749.575s8.6,0,10.749-.575a3.475,3.475,0,0,0,2.425-2.5A36.248,36.248,0,0,0,29,15.687a36.248,36.248,0,0,0-.575-6.662Z" transform="translate(0)" fill="none" stroke="#fafafa" stroke-linecap="round" stroke-linejoin="round" stroke-width="2"/>
    <path id="Path_338" data-name="Path 338" d="M14.625,20.9l7.192-4.09-7.192-4.09Z" transform="translate(-1.962 -0.942)" fill="none" stroke="#fafafa" stroke-linecap="round" stroke-linejoin="round" stroke-width="2"/>
  </g>
</svg>
