<svg xmlns="http://www.w3.org/2000/svg" width="27" height="26.994" viewBox="0 0 27 26.994">
  <path id="Icon_awesome-instagram" data-name="Icon awesome-instagram" d="M13.5,8.814a6.921,6.921,0,1,0,6.921,6.921A6.91,6.91,0,0,0,13.5,8.814Zm0,11.42a4.5,4.5,0,1,1,4.5-4.5,4.508,4.508,0,0,1-4.5,4.5Zm8.818-11.7A1.614,1.614,0,1,1,20.7,6.916,1.611,1.611,0,0,1,22.316,8.531ZM26.9,10.169a7.989,7.989,0,0,0-2.18-5.656,8.041,8.041,0,0,0-5.656-2.18c-2.229-.126-8.909-.126-11.137,0A8.03,8.03,0,0,0,2.27,4.507,8.015,8.015,0,0,0,.09,10.163c-.126,2.229-.126,8.909,0,11.137a7.989,7.989,0,0,0,2.18,5.656,8.051,8.051,0,0,0,5.656,2.18c2.229.126,8.909.126,11.137,0a7.989,7.989,0,0,0,5.656-2.18A8.041,8.041,0,0,0,26.9,21.3c.126-2.229.126-8.9,0-11.131ZM24.021,23.692a4.555,4.555,0,0,1-2.566,2.566c-1.777.7-5.993.542-7.957.542s-6.186.157-7.957-.542a4.555,4.555,0,0,1-2.566-2.566c-.7-1.777-.542-5.993-.542-7.957s-.157-6.186.542-7.957A4.555,4.555,0,0,1,5.541,5.212c1.777-.7,5.993-.542,7.957-.542s6.186-.157,7.957.542a4.555,4.555,0,0,1,2.566,2.566c.7,1.777.542,5.993.542,7.957S24.725,21.921,24.021,23.692Z" transform="translate(0.005 -2.238)" fill="#fafafa"/>
</svg>
