<svg xmlns="http://www.w3.org/2000/svg" width="32.857" height="23" viewBox="0 0 32.857 23">
  <path id="Icon_awesome-user-friends" data-name="Icon awesome-user-friends" d="M9.857,13.75A5.75,5.75,0,1,0,4.107,8,5.747,5.747,0,0,0,9.857,13.75ZM13.8,15.393h-.426a7.939,7.939,0,0,1-7.033,0H5.914A5.916,5.916,0,0,0,0,21.307v1.479A2.465,2.465,0,0,0,2.464,25.25H17.25a2.465,2.465,0,0,0,2.464-2.464V21.307A5.916,5.916,0,0,0,13.8,15.393ZM24.643,13.75a4.929,4.929,0,1,0-4.929-4.929A4.93,4.93,0,0,0,24.643,13.75Zm2.464,1.643h-.2a6.474,6.474,0,0,1-4.538,0h-.2a5.7,5.7,0,0,0-2.86.791,7.513,7.513,0,0,1,2.038,5.124v1.971c0,.113-.026.221-.031.329h9.067a2.465,2.465,0,0,0,2.464-2.464,5.747,5.747,0,0,0-5.75-5.75Z" transform="translate(0 -2.25)" fill="#d1d1d1"/>
</svg>
