<svg xmlns="http://www.w3.org/2000/svg" width="45" height="45" viewBox="0 0 45 45">
  <path id="Icon_awesome-phone-alt" data-name="Icon awesome-phone-alt" d="M43.716,31.8,33.873,27.58a2.109,2.109,0,0,0-2.461.606l-4.359,5.326A32.578,32.578,0,0,1,11.479,17.939L16.8,13.58a2.1,2.1,0,0,0,.606-2.461L13.193,1.275A2.123,2.123,0,0,0,10.776.054L1.635,2.163A2.109,2.109,0,0,0,0,4.219,40.777,40.777,0,0,0,40.782,45a2.109,2.109,0,0,0,2.057-1.635l2.109-9.141A2.135,2.135,0,0,0,43.716,31.8Z" transform="translate(0 0)" fill="#5e4fea"/>
</svg>
