<svg id="Group_50" data-name="Group 50" xmlns="http://www.w3.org/2000/svg" width="815.777" height="545.392" viewBox="0 0 815.777 545.392">
  <path id="Path_214" data-name="Path 214" d="M964.34,295.346C933.448,173.868,826.7,86.178,701.408,82.661c-66.24-1.859-135.943,20.109-186.691,96.986C424,317.073,520.291,412.038,587.425,457.164a420.075,420.075,0,0,1,86.827,78.04c45.346,53.811,132.583,120.678,236.477,15.907C986.032,475.172,984.918,376.262,964.34,295.346Z" transform="translate(-160.576 -82.554)" fill="#f2f2f2"/>
  <ellipse id="Ellipse_55" data-name="Ellipse 55" cx="115.774" cy="16.698" rx="115.774" ry="16.698" transform="translate(583.321 511.996)" fill="#3f3d56"/>
  <rect id="Rectangle_72" data-name="Rectangle 72" width="601.133" height="364.973" transform="translate(0 57.886)" fill="#3f3d56"/>
  <circle id="Ellipse_56" data-name="Ellipse 56" cx="4.34" cy="4.34" r="4.34" transform="translate(5.367 62.268)" fill="#6c63ff"/>
  <circle id="Ellipse_57" data-name="Ellipse 57" cx="4.34" cy="4.34" r="4.34" transform="translate(16.458 62.268)" fill="#6c63ff"/>
  <circle id="Ellipse_58" data-name="Ellipse 58" cx="4.34" cy="4.34" r="4.34" transform="translate(27.549 62.268)" fill="#6c63ff"/>
  <circle id="Ellipse_59" data-name="Ellipse 59" cx="50.989" cy="50.989" r="50.989" transform="translate(61.388 91.431)" fill="#f2f2f2"/>
  <rect id="Rectangle_73" data-name="Rectangle 73" width="214.019" height="7.38" transform="translate(5.367 214.878)" fill="#6c63ff"/>
  <rect id="Rectangle_74" data-name="Rectangle 74" width="214.019" height="7.38" transform="translate(5.367 285.324)" fill="#f2f2f2"/>
  <rect id="Rectangle_75" data-name="Rectangle 75" width="214.019" height="7.38" transform="translate(5.367 306.122)" fill="#f2f2f2"/>
  <rect id="Rectangle_76" data-name="Rectangle 76" width="214.019" height="7.38" transform="translate(5.367 326.92)" fill="#f2f2f2"/>
  <rect id="Rectangle_77" data-name="Rectangle 77" width="214.019" height="7.38" transform="translate(5.367 347.718)" fill="#f2f2f2"/>
  <rect id="Rectangle_78" data-name="Rectangle 78" width="214.019" height="7.38" transform="translate(5.367 368.516)" fill="#f2f2f2"/>
  <rect id="Rectangle_79" data-name="Rectangle 79" width="214.019" height="7.38" transform="translate(5.367 389.314)" fill="#f2f2f2"/>
  <rect id="Rectangle_80" data-name="Rectangle 80" width="341.492" height="1.342" transform="translate(253.603 90.761)" fill="#6c63ff"/>
  <rect id="Rectangle_81" data-name="Rectangle 81" width="341.492" height="1.342" transform="translate(253.603 104.179)" fill="#6c63ff"/>
  <rect id="Rectangle_82" data-name="Rectangle 82" width="341.492" height="1.342" transform="translate(253.603 117.597)" fill="#6c63ff"/>
  <rect id="Rectangle_83" data-name="Rectangle 83" width="341.492" height="1.342" transform="translate(253.603 131.015)" fill="#6c63ff"/>
  <rect id="Rectangle_84" data-name="Rectangle 84" width="341.492" height="1.342" transform="translate(253.603 144.433)" fill="#6c63ff"/>
  <rect id="Rectangle_85" data-name="Rectangle 85" width="341.492" height="1.342" transform="translate(253.603 157.851)" fill="#6c63ff"/>
  <rect id="Rectangle_86" data-name="Rectangle 86" width="341.492" height="1.342" transform="translate(253.603 171.269)" fill="#6c63ff"/>
  <rect id="Rectangle_87" data-name="Rectangle 87" width="341.492" height="1.342" transform="translate(253.603 184.688)" fill="#6c63ff"/>
  <rect id="Rectangle_88" data-name="Rectangle 88" width="341.492" height="1.342" transform="translate(253.603 198.106)" fill="#6c63ff"/>
  <rect id="Rectangle_89" data-name="Rectangle 89" width="341.492" height="1.342" transform="translate(253.603 211.524)" fill="#6c63ff"/>
  <rect id="Rectangle_90" data-name="Rectangle 90" width="341.492" height="1.342" transform="translate(253.603 224.942)" fill="#6c63ff"/>
  <rect id="Rectangle_91" data-name="Rectangle 91" width="22.811" height="5.367" transform="translate(259.641 206.157)" fill="#6c63ff"/>
  <rect id="Rectangle_92" data-name="Rectangle 92" width="22.811" height="5.367" transform="translate(296.541 193.409)" fill="#6c63ff"/>
  <rect id="Rectangle_93" data-name="Rectangle 93" width="22.811" height="5.367" transform="translate(333.441 166.573)" fill="#6c63ff"/>
  <rect id="Rectangle_94" data-name="Rectangle 94" width="22.811" height="5.367" transform="translate(370.341 179.32)" fill="#6c63ff"/>
  <rect id="Rectangle_95" data-name="Rectangle 95" width="22.811" height="5.367" transform="translate(407.24 153.155)" fill="#6c63ff"/>
  <rect id="Rectangle_96" data-name="Rectangle 96" width="22.811" height="5.367" transform="translate(444.14 179.32)" fill="#6c63ff"/>
  <rect id="Rectangle_97" data-name="Rectangle 97" width="22.811" height="5.367" transform="translate(481.04 139.737)" fill="#6c63ff"/>
  <rect id="Rectangle_98" data-name="Rectangle 98" width="22.811" height="5.367" transform="translate(517.94 113.571)" fill="#6c63ff"/>
  <rect id="Rectangle_99" data-name="Rectangle 99" width="22.811" height="5.367" transform="translate(554.84 126.99)" fill="#6c63ff"/>
  <path id="Path_215" data-name="Path 215" d="M645.054,171.409v54.008H630.965V156.649h-22.81v68.767h-14.09v-42.6h-22.81v42.6H520.265V196.232h-22.81v29.184H460.219V238.5H446.465V209.65h-22.81V238.5h-36.9v13.418h-36.9v14.76H667.865V171.409Z" transform="translate(-90.214 -40.394)" fill="#6c63ff" opacity="0.1"/>
  <path id="Path_216" data-name="Path 216" d="M496.21,451.2a9.3,9.3,0,0,0-.608-2.328,1.054,1.054,0,0,0-.536-.66,1.1,1.1,0,0,0-.532-.006l-2.73.418a1.047,1.047,0,0,0-.623.242c-.356.374-.005.976-.016,1.492a1.4,1.4,0,0,1-1.086,1.207,4.107,4.107,0,0,1-1.726-.021l-3.817-.593a6.293,6.293,0,0,0,2.888-1.927c.5-.6.77-1.706.044-1.988a1.782,1.782,0,0,0-.663-.053c-1.729.013-3.09-1.43-4.709-2.039a5.207,5.207,0,0,0-5.86,1.747l2.033.1a.9.9,0,0,1,.542.144c.446.366-.108,1.069-.046,1.643.082.745,1.071.9,1.816.979s1.691.681,1.333,1.339c-3.747,1.291-7.56-2.523-11.5-2.053a23.357,23.357,0,0,0-2.909.756c-5.94,1.5-12.081-2.507-18.149-1.658a23.047,23.047,0,0,0-3.962,1.045,5.341,5.341,0,0,0-2.287,1.193,1.833,1.833,0,0,0-.26,2.362,13.293,13.293,0,0,1-4.659-.443,2.61,2.61,0,0,1,1.342,2.3,27.642,27.642,0,0,0-7.081,2.159,11.924,11.924,0,0,0,1.466,1.952l-3.1,1.99a1.768,1.768,0,0,1,.979,2.582c1.085-.483,1.757-1.731,2.918-1.984a3.932,3.932,0,0,1,2.255.437,3.522,3.522,0,0,0,2.26.356c.746-.219,1.3-1.187.823-1.8a38.621,38.621,0,0,1,9.81-1.533,1.23,1.23,0,0,1,.743.141c.432.3.319.948.3,1.474s.387,1.217.857.98c-.553.479-.08,1.382.45,1.886s1.17,1.2.845,1.856c-.085.171-.229.308-.31.481-.241.51.141,1.1.592,1.443a5.05,5.05,0,0,1,1.316,1.044c.313.469.171,1.29-.389,1.355l-1.592-2.021a4.145,4.145,0,0,0-1.075,2.038,4.276,4.276,0,0,1,.529,5.849,14.611,14.611,0,0,1-2.645,2.026,3.635,3.635,0,0,0-1.723,2.718c0,1.925-.153,3.713.568,5.5a84.685,84.685,0,0,0,4.6,9.592c.455.813,1.043,1.705,1.964,1.845q-1.747-4.252-3.145-8.637a1.98,1.98,0,0,1,1.664.542,3.45,3.45,0,0,1,.323,1.455,4.508,4.508,0,0,0,.575,1.351l5.561,9.906a4.1,4.1,0,0,0,1.871,2.035,10.584,10.584,0,0,1,1.733.479c.406.24.68.666,1.094.892,1.171.639,2.8-.587,3.9.176a10.957,10.957,0,0,1,.8.815c1.011.876,2.67.29,3.837.943a4.534,4.534,0,0,1,1.543,2.026c1.005,1.911,2.631,3.783,4.785,3.935a13.339,13.339,0,0,1,2.029.07c.661.15,1.312.728,1.206,1.4-.182,1.148.385,2.406.233,3.559-.278,2.1-3.256,3.023-3.512,5.125a11.886,11.886,0,0,1-.078,1.386c-.134.552-.549,1-.7,1.551a2.947,2.947,0,0,0,1.285,2.775,7.494,7.494,0,0,1,2.243,2.283c.473,1.036.241,2.243.395,3.371.336,2.463,2.463,4.288,4.652,5.465A4.859,4.859,0,0,1,489,540.985a7.222,7.222,0,0,1,.7,2.853c.461,2.376,2.461,4.334,2.518,6.754.04,1.72-.916,3.28-1.487,4.9a11.435,11.435,0,0,0,.934,9.484,15.189,15.189,0,0,1,1.241,2.184c.539,1.4.364,2.982.862,4.393.657,1.866,2.464,3.407,2.291,5.377.82,1.7,2.631,2.54,4.452,3.047l3.264.909a4.2,4.2,0,0,0,1.914.223,1.437,1.437,0,0,0,1.227-1.3,11.927,11.927,0,0,1-4.572-1.72,4.068,4.068,0,0,1-1.723-4.275c.232-.725.726-1.561.256-2.16-.269-.343-.76-.432-1.064-.745a1.626,1.626,0,0,1,.03-1.9,6.4,6.4,0,0,0,.969-1.779,1.857,1.857,0,0,0-.87-1.932,4.615,4.615,0,0,0,1.615-1.037,1.575,1.575,0,0,0,.287-1.785c.992.126,2.164.188,2.816-.572a2.522,2.522,0,0,0,.279-2.285,9.756,9.756,0,0,1-.564-2.321,42.278,42.278,0,0,0,6.861-.233,4.449,4.449,0,0,0-2.086-2.612,3.622,3.622,0,0,0,2.3-2.4,6.183,6.183,0,0,0,.041-3.1,1.665,1.665,0,0,1-.031-.813,1.584,1.584,0,0,1,.816-.789l5.118-2.94a2.98,2.98,0,0,0,.818-.6,2.432,2.432,0,0,0,.182-2.361,11.862,11.862,0,0,1-.82-2.335c-.316-2.454,2.31-4.214,3.2-6.524a9.828,9.828,0,0,0,.486-2.86c.072-1.04.078-2.249-.721-2.919-.766-.643-1.962-.5-2.763-1.1-.735-.548-.988-1.612-1.791-2.055-.729-.4-1.642-.146-2.453-.335-1.427-.333-2.325-1.978-3.783-2.13-.822-.086-1.753.316-2.427-.163-.594-.422-.618-1.27-.731-1.99a5.557,5.557,0,0,0-4.485-4.5,6.276,6.276,0,0,1-2.492-.55c-.73-.472-1.065-1.355-1.639-2.009a6.86,6.86,0,0,0-3.745-1.748l-5.549-1.3c-.985-.232-2.255-.354-2.783.508a3.989,3.989,0,0,0-.329,1.036,3.207,3.207,0,0,1-3.016,2.27,3.566,3.566,0,0,0-2.1-1.627,13.114,13.114,0,0,1-1.7-.4A2.39,2.39,0,0,1,477.7,507.4a2.975,2.975,0,0,0-.508-3.579,4.829,4.829,0,0,0-3.574-.967c-.331-.723.223-1.539.82-2.064s1.322-1.042,1.452-1.827c.2-1.234-1.37-2.172-2.566-1.8a4.451,4.451,0,0,0-2.464,2.675,7.876,7.876,0,0,1-.992,1.9,1.95,1.95,0,0,1-1.888.773c-.985-.252-1.365-1.422-1.583-2.414a15.7,15.7,0,0,1-.525-4.044,5.288,5.288,0,0,1,1.525-3.683c1.637-1.5,4.148-1.355,6.357-1.116a1.614,1.614,0,0,1,.166-2.133,2.424,2.424,0,0,1,2.2-.54,3.028,3.028,0,0,1,1.7,1.018,15.994,15.994,0,0,1,1.281,2.667c.474.869,1.541,1.61,2.415,1.144a2.035,2.035,0,0,0,.686-2.283,8.581,8.581,0,0,1-.518-2.5c.13-1.626,1.815-2.605,3.3-3.275s3.191-1.571,3.427-3.185a2.9,2.9,0,0,1,.177-.926,1.816,1.816,0,0,1,.666-.626c4.342-2.869,8.755-5.773,13.718-7.341.258-.082.288.009.552-.055.368-.213.124-.8-.229-1.039s-.825-.419-.914-.835c-.066-.306.114-.606.161-.915a1.142,1.142,0,0,0-1.5-1.157c-.4-.528.39-1.141,1.028-1.317a27.915,27.915,0,0,1,5.864-.958,1.056,1.056,0,0,1,.667.113.8.8,0,0,1,.054,1.089,6.4,6.4,0,0,1-.9.815,2.45,2.45,0,0,0-.635,2.464,5.584,5.584,0,0,0,3.308.883c1.147-.186,2.164-1.474,1.626-2.5-.5-.958-2.01-1.174-2.269-2.225-.3-1.23,1.437-2.323,1.045-3.527-.172-.528-.7-.838-1.1-1.219a3.307,3.307,0,0,1-.724-3.667,4.172,4.172,0,0,1-3.659-1.145c-.875-.883-1.574-2.277-2.816-2.237-1.141.036-2.123,1.367-3.19.961-.262-.1-.539-.3-.793-.184a.655.655,0,0,0-.3.491c-.271,1.3.2,2.772-.511,3.892-.768,1.218-2.546,1.387-3.478,2.486-.506.6-.7,1.4-1.167,2.029s-1.452,1.029-2.009.481a2.77,2.77,0,0,0-.752-3.368,7.39,7.39,0,0,0-1.662-.808,9.855,9.855,0,0,1-1.857-1.035,1.828,1.828,0,0,1-.682-.729,1.661,1.661,0,0,1,.047-1.153,4.716,4.716,0,0,1,3.753-3.11c.743-.1,1.607-.065,2.1-.631.26-.3.4-.752.774-.874a1.142,1.142,0,0,1,.715.088l2.773.976a1.946,1.946,0,0,0,.988.163.67.67,0,0,0,.579-.7c-.089-.46-.8-.681-.733-1.146a.765.765,0,0,1,.232-.39,9.912,9.912,0,0,1,7.862-3.1c.35.575-.2,1.255-.664,1.746s-.831,1.367-.274,1.745a1.528,1.528,0,0,0,.738.166,6.446,6.446,0,0,1,1.965.6q1.437.625,2.819,1.368a3.573,3.573,0,0,1,.071-1.815,1.229,1.229,0,0,1,1.456-.792c.551.213.833.942,1.42,1.009.783.089,1.092-1.067.765-1.784s-.974-1.317-1.028-2.1c-.036-.53.165-1.188-.258-1.509a1.153,1.153,0,0,0-.5-.175l-10.576-1.946c-.628-.116-1.535-.027-1.563.611-.016.356.3.708.162,1.036-.15.349-.644.318-1,.441a1.373,1.373,0,0,0-.785,1.443,4.014,4.014,0,0,0,.662,1.626C497.94,451.541,496.9,451.488,496.21,451.2Z" transform="translate(-148.487 -175.924)" fill="#f2f2f2"/>
  <path id="Path_217" data-name="Path 217" d="M506.175,441.319a3.425,3.425,0,0,0-3.762,1.127.754.754,0,0,0-.175.794c.209.356.742.215,1.134.088a2.855,2.855,0,0,1,1.792-.043c.369.127.7.35,1.069.472a1.076,1.076,0,0,0,1.1-.16,1.429,1.429,0,0,0,.271-1.025.825.825,0,0,0-.21-.678,1.077,1.077,0,0,0-.486-.144,1.674,1.674,0,0,1-.979-.572" transform="translate(-166.891 -175.021)" fill="#f2f2f2"/>
  <path id="Path_218" data-name="Path 218" d="M512.379,439.948a.871.871,0,0,0-.842,1.227,3.532,3.532,0,0,0,1.408.092,1.2,1.2,0,0,0,.984-.9,2.266,2.266,0,0,1-1.6-.306" transform="translate(-169.281 -174.712)" fill="#f2f2f2"/>
  <path id="Path_219" data-name="Path 219" d="M528.684,437.158a16.2,16.2,0,0,0-3.61,1.227,2.713,2.713,0,0,1,1.732,2.725,1.419,1.419,0,0,0,.016.674c.133.321.517.442.855.525a5.635,5.635,0,0,0,1.875.239,1.91,1.91,0,0,0,1.552-.948,6.77,6.77,0,0,1,.323-.763c.81-1.233,3.215.258,4.085-.934.306-.42.278-1.052.677-1.385a1.521,1.521,0,0,1,.7-.266,48.914,48.914,0,0,1,5.29-.753c.841-.073,1.938-.375,1.945-1.22a14.653,14.653,0,0,0-9.347,1.257c-1.042.522-2.42,1.62-3.424.928-.376-.259-.357-.957-.874-1.248A2.637,2.637,0,0,0,528.684,437.158Z" transform="translate(-172.791 -173.695)" fill="#f2f2f2"/>
  <path id="Path_220" data-name="Path 220" d="M543.721,439.044l1.488.286a1.928,1.928,0,0,0-2.006,2.089c1.393.465,2.912.013,4.38.074s3.175,1.11,2.924,2.557c-.076.438-.329.875-.2,1.3a4.835,4.835,0,0,0,.5.782,1.752,1.752,0,0,1-.328,1.811c-.389.519-.913.933-1.255,1.484-.85,1.371-.367,3.144.139,4.675a4.121,4.121,0,0,0,.793,1.583,4.169,4.169,0,0,0,3.068.883,2.71,2.71,0,0,0,2.214-.645c.658-.806.2-2.064.631-3.01a3.355,3.355,0,0,1,2.3-1.49,34.491,34.491,0,0,0,4.933-1.61c1.953-.9,3.779-2.3,5.926-2.414a8.135,8.135,0,0,0,1.8-.126A1.368,1.368,0,0,0,572.126,446c-.038-.514-.472-.891-.812-1.279s-.607-.983-.294-1.393l5.628-1.051c-.4-1.087-.71-2.519.207-3.227.331-.255.774-.357,1.055-.666a1.365,1.365,0,0,0-.315-1.88,3.615,3.615,0,0,0-2.013-.61,54.013,54.013,0,0,0-7.422.066l-14.5.795a10.593,10.593,0,0,0-2.989.3,13.8,13.8,0,0,1-2.157.978C546.92,438.375,545.165,438.148,543.721,439.044Z" transform="translate(-177.464 -173.643)" fill="#f2f2f2"/>
  <path id="Path_221" data-name="Path 221" d="M579.6,455.638a.6.6,0,0,0-.433.1.547.547,0,0,0-.141.334,2.205,2.205,0,0,0,.32,1.578,1.545,1.545,0,0,0,1.415.678c.67-.085,1.164-.657,1.779-.936.949-.429,4.98-1.1,2.192-2.605-.961-.519-1.582-.061-2.339.281a5.323,5.323,0,0,1-2.793.571Z" transform="translate(-186.696 -178.478)" fill="#f2f2f2"/>
  <path id="Path_222" data-name="Path 222" d="M612.426,438.693a1.592,1.592,0,0,0-.775.674.68.68,0,0,0,.255.9,1.016,1.016,0,0,0,.38.06l1.324.04c.562.017,1.265.137,1.416.679.112.4-.139.92.164,1.207a.854.854,0,0,0,.45.176,3.07,3.07,0,0,0,1.334.043c.963-.258.457-.846.76-1.37.464-.8.384-.316,1.2-.775.6-.339,1.385-.954.88-1.818C618.941,437.008,613.72,438.047,612.426,438.693Z" transform="translate(-195.096 -174.142)" fill="#f2f2f2"/>
  <path id="Path_223" data-name="Path 223" d="M645.876,437.956l-.769.1a30.967,30.967,0,0,0-5.146.985,8.565,8.565,0,0,0,2.254.553,6.924,6.924,0,0,1,1.263.18c.737.219,1.48.786,2.193.5.442-.18.586-.64.952-.884.253-.168,1.211-.441,1.318-.611C648.806,437.4,646.542,437.867,645.876,437.956Z" transform="translate(-202.416 -174.161)" fill="#f2f2f2"/>
  <path id="Path_224" data-name="Path 224" d="M651.252,442.467a14.416,14.416,0,0,0-2.837,2.078,1.717,1.717,0,0,0-.7,1.256c.044.657.744,1.039,1.35,1.3l2.458,1.04c.3-.42.025-1-.283-1.413s-.674-.891-.538-1.388c.155-.567.847-.76,1.427-.858.945-.159,3.493-.146,3.187-1.669C654.957,441.016,652.2,441.937,651.252,442.467Z" transform="translate(-204.416 -175.178)" fill="#f2f2f2"/>
  <path id="Path_225" data-name="Path 225" d="M651.754,575.928a2.345,2.345,0,0,0,.148,2.066,2.094,2.094,0,0,0,2.149.743,3.871,3.871,0,0,0,2-1.283,6.87,6.87,0,0,0,1.148-1.76,13.737,13.737,0,0,0,.851-3.113l.763-4.006c.171-.9.164-3.64-1.482-2.746-.45.244-1.49,2.173-1.961,2.72a8.8,8.8,0,0,0-1.408,3.137C653.4,573.183,652.272,574.43,651.754,575.928Z" transform="translate(-205.413 -207.126)" fill="#f2f2f2"/>
  <path id="Path_226" data-name="Path 226" d="M768.109,606.863a11.991,11.991,0,0,1-1.564-.744,13.184,13.184,0,0,0-.793,4.32l3.685-2.085c.554-.314,1.182-.749,1.171-1.386a.439.439,0,0,0-.2-.4.5.5,0,0,0-.258-.03,6.233,6.233,0,0,0-1.56.5,1.9,1.9,0,0,1-1.591.008" transform="translate(-234.853 -217.561)" fill="#f2f2f2"/>
  <path id="Path_227" data-name="Path 227" d="M793.047,608.342a7.974,7.974,0,0,0-1.182.424,16.909,16.909,0,0,0-2.182,1.814,8.655,8.655,0,0,1-2.465,1.129.591.591,0,0,0,.138.871,1.709,1.709,0,0,0,.973.219,5.138,5.138,0,0,0,2.619-.4,8.256,8.256,0,0,0,1.233-.979,13.054,13.054,0,0,1,3.1-1.755,3.561,3.561,0,0,0,1.082-.647c.684-.674.732-1.713-.254-1.942C795.315,606.888,793.805,608.1,793.047,608.342Z" transform="translate(-240.354 -217.802)" fill="#f2f2f2"/>
  <path id="Path_228" data-name="Path 228" d="M805.561,600.356a3.074,3.074,0,0,0-.94-2.518,4.792,4.792,0,0,1-.56,2.683c-.372.547-.954.916-1.362,1.436a1.4,1.4,0,0,0-.11,1.8,1.791,1.791,0,0,0,1.061.365,3.2,3.2,0,0,0,2.718-.513c.364-.375.541-.93.985-1.206a1.2,1.2,0,0,0,.432-.309c.183-.291-.108-.675-.436-.78s-.689-.056-1.019-.155-.632-.47-.463-.77" transform="translate(-244.28 -215.426)" fill="#f2f2f2"/>
  <path id="Path_229" data-name="Path 229" d="M780.942,554.3a4.275,4.275,0,0,1-1.525.09,5.524,5.524,0,0,1-2.189-1.317,9.655,9.655,0,0,0-5.641-1.971c-1.857-.035-3.732.468-5.555.117a2.191,2.191,0,0,0,1.291,1.455c.605.3,1.273.444,1.881.734a4.492,4.492,0,0,1,2.175,2.263,6.4,6.4,0,0,0,.616,1.354,3.123,3.123,0,0,0,2.77.928c1.322-.087,2.7-.467,3.934.025a10.1,10.1,0,0,1,2.4,1.841,2.7,2.7,0,0,0,2.8.654,4.621,4.621,0,0,1-3.2-4.446c.885.081,3.434.05,3.3-1.454C783.878,553.295,781.7,554.158,780.942,554.3Z" transform="translate(-234.925 -203.373)" fill="#f2f2f2"/>
  <path id="Path_230" data-name="Path 230" d="M761.339,567.863c.157-.862,1.017-1.623.749-2.457a1.512,1.512,0,0,0-1.46-.876c-.606-.014-1.2.166-1.806.183a8.812,8.812,0,0,0-1.183.017c-1.2.2-1.943,1.458-3.076,1.906a18.7,18.7,0,0,1-2.179.409c-1.626.428-2.655,1.964-3.792,3.2a13.533,13.533,0,0,1-6.869,4.006,6.272,6.272,0,0,0-2.654.952c-.973.8-1.213,2.159-1.429,3.4a56.1,56.1,0,0,1-2.731,10.026l3.862.493a5.25,5.25,0,0,0,2.2-.032,6.4,6.4,0,0,0,1.449-.772,14.463,14.463,0,0,1,5.65-2.039,6,6,0,0,1,3.021.212,2.809,2.809,0,0,1,1.843,2.246,2.372,2.372,0,0,1,2.371.577,4.121,4.121,0,0,1,1.132,2.26c.1.528.2,1.161.694,1.383.4.181.859-.014,1.3-.049,1.485-.119,2.717,1.612,4.176,1.314,1.565-.32,1.949-2.664,3.476-3.133.877-.27,2.107.058,2.527-.757.37-.719-.368-1.549-.292-2.354.094-.991,1.263-1.412,2.164-1.835a6.75,6.75,0,0,0,3.076-8.726c-.892-1.828-2.648-3.266-2.972-5.274-.249-1.545.359-3.346-.625-4.562-.5-.619-1.349-.96-1.648-1.7a8.363,8.363,0,0,1-.213-1.483c-.1-.491-.529-1-1.014-.877-1.407.369-1.856,4.715-2.609,5.771a1.747,1.747,0,0,1-3.135-1.43Z" transform="translate(-226.899 -206.572)" fill="#f2f2f2"/>
  <path id="Path_231" data-name="Path 231" d="M734.789,557.563a2.265,2.265,0,0,0-1.466-.075c-.461.193-.73.869-.36,1.2a49.64,49.64,0,0,1,8.67.168c3.3.453,6.574,1.574,9.893,1.244a50.347,50.347,0,0,0-5.771-1.339l-3.249-.621a25.123,25.123,0,0,0-2.638-.408C738.014,557.584,736.611,558.074,734.789,557.563Z" transform="translate(-226.353 -204.998)" fill="#f2f2f2"/>
  <path id="Path_232" data-name="Path 232" d="M738.423,542.835c-.24-.02-.537-.037-.662.169s.017.458-.047.679c-.087.3-.483.379-.795.338a1.523,1.523,0,0,0-.925.011.785.785,0,0,0-.3.891,2.294,2.294,0,0,0,.535.853,8.713,8.713,0,0,0,1.388,1.392c.994.734,2.341,1.087,2.967,2.153a1.429,1.429,0,0,0,.4.533,1.1,1.1,0,0,0,1.016-.1l1.134-.518a1.288,1.288,0,0,0,.53-.361,1.166,1.166,0,0,0-.118-1.231,2.114,2.114,0,0,1-.449-1.205c.083-.774,1.079-1.071,1.488-1.733s.144-1.528.192-2.312c.056-.916.632-2.109-.3-2.793-.787-.582-1.54-.044-2.105.6C741.178,541.55,740.614,543.018,738.423,542.835Z" transform="translate(-227.091 -200.343)" fill="#f2f2f2"/>
  <path id="Path_233" data-name="Path 233" d="M748.59,524.667c.387.742,1.195,1.184,1.617,1.906.458.783.406,1.794.9,2.553.51.778,1.535,1.192,1.821,2.077.312.967-.4,2.141.168,2.986a1.253,1.253,0,0,0,1.839.169,1.349,1.349,0,0,0-.056-1.882c-.334-.3-.814-.436-1.093-.792a1.663,1.663,0,0,1-.283-.689,4.511,4.511,0,0,1,.071-2.162.963.963,0,0,0,.054-.566c-.126-.365-.62-.391-.967-.56-.788-.385-.769-1.5-.631-2.362-.092.576-2.145-.4-2.36-.73-.427-.649-.195-1.9-.279-2.616A2.037,2.037,0,0,0,748.59,524.667Z" transform="translate(-230.372 -195.87)" fill="#f2f2f2"/>
  <path id="Path_234" data-name="Path 234" d="M720.14,540.729c-.379-.424-.95-.868-1.458-.612a.923.923,0,0,0-.342,1.138,2.505,2.505,0,0,0,.827.986,28.865,28.865,0,0,1,3.122,2.676c1.653,1.816,2.529,4.268,4.326,5.941a2.427,2.427,0,0,0,1.362.737,1.059,1.059,0,0,0,1.172-.809,1.543,1.543,0,0,0-.544-1.135c-.7-.76-1.463-1.459-2.122-2.252a1.893,1.893,0,0,1-.542-1.133c0-.427.386-.875.8-.769-.5-.129-.877-.968-1.616-1.125-.618-.132-.767.251-1.5-.065C722.222,543.706,721.122,541.828,720.14,540.729Z" transform="translate(-222.608 -200.522)" fill="#f2f2f2"/>
  <path id="Path_235" data-name="Path 235" d="M762.6,485.137a11.6,11.6,0,0,1-1.184-.423c-1.041-.312-2.418.453-2.279,1.531.092.716.759,1.2,1.127,1.82a4.044,4.044,0,0,1,.113,3.121,2.44,2.44,0,0,1-.394.888,3.008,3.008,0,0,1-.933.671,12.475,12.475,0,0,0-3.651,3.1.894.894,0,0,0-.22.416c-.05.364.316.629.523.933.459.674.127,1.582.173,2.4a.677.677,0,0,0,.285.594c.277.141.605-.1.755-.37.5-.9.123-2.351,1.057-2.786.177-.082.391-.117.509-.272.187-.246.007-.611.1-.905.142-.442.747-.462,1.211-.442a6.873,6.873,0,0,0,2.361-.314,1.572,1.572,0,0,0,.781-.453,1.7,1.7,0,0,0,.2-1.287,17.454,17.454,0,0,0-2.062-6.292,3.749,3.749,0,0,0,2.422-.232c.4-.239.872-.956.676-1.443C763.859,484.616,763.3,485.265,762.6,485.137Z" transform="translate(-232.125 -186.237)" fill="#f2f2f2"/>
  <path id="Path_236" data-name="Path 236" d="M611.668,499.676a3.16,3.16,0,0,1,.022,1.589,1.087,1.087,0,0,1-1.229.776c-.4-.121-.628-.521-.911-.826-1.572-1.7-5.118-.714-6.089-2.814-.4-.857-.127-1.883-.4-2.788a2.481,2.481,0,0,0-2.513-1.707,5.162,5.162,0,0,0-1.446.432,36.459,36.459,0,0,1-9.58,2.4,7.869,7.869,0,0,0-1.841.335,5.829,5.829,0,0,0-2.928,3.018,23.346,23.346,0,0,1-2.021,3.794,16.85,16.85,0,0,1-3.429,2.93A3.5,3.5,0,0,0,578.176,508a3.708,3.708,0,0,0-.227,1.762l.247,7.264a6.559,6.559,0,0,0,.49,2.738,17.981,17.981,0,0,0,2.269,2.65,5.191,5.191,0,0,1,1.077,3.315c-.015.481-.063,1.05.311,1.352a1.369,1.369,0,0,0,.766.22l9.826.8c1.729.141,3.644.374,4.773,1.691.533.621.961,1.515,1.776,1.582a6.6,6.6,0,0,0,1.04-.143,2.555,2.555,0,0,1,2.148,1.338,5.939,5.939,0,0,1,.954,3.81c-.08.842-.341,1.661-.4,2.5-.214,3.212,2.508,6,2.561,9.22a11.5,11.5,0,0,1-1.744,5.34c1.414,2.142.256,4.995.819,7.5.534,2.376,2.515,4.236,3.009,6.62.226,1.092.239,2.435,1.2,3a2.74,2.74,0,0,0,1.36.272,17.926,17.926,0,0,0,8.163-1.858c1.19-.591,2.424-1.472,2.632-2.785.168-1.058-.369-2.242.177-3.164.644-1.087,2.293-1,3.24-1.836,1.537-1.355.338-3.94.961-5.892.56-1.755,2.486-2.687,3.441-4.262a7.572,7.572,0,0,0,.8-2.167,30.919,30.919,0,0,0,.814-5.528,33.113,33.113,0,0,1,.25-3.386c1.03-6.4,7.353-10.68,9.406-16.825.2-.587.288-1.369-.234-1.7a1.5,1.5,0,0,0-.994-.1l-4.53.571a3.119,3.119,0,0,1-1.676-.1,1.075,1.075,0,0,1-.613-1.384c.769-1.394-.813-3.155-1.516-4.583a67.622,67.622,0,0,0-6.734-10.921,1.111,1.111,0,0,1-.3-.641l1.286.043c-.434-1.557-1.15-3.261-2.663-3.831a6.631,6.631,0,0,0-2.706-.16,39.528,39.528,0,0,1-7.977-.65Z" transform="translate(-186.42 -188.625)" fill="#f2f2f2"/>
  <path id="Path_237" data-name="Path 237" d="M622.552,450.734a4.39,4.39,0,0,0,2.432,1.618c1.742.223,2.995-1.579,3.792-3.144a1.536,1.536,0,0,0,1.6,1.421,3.164,3.164,0,0,0,1.206-.471,23.75,23.75,0,0,1,11.252-2.909,1.215,1.215,0,0,1,.928-1.336c.8-.159,1.52.533,1.906,1.251a6.89,6.89,0,0,0,1.239,2.088c.613.538,1.8.514,2.042-.264.232-.747-.546-1.385-1.193-1.826s-1.329-1.256-.893-1.907a58.129,58.129,0,0,1,10.012-1.611,4.193,4.193,0,0,0,1.685-.29,1.31,1.31,0,0,0,.787-1.385,3.817,3.817,0,0,1-3.983-1.5c4.693-.387,9.684-.717,13.843,1.491.5,1.071-2.044,1.963-1.364,2.929a1.232,1.232,0,0,0,1.029.351,51.02,51.02,0,0,0,8.654-.33,11.587,11.587,0,0,1,3.147-.255c1.746.215,3.24,1.38,4.958,1.76a2.653,2.653,0,0,0,2.073-.247,1.314,1.314,0,0,0,.36-1.861c1.617-1.585,4.3-1.192,6.436-.433s4.155,1.983,6.414,2.152c1.62.121,3.262-.314,4.862-.037a30.249,30.249,0,0,1,2.924.9,22.354,22.354,0,0,0,5.755.435,40.327,40.327,0,0,1,14.371,2.856,4.272,4.272,0,0,1,1.6.944,1.566,1.566,0,0,1,.357,1.719l-4.728-.691c.445.877,1.6,1.026,2.534,1.329s1.906,1.336,1.344,2.143c-1.014-.323-1.933.691-2.445,1.624s-1.137,2.05-2.2,2.107c-.952.051-2.1-.759-2.723-.036a18.572,18.572,0,0,1,2.188,3.5c.613,1.277,1.049,2.886.221,4.034a1.046,1.046,0,0,1-.559.434c-.676.171-1.116-.656-1.6-1.158a5.811,5.811,0,0,0-2.364-1.108c-.828-.3-1.7-.88-1.765-1.757a3.509,3.509,0,0,1,.46-1.557,6,6,0,0,0,.456-2.691,3.056,3.056,0,0,0-.786-2.027,1.574,1.574,0,0,0-2.02-.208c-.266.221-.48.575-.826.588-.611.023-1.08-1.042-1.572-.678a1.67,1.67,0,0,1-.227,1.117c-1.467,1.276-3.72.736-5.611,1.187A10.531,10.531,0,0,0,706,460.1a1.647,1.647,0,0,0-.732.614,1.133,1.133,0,0,0,.44,1.351,3.5,3.5,0,0,0,1.452.5,14.281,14.281,0,0,1,6.465,2.593,6.347,6.347,0,0,1,2.438,6.2l-4.546-4.344q.259,2.736.294,5.487a2.468,2.468,0,0,1-.144,1.055c-.324.716-1.2.957-1.972,1.115a1.545,1.545,0,0,0-1.186,1.979,6.455,6.455,0,0,0,1.58,2.279,4.376,4.376,0,0,1,1.321,2.409c.082.929-.619,1.976-1.549,1.911a2.044,2.044,0,0,1-1.529-1.32,8.385,8.385,0,0,0-.932-1.9c-1.368-1.645-4.44-.94-5.666-2.694a2.772,2.772,0,0,0-.573,2.637,1.452,1.452,0,0,1,1.779.493,12.153,12.153,0,0,1,.967,1.766c.454.786,1.176,1.483,1.24,2.388a7.8,7.8,0,0,0,.017,1.027,4.152,4.152,0,0,0,.9,1.4,4.022,4.022,0,0,1,.229,3.743,11.542,11.542,0,0,1-2.206,3.2,38.625,38.625,0,0,1-4.8,4.838,5.049,5.049,0,0,0-1.364,1.373,1.488,1.488,0,0,0,.153,1.8c-.347.017-.97.188-1.317.206a30.619,30.619,0,0,1-.079-4.188c-1.37-.658-2.845,1.1-2.668,2.613s1.268,2.721,2.046,4.027a4.758,4.758,0,0,1,.8,3.164,2.326,2.326,0,0,1-2.274,2.009c-1.761-.154-2.5-2.682-4.242-2.971a.713.713,0,0,0-.459.046c-.259.142-.3.488-.318.783a9.722,9.722,0,0,0,.432,4.287c.827,1.952,2.962,3.592,2.514,5.665-2.413-1.122-3.668-3.828-4.238-6.428s-.665-5.329-1.686-7.786c-.775.994-2.405.172-3.114-.87-.672-.988-1.085-2.132-1.737-3.134a3.852,3.852,0,0,0-2.844-1.954,5.083,5.083,0,0,0-3.292,1.613,7.675,7.675,0,0,0-2.05,2.284c-.668,1.342-.493,2.925-.525,4.424a6.756,6.756,0,0,1-1.483,4.517,3.277,3.277,0,0,1-4.362.53,4.915,4.915,0,0,1-1.218-2.193,107.326,107.326,0,0,1-3.3-11.774c-.2.909-1,2.081-1.766,1.546a1.583,1.583,0,0,1-.407-.524c-1.423-2.412-4.058-3.858-6.721-4.726s-5.464-1.272-8.1-2.225a20.507,20.507,0,0,1-4.2-2.092,3.3,3.3,0,0,0-.2,3.379A2.692,2.692,0,0,0,644.3,493.5c.585-.187,1.078-.593,1.658-.793a1.294,1.294,0,0,1,1.612.457c.243.535-.124,1.182.058,1.741.277.851,1.56.916,2.009,1.69a1.557,1.557,0,0,1-.418,1.806,7.556,7.556,0,0,1-1.694,1.043c-1.888,1.05-3.23,2.842-4.88,4.236s-3.978,2.412-5.944,1.518c.469-2.373-2.358-4.116-2.878-6.478-.171-.778-.082-1.6-.327-2.361a7.7,7.7,0,0,0-2.126-2.683,10.53,10.53,0,0,1-2.888-7.661,10.753,10.753,0,0,0,0-2.92,2.188,2.188,0,0,0-1.987-1.83c-2.23.1-5.04.264-6.21-1.637a1.756,1.756,0,0,1,0-2.192,2.121,2.121,0,0,1,1.614-.277l5.025.494a5.553,5.553,0,0,0,3.454-.4c1.009-.614,1.445-2.245.512-2.968-.682-.528-1.9-.5-2.1-1.339-.165-.7.609-1.493.191-2.077-.3-.419-.974-.3-1.382.011a8.859,8.859,0,0,1-1.162,1.011c-.8.417-1.76.02-2.622-.25s-2.019-.293-2.437.508c-.468.9.415,2.07-.049,2.968-.614,1.187-2.693.511-3.556,1.532-.989,1.172.673,2.919.34,4.416a2.749,2.749,0,0,1-2.708-.152,2.63,2.63,0,0,1-1.137-2.449c.083-.673.434-1.361.2-2a2.344,2.344,0,0,0-1.187-1.086l-4.883-2.7a2.208,2.208,0,0,0,.837,2.515,8.675,8.675,0,0,1,2.085,1.939,2.545,2.545,0,0,1-.958,3.355.588.588,0,0,1-.484.084.675.675,0,0,1-.314-.422,10.4,10.4,0,0,0-4.223-5.53c-2.068-1.152-5.04-.915-6.4,1.025-.322.461-.538.986-.819,1.473-1.491,2.588-4.687,3.814-7.673,3.734a1.523,1.523,0,0,1-.837-.2c-.483-.333-.461-1.041-.387-1.622l.313-2.469a1.962,1.962,0,0,1,.547-1.353c.553-.436,1.351-.161,2.056-.171a2.605,2.605,0,0,0,2.365-1.825,2.936,2.936,0,0,0-.817-2.92c-.323-.3-.756-.684-.586-1.093a.9.9,0,0,1,.634-.427c1.265-.367,2.6-.464,3.847-.9a3.994,3.994,0,0,0,2.746-2.6c.09-.394.131-.87.485-1.065a1.453,1.453,0,0,1,.56-.115,2.727,2.727,0,0,0,2.339-2.843,1.78,1.78,0,0,1,2.009.333,5.652,5.652,0,0,0,1.788,1.22c1.308.356,2.572-.8,3.928-.808a5.061,5.061,0,0,0,1.7.006c.544-.2.868-.737,1.286-1.137s1.15-.644,1.535-.213l-.328-2.431a4.779,4.779,0,0,0,3.889-.7l-4.241-1.433a.922.922,0,0,1-.4-.212c-.308-.332,0-.849.249-1.227.6-.9.7-2.39-.286-2.84a2.424,2.424,0,0,0-2.092.422l-3.1,1.726c-.1.588.621.922,1.067,1.318a1.789,1.789,0,0,1-1.167,3.126,2.229,2.229,0,0,1,.4,1.89l-2.083.15a.9.9,0,0,1-.675-.132c-.223-.2-.193-.544-.244-.838a1.818,1.818,0,0,0-1.526-1.332,5.365,5.365,0,0,0-2.132.2,1.273,1.273,0,0,1-.917-.021.915.915,0,0,1-.363-.458,2.352,2.352,0,0,1,.473-2.258,12.527,12.527,0,0,1,1.776-1.633,10.348,10.348,0,0,0,3.077-4.773c1.146-.48,2.333-1.133,3.48-1.613a10.649,10.649,0,0,1,5.724-1.109l3.883.074a9.311,9.311,0,0,1,3.393.488,3.164,3.164,0,0,1,2.07,2.534.778.778,0,0,1-.249.711.917.917,0,0,1-.491.111C624.081,450.429,623.624,450.7,622.552,450.734Z" transform="translate(-189.324 -174.773)" fill="#f2f2f2"/>
  <path id="Path_238" data-name="Path 238" d="M591.329,470.348a1.136,1.136,0,0,0,.31-1.143,2.125,2.125,0,0,0-2.2.416,3.711,3.711,0,0,0-.59.779,3.475,3.475,0,0,0-.666,2.757.783.783,0,0,0,.358.49.942.942,0,0,0,.418.065,14.005,14.005,0,0,0,1.681-.1c.343-.042.74-.139.873-.457.174-.419-.247-.893-.124-1.33a1.453,1.453,0,0,1,.359-.514.679.679,0,0,0,.212-.57c-.05-.2-.363-.321-.476-.143" transform="translate(-189.05 -182.22)" fill="#f2f2f2"/>
  <path id="Path_239" data-name="Path 239" d="M595.635,465.662a4.7,4.7,0,0,0-1.524-.1.664.664,0,0,0-.325.074.542.542,0,0,0-.2.29,1.439,1.439,0,0,0,.838,1.764,1.8,1.8,0,0,1,.52.209c.431.334.156,1.018.238,1.557.092.606.678,1.114.57,1.717-.085.475-.592.851-.51,1.327.086.5.718.648,1.221.688a1.536,1.536,0,0,0,.865-.1,1.34,1.34,0,0,0,.546-.791,5.066,5.066,0,0,0,.255-1.908,1.809,1.809,0,0,0-.215-.842,4.706,4.706,0,0,0-.5-.576C596.447,467.852,597.464,466.177,595.635,465.662Z" transform="translate(-190.441 -181.312)" fill="#f2f2f2"/>
  <circle id="Ellipse_60" data-name="Ellipse 60" cx="3.239" cy="3.239" r="3.239" transform="translate(318.599 288.661)" fill="#6c63ff"/>
  <circle id="Ellipse_61" data-name="Ellipse 61" cx="3.239" cy="3.239" r="3.239" transform="translate(347.858 357.901)" fill="#6c63ff"/>
  <circle id="Ellipse_62" data-name="Ellipse 62" cx="3.239" cy="3.239" r="3.239" transform="translate(471.932 288.214)" fill="#6c63ff"/>
  <circle id="Ellipse_63" data-name="Ellipse 63" cx="3.239" cy="3.239" r="3.239" transform="translate(528.888 369.069)" fill="#6c63ff"/>
  <circle id="Ellipse_64" data-name="Ellipse 64" cx="3.239" cy="3.239" r="3.239" transform="translate(423.129 334.672)" fill="#6c63ff"/>
  <path id="Path_240" data-name="Path 240" d="M214.4,307.8c.007,14.33-8.51,19.338-19.018,19.343q-.366,0-.729-.008-.731-.015-1.446-.066c-9.484-.667-16.856-5.923-16.862-19.251-.007-13.792,17.612-31.206,18.933-32.494h0l.076-.074S214.393,293.47,214.4,307.8Z" transform="translate(-82.868 -132.243)" fill="#6c63ff"/>
  <path id="Path_241" data-name="Path 241" d="M198.4,324.95l6.954-9.727-6.971,10.794-.018,1.116q-.731-.015-1.446-.066l.743-14.337-.006-.111.013-.021.071-1.355-7-10.814,7.02,9.8.018.287.561-10.832-5.993-11.176,6.066,9.272.579-22.458,0-.075v.074l-.089,17.71,5.956-7.024-5.981,8.549-.153,9.7,5.563-9.31L198.7,305.683l-.085,5.393,8.073-12.96-8.1,14.841Z" transform="translate(-86.579 -132.243)" fill="#3f3d56"/>
  <path id="Path_242" data-name="Path 242" d="M948.388,311.641s2.969,20.038,2.226,21.522,2.226,9.648,14.1,7.421,16.327-17.811,16.327-17.811-9.648-12.616-8.164-16.327Z" transform="translate(-281.947 -140.287)" fill="#a0616a"/>
  <path id="Path_243" data-name="Path 243" d="M893.5,652.1v24.491l15.585,5.195-2.969-33.4Z" transform="translate(-230.399 -167.195)" fill="#a0616a"/>
  <path id="Path_244" data-name="Path 244" d="M970.726,656.618,968.5,687.046l13.359-8.164V654.392Z" transform="translate(-249.738 -168.742)" fill="#a0616a"/>
  <path id="Path_245" data-name="Path 245" d="M919.37,507.946s-9.648,17.069-6.679,22.264,2.969,7.421,2.969,7.421,1.484,40.076,11.874,59.371c0,0-2.226,37.849,2.226,60.855l4.453,23.006,17.069-2.226,1.484-24.491s2.969-28.943,0-42.3,8.164-57.887,8.164-57.887l19.3,64.566s.742,23.748,4.453,39.333,5.195,24.491,5.195,24.491l16.327.742s5.195-48.239,0-71.987c0,0-2.226-72.73,0-77.182s-2.226-18.553-6.679-21.522S919.37,507.946,919.37,507.946Z" transform="translate(-272.596 -192.246)" fill="#2f2e41"/>
  <path id="Path_246" data-name="Path 246" d="M941.5,760.4s-.742-4.453-4.453-4.453h-3.711l-.742,5.937-13.358,13.359s-21.522,16.327-2.969,17.069,23.006-7.421,23.006-7.421,17.069-5.195,17.069-5.937-4.453-19.3-4.453-19.3l-2.425.55-2.028,5.387Z" transform="translate(-271.72 -256.196)" fill="#2f2e41"/>
  <path id="Path_247" data-name="Path 247" d="M1033.225,761.488s-8.163-2.969-8.163,0v2.969s-2.969-2.226-2.969,0-4.453,3.711-4.453,3.711l-.742-3.711s-4.453,17.811-2.226,19.3,9.648,5.195,10.39,7.421,2.226,10.39,17.811,7.421,5.937-11.874,5.937-11.874l-8.164-8.164Z" transform="translate(-298.879 -257.284)" fill="#2f2e41"/>
  <circle id="Ellipse_65" data-name="Ellipse 65" cx="20.78" cy="20.78" r="20.78" transform="translate(654.195 137.587)" fill="#a0616a"/>
  <path id="Path_248" data-name="Path 248" d="M953.156,341.533s-8.083-2.266-9.978-6.328-16.739,3.359-16.739,3.359l-5.2,65.308-1.855,57.516s37.478,14.472,49.352,10.019a155.238,155.238,0,0,1,25.975-6.679l2.226-111.321-3.711-20.78s-17.489-7.318-20.99-6.628C972.241,326,968,342.275,953.156,341.533Z" transform="translate(-274.469 -145.317)" fill="#d0cde1"/>
  <path id="Path_249" data-name="Path 249" d="M939.2,330.445s-3.539,3.34-5.023,3.34-25.233,1.484-27.459,11.132,3.711,37.849,3.711,37.849.742,28.943,4.453,38.591.371,15.956.371,15.956-4.824,24.862-.371,27.088,13.308,5.642,13.308,5.642,11.924-13.063,8.214-31.616-8.906-45.27-5.937-54.176S939.2,330.445,939.2,330.445Z" transform="translate(-271.073 -146.476)" fill="#575a89"/>
  <path id="Path_250" data-name="Path 250" d="M890.888,471.4l5.195,9.648s24.491,27.459,28.943,11.874-17.811-19.3-17.811-19.3l-6.679-6.679Z" transform="translate(-267.12 -181.674)" fill="#a0616a"/>
  <path id="Path_251" data-name="Path 251" d="M988.861,323.946s28,3.711,35.424,11.132,1.484,42.3,1.484,42.3-8.906,53.434-8.163,56.4.742,28.2.742,28.2-9.648,10.39-17.811,7.421-18.553-24.491-8.164-50.465a50.007,50.007,0,0,0,1.856-30.249,217.07,217.07,0,0,1-5.368-64.745Z" transform="translate(-292.165 -144.8)" fill="#575a89"/>
  <path id="Path_252" data-name="Path 252" d="M1031.831,464.946l-7.421,6.679s-42.3,1.484-31.17,12.616,37.849,0,37.849,0l9.648-10.39-9.648-8.906Z" transform="translate(-293.032 -181.158)" fill="#a0616a"/>
  <path id="Path_253" data-name="Path 253" d="M934.77,261.648l-3.82-1.529s7.987-8.793,19.1-8.028l-3.125-3.441s7.639-3.058,14.584,4.97c3.651,4.22,7.875,9.181,10.508,14.769h4.091l-1.707,3.759,5.975,3.759-6.133-.675a20.8,20.8,0,0,1-.58,9.736s-6.945-8.028-6.945-9.557v3.823s-3.82-3.441-3.82-5.734l-2.083,2.676-1.042-4.205-12.848,4.205,2.083-3.441-7.987,1.147,3.125-4.205a131.1,131.1,0,0,0-9.376,9.175c-3.677,4.38-6.945,5.734-6.945,5.734S924.7,267.383,934.77,261.648Z" transform="translate(-276.527 -125.236)" fill="#2f2e41"/>
  <path id="Path_254" data-name="Path 254" d="M902.037,345.946l-6.679,2.969s-26.717,35.623-28.943,43.044-4.453,24.491,17.069,51.208l13.358-6.679S882,414.965,887.194,406.8s17.069-22.264,17.069-22.264Z" transform="translate(-260.458 -150.473)" fill="#575a89"/>
  <path id="Path_255" data-name="Path 255" d="M1030.888,337.946l4.453.742s55.66,40.818,51.208,56.4-35.623,48.981-35.623,48.981l-11.874-11.132s25.975-30.428,15.585-37.849-23.749-20.038-23.749-20.038Z" transform="translate(-303.221 -148.41)" fill="#575a89"/>
</svg>
