<svg xmlns="http://www.w3.org/2000/svg" width="1033.253" height="543.451" viewBox="0 0 1033.253 543.451">
  <g id="Group_48" data-name="Group 48" transform="translate(0 0)">
    <rect id="Rectangle_60" data-name="Rectangle 60" width="1033.253" height="524.114" rx="52" transform="translate(0 9.013)" fill="#6c63ff"/>
    <path id="Path_174" data-name="Path 174" d="M528.264,284.338v61.471a2.149,2.149,0,0,1-2.143,2.143H524.6V668.177a33.414,33.414,0,0,1-33.41,33.412H291.093a33.405,33.405,0,0,1-33.4-33.409v-309h-1.1a1.514,1.514,0,0,1-1.516-1.507V322.692a1.516,1.516,0,0,1,1.516-1.516h1.1V308h-1.114A1.588,1.588,0,0,1,255,306.407V271.9a1.586,1.586,0,0,1,1.582-1.582h1.114V252.33h-1.133a1.4,1.4,0,0,1-1.4-1.4V232.1a1.41,1.41,0,0,1,1.4-1.413h1.133V192.553a33.4,33.4,0,0,1,33.4-33.4H491.183a33.412,33.412,0,0,1,33.412,33.4V282.2h1.526A2.149,2.149,0,0,1,528.264,284.338Z" transform="translate(-61.265 -159.15)" fill="#3f3d56"/>
    <path id="Path_175" data-name="Path 175" d="M916.342,9.63,473.953,313.335,443.76,269.357,822.1,9.63Z" transform="translate(-28.437 -0.617)" opacity="0.1"/>
    <path id="Path_176" data-name="Path 176" d="M1059.319,9.63V53.609L436.953,480.865,406.76,436.886,1029.136,9.63Z" transform="translate(-26.066 -0.617)" opacity="0.1"/>
    <path id="Path_177" data-name="Path 177" d="M1064.637,147.95v64.7L584.006,542.608H489.75Z" transform="translate(-31.384 -9.481)" opacity="0.1"/>
    <rect id="Rectangle_61" data-name="Rectangle 61" width="973.193" height="1.872" transform="translate(28.239 541.58)" fill="#3f3d56"/>
    <rect id="Rectangle_62" data-name="Rectangle 62" width="48.668" height="48.668" transform="matrix(0.815, 0.579, -0.579, 0.815, 746.163, 361.44)" fill="#f0f0f0"/>
    <path id="Path_178" data-name="Path 178" d="M856.4,627.234A11.231,11.231,0,1,1,867.634,616,11.231,11.231,0,0,1,856.4,627.234Zm0-20.59A9.359,9.359,0,1,0,865.763,616a9.359,9.359,0,0,0-9.359-9.359Z" transform="translate(-99.085 -187.706)" fill="#3f3d56"/>
    <path id="Path_179" data-name="Path 179" d="M617.4,258.234A11.231,11.231,0,1,1,628.634,247,11.231,11.231,0,0,1,617.4,258.234Zm0-20.59A9.359,9.359,0,1,0,626.763,247a9.359,9.359,0,0,0-9.359-9.359Z" transform="translate(-83.769 -164.06)" fill="#f0f0f0"/>
    <rect id="Rectangle_63" data-name="Rectangle 63" width="1.872" height="69.643" transform="translate(128.359 473.663)" fill="#3f3d56"/>
    <circle id="Ellipse_45" data-name="Ellipse 45" cx="9.848" cy="9.848" r="9.848" transform="translate(119.446 463.814)" fill="#3f3d56"/>
    <path id="Path_180" data-name="Path 180" d="M184.077,709.255s-1.407-30.26-30.249-26.743" transform="translate(-54.782 -192.67)" fill="#3f3d56"/>
    <rect id="Rectangle_64" data-name="Rectangle 64" width="37.271" height="7.568" rx="2.542" transform="translate(304.621 17.134)" fill="#e6e8ec"/>
    <circle id="Ellipse_46" data-name="Ellipse 46" cx="4.293" cy="4.293" r="4.293" transform="translate(347.528 16.625)" fill="#e6e8ec"/>
    <path id="Path_181" data-name="Path 181" d="M509.943,200.448V672.235a21.2,21.2,0,0,1-21.2,21.189H297.209a21.162,21.162,0,0,1-21.2-21.189V200.448a21.2,21.2,0,0,1,21.2-21.2h28.666v3.678a17.455,17.455,0,0,0,17.455,17.455h97.41A17.455,17.455,0,0,0,458.2,182.928V179.25h30.548A21.192,21.192,0,0,1,509.943,200.448Z" transform="translate(-62.611 -160.438)" fill="#6c63ff"/>
    <rect id="Rectangle_65" data-name="Rectangle 65" width="217.133" height="105.759" transform="translate(222.748 157.824)" fill="#3f3d56"/>
    <rect id="Rectangle_66" data-name="Rectangle 66" width="217.133" height="105.759" transform="translate(222.748 333.776)" fill="#3f3d56"/>
    <circle id="Ellipse_47" data-name="Ellipse 47" cx="18.718" cy="18.718" r="18.718" transform="translate(398.701 57.68)" fill="#fff"/>
    <path id="Path_182" data-name="Path 182" d="M453.846,80.451h-7.821V72.63h-1.2v7.821H437v1.2h7.821v7.821h1.2V81.655h7.821Z" transform="translate(-28.004 -4.654)" fill="#3f3d56"/>
    <path id="Path_183" data-name="Path 183" d="M379.291,402.491c5.684,21.011,25.153,34.024,25.153,34.024s10.253-21.053,4.569-42.065-25.153-34.024-25.153-34.024S373.607,381.479,379.291,402.491Z" transform="translate(-69.12 -172.048)" fill="#fff"/>
    <path id="Path_184" data-name="Path 184" d="M385.664,399.419c15.6,15.183,17.5,38.523,17.5,38.523s-23.383-1.277-38.98-16.46-17.5-38.523-17.5-38.523S370.067,384.236,385.664,399.419Z" transform="translate(-67.14 -173.492)" fill="#6c63ff"/>
    <path id="Path_185" data-name="Path 185" d="M379.291,590.491c5.684,21.011,25.153,34.024,25.153,34.024s10.253-21.053,4.569-42.065-25.153-34.024-25.153-34.024S373.607,569.479,379.291,590.491Z" transform="translate(-69.12 -184.096)" fill="#fff"/>
    <path id="Path_186" data-name="Path 186" d="M385.664,587.419c15.6,15.183,17.5,38.523,17.5,38.523s-23.383-1.277-38.98-16.46-17.5-38.523-17.5-38.523S370.067,572.236,385.664,587.419Z" transform="translate(-67.14 -185.54)" fill="#6c63ff"/>
    <path id="Path_187" data-name="Path 187" d="M432.5,590.491c-5.684,21.011-25.153,34.024-25.153,34.024s-10.253-21.053-4.569-42.065,25.153-34.024,25.153-34.024S438.189,569.479,432.5,590.491Z" transform="translate(-70.625 -184.096)" fill="#fff"/>
    <path id="Path_188" data-name="Path 188" d="M424.535,587.419c-15.6,15.183-17.5,38.523-17.5,38.523s23.383-1.277,38.979-16.46,17.5-38.523,17.5-38.523S440.132,572.236,424.535,587.419Z" transform="translate(-71.008 -185.54)" fill="#6c63ff"/>
    <path id="Path_189" data-name="Path 189" d="M1022.735,278.8h-18.476V260.321h18.476Zm-17.055-1.421h15.634V261.742H1005.68Z" transform="translate(-109.279 -165.633)" fill="#3f3d56"/>
    <path id="Path_190" data-name="Path 190" d="M1034.781,725.354l-12.6-13.511,13.511-12.6,12.6,13.511Zm-10.594-13.441,10.663,11.432,11.432-10.663-10.663-11.432Z" transform="translate(-110.427 -193.76)" fill="#f0f0f0"/>
    <circle id="Ellipse_48" data-name="Ellipse 48" cx="9.433" cy="9.433" r="9.433" transform="translate(119.078 85.382)" fill="#f0f0f0"/>
    <path id="Path_191" data-name="Path 191" d="M183.444,285.841a27.25,27.25,0,1,1,27.25-27.25A27.25,27.25,0,0,1,183.444,285.841Zm0-52.4A25.154,25.154,0,1,0,208.6,258.591a25.154,25.154,0,0,0-25.154-25.154Z" transform="translate(-54.933 -163.776)" fill="#2f2e41"/>
    <rect id="Rectangle_67" data-name="Rectangle 67" width="306.981" height="25.27" transform="translate(604.603 200.876)" fill="#f0f0f0"/>
    <rect id="Rectangle_68" data-name="Rectangle 68" width="229.3" height="9.787" transform="translate(643.443 259.839)" fill="#f0f0f0"/>
    <rect id="Rectangle_69" data-name="Rectangle 69" width="229.3" height="9.787" transform="translate(643.443 275.607)" fill="#f0f0f0"/>
    <rect id="Rectangle_70" data-name="Rectangle 70" width="229.3" height="9.787" transform="translate(643.443 291.375)" fill="#f0f0f0"/>
    <rect id="Rectangle_71" data-name="Rectangle 71" width="229.3" height="9.787" transform="translate(643.443 307.143)" fill="#f0f0f0"/>
  </g>
</svg>
