<svg id="portfolio_img" data-name="portfolio img" xmlns="http://www.w3.org/2000/svg" width="945.253" height="544.027" viewBox="0 0 945.253 544.027">
  <ellipse id="Ellipse_27" data-name="Ellipse 27" cx="472.627" cy="27.183" rx="472.627" ry="27.183" transform="translate(0 489.662)" fill="#f2f2f2"/>
  <rect id="Rectangle_50" data-name="Rectangle 50" width="710.02" height="22.589" transform="translate(150.524)" fill="#f2f2f2"/>
  <circle id="Ellipse_28" data-name="Ellipse 28" cx="5.846" cy="5.846" r="5.846" transform="translate(163.678 5.115)" fill="#6c63ff"/>
  <circle id="Ellipse_29" data-name="Ellipse 29" cx="5.846" cy="5.846" r="5.846" transform="translate(182.678 5.115)" fill="#6c63ff"/>
  <circle id="Ellipse_30" data-name="Ellipse 30" cx="5.846" cy="5.846" r="5.846" transform="translate(201.678 5.115)" fill="#6c63ff"/>
  <path id="Path_158" data-name="Path 158" d="M175.47,396.627l-.5.432v152.38h710.02V281.779l-8.462.642Z" transform="translate(-24.443 -39.365)" fill="#3f3d56"/>
  <rect id="Rectangle_51" data-name="Rectangle 51" width="198.273" height="7.995" transform="translate(201.765 151.103)" fill="#3f3d56"/>
  <rect id="Rectangle_52" data-name="Rectangle 52" width="198.273" height="7.995" transform="translate(201.765 168.692)" fill="#3f3d56"/>
  <rect id="Rectangle_53" data-name="Rectangle 53" width="67.157" height="7.995" transform="translate(201.765 186.281)" fill="#3f3d56"/>
  <rect id="Rectangle_54" data-name="Rectangle 54" width="198.273" height="7.995" transform="translate(606.105 373.061)" fill="#fff"/>
  <rect id="Rectangle_55" data-name="Rectangle 55" width="198.273" height="7.995" transform="translate(606.105 390.649)" fill="#fff"/>
  <rect id="Rectangle_56" data-name="Rectangle 56" width="67.157" height="7.995" transform="translate(606.105 408.238)" fill="#fff"/>
  <circle id="Ellipse_31" data-name="Ellipse 31" cx="7.799" cy="7.799" r="7.799" transform="translate(475.117 487.104)" fill="#f2f2f2"/>
  <circle id="Ellipse_32" data-name="Ellipse 32" cx="7.799" cy="7.799" r="7.799" transform="translate(497.735 487.884)" fill="#f2f2f2"/>
  <circle id="Ellipse_33" data-name="Ellipse 33" cx="7.799" cy="7.799" r="7.799" transform="translate(520.353 488.664)" fill="#f2f2f2"/>
  <circle id="Ellipse_34" data-name="Ellipse 34" cx="6.239" cy="6.239" r="6.239" transform="translate(499.366 489.444)" fill="#3f3d56"/>
  <rect id="Rectangle_57" data-name="Rectangle 57" width="67.157" height="15.322" transform="translate(267.148 242.616)" fill="#3f3d56"/>
  <rect id="Rectangle_58" data-name="Rectangle 58" width="67.157" height="15.322" transform="translate(666.326 449.948)" fill="#fff"/>
  <circle id="Ellipse_35" data-name="Ellipse 35" cx="46.456" cy="46.456" r="46.456" transform="translate(254.648 203.903)" fill="#6c63ff" opacity="0.3"/>
  <circle id="Ellipse_36" data-name="Ellipse 36" cx="30.971" cy="30.971" r="30.971" transform="translate(270.134 219.388)" fill="#6c63ff" opacity="0.3"/>
  <circle id="Ellipse_37" data-name="Ellipse 37" cx="21.507" cy="21.507" r="21.507" transform="translate(279.597 228.851)" fill="#6c63ff"/>
  <circle id="Ellipse_38" data-name="Ellipse 38" cx="46.456" cy="46.456" r="46.456" transform="translate(645.547 88.77)" fill="#6c63ff" opacity="0.3"/>
  <circle id="Ellipse_39" data-name="Ellipse 39" cx="30.971" cy="30.971" r="30.971" transform="translate(661.032 104.255)" fill="#6c63ff" opacity="0.3"/>
  <circle id="Ellipse_40" data-name="Ellipse 40" cx="21.507" cy="21.507" r="21.507" transform="translate(670.495 113.719)" fill="#6c63ff"/>
  <circle id="Ellipse_41" data-name="Ellipse 41" cx="46.456" cy="46.456" r="46.456" transform="translate(653.827 411.235)" fill="#6c63ff" opacity="0.3"/>
  <circle id="Ellipse_42" data-name="Ellipse 42" cx="30.971" cy="30.971" r="30.971" transform="translate(669.312 426.72)" fill="#6c63ff" opacity="0.3"/>
  <circle id="Ellipse_43" data-name="Ellipse 43" cx="21.507" cy="21.507" r="21.507" transform="translate(678.776 436.183)" fill="#6c63ff"/>
  <rect id="Rectangle_59" data-name="Rectangle 59" width="19.135" height="24.602" transform="translate(96.481 94.824) rotate(-177.779)" fill="#6c63ff"/>
  <path id="Path_159" data-name="Path 159" d="M241.812,313.677s26.479-12.651,26.055-1.725-26.691,18.114-26.691,18.114Z" transform="translate(-77.245 -158.08)" fill="#ffb9b9"/>
  <path id="Path_160" data-name="Path 160" d="M207.187,419.765s12.492,30.576,17.108,52.64,11.645,52.429,2.6,73.963-34.749,84.825-35.014,91.654,2.2,13.764-3.261,13.552-35.192-9.572-36.4-13.722S162.367,623.2,162.367,623.2l28.026-87.821-29.241-57.214-21.091,85.354L135.93,670.048s-20.275-6.258-23.218-.9c0,0-9.084-12.663-10.238-18.179s4.29-110.627,4.29-110.627S88.154,420.62,103.177,421.2,177.046,385.769,207.187,419.765Z" transform="translate(-57.148 -171.72)" fill="#2f2e41"/>
  <path id="Path_161" data-name="Path 161" d="M196.824,683.712s13.858,30.629,15.171,32.048,10.344,15.447,3.515,15.182-22.953-7.729-34.821-19.132-27.516-31.159-26.1-32.472,11.138-5.039,11.138-5.039Z" transform="translate(-65.137 -209.321)" fill="#2f2e41"/>
  <path id="Path_162" data-name="Path 162" d="M135.091,704.6s.836,13.711,3.356,19.28,2.2,13.764-4.627,13.5-24.478-3.685-24.478-3.685-1.048-8.248.371-9.56,7.464-16.124,4.892-20.328S135.091,704.6,135.091,704.6Z" transform="translate(-58.776 -213.209)" fill="#2f2e41"/>
  <path id="Path_163" data-name="Path 163" d="M124.106,187.821s-14.558,22.688-20.233,27.94,10.291,16.813,10.291,16.813l28.575,3.844s-.359-26,1.112-28.681S124.106,187.821,124.106,187.821Z" transform="translate(-57.893 -141.36)" fill="#ffb9b9"/>
  <path id="Path_164" data-name="Path 164" d="M147.425,221.314s-5.887,10.714-11.35,10.5-33.72-12.25-34.927-16.4-9.36,29.729-9.36,29.729l69.144,121.681L177.8,355.17l-8.172-71.443-6.712-38.559Z" transform="translate(-56.376 -145.165)" fill="#6c63ff"/>
  <path id="Path_165" data-name="Path 165" d="M95.091,328.879c2.758,5.77,4.481,11.786,4.242,17.946-.011.273-.021.546-.045.819-.654,12.641-5.311,27.26-6.982,37.891-1.212,7.626-.867,13.193,3.6,14.5,10.82,3.155-1.578,5.41,40.284,19.344s49.167,1.907,49.273-.825-5.928-23.483-4.51-24.8,19.851,17.184,25.42,14.664.636-16.389.636-16.389S194.459,362.824,194.724,356s-19-39.036-19-39.036l-13.106-85.313s-5.039-11.138-11.815-12.769a16.785,16.785,0,0,0-12.4,2.255l11.339,25.06L161.7,290.428l-2,16.336S145.791,277.5,136.654,266.2s-28.617-38.041-28.617-38.041-4.548-15.345-1.115-19.931S92.6,202.943,85.031,221.8c-4.012,9.994-10.526,24.9-14.607,38.772-3.636,12.292-5.354,23.784-1.751,30.352C74.179,300.958,88.029,314.147,95.091,328.879Z" transform="translate(-52.868 -143.831)" fill="#575a89"/>
  <path id="Path_166" data-name="Path 166" d="M68.673,299.314c5.506,10.034,19.357,23.224,26.418,37.955,1.844-6.645,4.094-13.519,4.094-13.519s8.63-46.171-16.9-58.1a17.083,17.083,0,0,0-11.864,3.315C66.788,281.254,65.07,292.745,68.673,299.314Z" transform="translate(-52.868 -152.221)" opacity="0.1"/>
  <path id="Path_167" data-name="Path 167" d="M186.438,301.411l21.64,6.31,30.047,1.165L241.216,335l-49.379,3.556S179.5,303.878,186.438,301.411Z" transform="translate(-69.303 -157.228)" fill="#575a89"/>
  <path id="Path_168" data-name="Path 168" d="M144.155,403.451s28.95,4.8,22.343,13.515-32.254-.447-32.254-.447Z" transform="translate(-62.307 -171.483)" fill="#ffb9b9"/>
  <path id="Path_169" data-name="Path 169" d="M103.448,370.725c-.654,12.641-5.311,27.26-6.982,37.891,9.223,8.729,17.993,16.428,21.3,16.556,6.829.265,17.808-.677,21.852.847s6.416-24.372,6.416-24.372-2.414-8.3-13.181-12.821C125.584,385.767,111.653,377.472,103.448,370.725Z" transform="translate(-57.029 -166.911)" opacity="0.1"/>
  <path id="Path_170" data-name="Path 170" d="M81.634,256.119s-23.112-3.632-21.863,34.715-2.436,62.825,6.859,70.025,39.49,39.83,46.319,40.1,17.808-.677,21.852.847,6.416-24.372,6.416-24.372-2.414-8.3-13.181-12.822S91.9,344.057,92.114,338.594s6.416-24.372,6.416-24.372S107.16,268.051,81.634,256.119Z" transform="translate(-51.896 -150.888)" fill="#575a89"/>
  <circle id="Ellipse_44" data-name="Ellipse 44" cx="30.069" cy="30.069" r="30.069" transform="translate(56.524 19.918)" fill="#ffb9b9"/>
  <path id="Path_171" data-name="Path 171" d="M165.949,140.837a5.806,5.806,0,0,0,2.528,1.269,1.8,1.8,0,0,0,2.091-1.448c.688,1.427,1.464,2.947,2.869,3.679s3.577.118,3.779-1.453a6.629,6.629,0,0,0,1.526,3.221,2.285,2.285,0,0,0,3.213.107c-.615,3.362-.235,6.819-.429,10.231s-1.1,7.029-3.681,9.273c-3.759,3.272-9.413,2.464-14.358,1.845a4.358,4.358,0,0,0-2.25.123c-1.852.789-1.768,3.366-1.793,5.379a14.946,14.946,0,0,1-13.087,14.193,7.492,7.492,0,0,1-5.568-1.359c-1.4-1.19-2.121-3.13-3.73-4.024-2.617-1.454-5.791.667-7.7,2.969s-3.8,5.135-6.763,5.557c-3.92.557-6.906-3.438-8.371-7.117a41.486,41.486,0,0,1,.825-32.235C123.23,133.2,151.193,130.381,165.949,140.837Z" transform="translate(-59.11 -133.947)" fill="#2f2e41"/>
  <path id="Path_172" data-name="Path 172" d="M1012.675,691.058c10.59,18.06,31.948,25.21,31.948,25.21s4.188-22.131-6.4-40.19-31.948-25.21-31.948-25.21S1002.085,673,1012.675,691.058Z" transform="translate(-184.016 -206.048)" fill="#f2f2f2"/>
  <path id="Path_173" data-name="Path 173" d="M1014.979,689.2c18.314,10.143,25.987,31.32,25.987,31.32s-22.021,4.731-40.335-5.413-25.987-31.32-25.987-31.32S996.664,679.056,1014.979,689.2Z" transform="translate(-179.712 -210.493)" fill="#6c63ff"/>
</svg>
