<?xml version="1.0" encoding="utf-8"?>
<!-- Generator: Adobe Illustrator 25.2.3, SVG Export Plug-In . SVG Version: 6.00 Build 0)  -->
<svg version="1.1" id="abdd50a7-d504-42d6-abd9-1be1b582ab53"
	 xmlns="http://www.w3.org/2000/svg" xmlns:xlink="http://www.w3.org/1999/xlink" x="0px" y="0px" viewBox="0 0 738.2 542.3"
	 style="enable-background:new 0 0 738.2 542.3;" xml:space="preserve">
<style type="text/css">
	.st0{fill:#FAFAFA;}
	.st1{fill:#FFB8B8;}
	.st2{fill:#3F3D56;}
	.st3{fill:#6C63FF;}
	.st4{fill:#5E5B9E;}
	.st5{fill:#2F2E41;}
	.st6{fill:#CACACA;}
</style>
<path class="st0" d="M599.6,255H311.3c-1.8,0-3.2-1.4-3.2-3.2V5.3c0-1.8,1.4-3.2,3.2-3.2h288.3c1.8,0,3.2,1.4,3.2,3.2v246.5
	C602.8,253.6,601.4,255,599.6,255z"/>
<path class="st1" d="M145.9,282.4l-9.7-103.1l-29,1l23,101.8c-5.1,4.3-5.7,11.8-1.5,16.9c4.3,5.1,11.8,5.7,16.9,1.5
	c5.1-4.3,5.7-11.8,1.5-16.9C146.7,283.2,146.3,282.8,145.9,282.4L145.9,282.4z"/>
<path id="fe9c178f-ba3b-4efa-8f02-91d714d1abd5" class="st0" d="M697.2,512.2c-0.3,10-1.9,19.9-5,29.4c-0.1,0.2-0.1,0.4-0.2,0.7
	h-18.5c0-0.2,0-0.4,0.1-0.7c1.2-14.2,8.4-100.7-0.2-115.5C674.2,427.3,698.7,467,697.2,512.2z"/>
<path id="f50bd4c5-ec05-4fbf-a485-473f9149da92" class="st0" d="M694.3,540.9c-0.3,0.5-0.7,0.9-1,1.4h-29.1c0.2-0.4,0.5-0.9,0.8-1.4
	c4.8-8.7,19-34.6,32.2-61.5c14.2-28.9,27.2-58.9,26.1-69.7C723.6,412.1,733.4,486.7,694.3,540.9z"/>
<path id="b6259e39-7a62-4774-8afe-aeda515ec4c0" class="st0" d="M55.4,497.1c0.4,14.9,2.9,29.6,7.4,43.8c0.1,0.3,0.2,0.7,0.3,1h27.6
	c0-0.3-0.1-0.6-0.1-1c-1.8-21.2-12.5-150,0.2-172C89.7,370.6,53.2,429.8,55.4,497.1z"/>
<path id="f2d2e7cd-3eee-4477-b585-9c3536763a3f" class="st0" d="M57.4,540.8c0.2,0.3,0.5,0.7,0.7,1h20.7c-0.2-0.3-0.3-0.6-0.5-1
	c-3.4-6.2-13.6-24.6-23-43.8c-10.1-20.6-19.4-41.9-18.6-49.7C36.5,449.1,29.5,502.3,57.4,540.8z"/>
<path id="b281e673-bc66-4b3c-8141-26a0e4a40fd7" class="st2" d="M655.6,434.2H367.3c-2.9,0-5.3-2.4-5.3-5.3v-71.5
	c0-2.9,2.4-5.3,5.3-5.3h288.3c2.9,0,5.3,2.4,5.3,5.3v71.5C660.9,431.8,658.5,434.2,655.6,434.2z M367.3,354.1
	c-1.8,0-3.2,1.4-3.2,3.2v71.5c0,1.8,1.4,3.2,3.2,3.2h288.3c1.8,0,3.2-1.4,3.2-3.2v-71.5c0-1.8-1.4-3.2-3.2-3.2L367.3,354.1z"/>
<circle id="b3fc6bd5-ca87-44d7-abba-b33fcf0fce6e" class="st0" cx="340.1" cy="498.7" r="21.7"/>
<path id="a4c0ef2a-4063-4b4c-b7a5-712e67abf83e" class="st0" d="M390.3,485c-2,0-3.6,1.6-3.6,3.6c0,2,1.6,3.6,3.6,3.6h170.9
	c2,0,3.6-1.6,3.6-3.6s-1.6-3.6-3.6-3.6H390.3z"/>
<path id="b6aac15c-fc94-4bcf-bd22-2b2a2d48a317" class="st0" d="M390.3,506.7c-2,0-3.6,1.6-3.6,3.6c0,2,1.6,3.6,3.6,3.6h73.5
	c2,0,3.6-1.6,3.6-3.6c0-2-1.6-3.6-3.6-3.6H390.3z"/>
<circle id="b30606c0-bedc-4458-8bc1-74f9b5197cfe" class="st0" cx="412.1" cy="392.7" r="21.7"/>
<path id="b0251ef9-ec49-4884-8989-e65898cec086" class="st0" d="M462.3,379c-2,0-3.6,1.6-3.6,3.6c0,2,1.6,3.6,3.6,3.6h170.9
	c2,0,3.6-1.6,3.6-3.6c0-2-1.6-3.6-3.6-3.6H462.3z"/>
<path id="f3fbb845-d219-495e-9ae9-9928c3e8cc79" class="st0" d="M462.3,400.7c-2,0-3.6,1.6-3.6,3.6c0,2,1.6,3.6,3.6,3.6h73.5
	c2,0,3.6-1.6,3.6-3.6c0-2-1.6-3.6-3.6-3.6H462.3z"/>
<path id="e4b1ee1b-a1a6-4c2a-970c-d47d8b3fd870" class="st2" d="M599.6,257.2H311.3c-2.9,0-5.3-2.4-5.3-5.3V5.3
	c0-2.9,2.4-5.3,5.3-5.3h288.3c2.9,0,5.3,2.4,5.3,5.3v246.5C604.9,254.8,602.5,257.2,599.6,257.2L599.6,257.2z M311.3,2.1
	c-1.8,0-3.2,1.4-3.2,3.2v246.5c0,1.8,1.4,3.2,3.2,3.2h288.3c1.8,0,3.2-1.4,3.2-3.2V5.3c0-1.8-1.4-3.2-3.2-3.2L311.3,2.1z"/>
<circle id="b10e3043-e731-4e82-8fca-75f9298f00b8" class="st3" cx="356.1" cy="43.3" r="21.7"/>
<path id="b8c117d2-374b-429b-9a52-be2e8d6b8684" class="st4" d="M406.3,28.9c-2,0-3.6,1.6-3.6,3.6c0,2,1.6,3.6,3.6,3.6h170.9
	c2,0,3.6-1.6,3.6-3.6c0-2-1.6-3.6-3.6-3.6H406.3z"/>
<path id="b1daea5a-aca4-46bb-ab1c-9e5888030a38" class="st4" d="M406.3,50.6c-2,0-3.6,1.6-3.6,3.6c0,2,1.6,3.6,3.6,3.6h73.5
	c2,0,3.6-1.6,3.6-3.6c0-2-1.6-3.6-3.6-3.6H406.3z"/>
<path id="a9f6ff6a-7451-4bea-bc5a-628f4bebd58b" class="st5" d="M233.2,521.3h-22l-13-183l-0.5,46.5l-48,128l-19-15l31.5-127.5
	l-15-71h98L233.2,521.3z"/>
<circle id="a663db6f-60a1-421c-a7e7-5d04aff0cacb" class="st1" cx="198.2" cy="47.3" r="26"/>
<path id="f3cb7545-9624-45d8-a11d-440f1a34aab0" class="st2" d="M248.2,313.3c-42.5-10.9-82.3-18.2-107-5
	c4.3-45.4-0.7-103.4-15.5-164c-4.8-19.7-1.5-37.4,16-47.5l23.5-13.5l36,1L220,94.7c18.9,9.4,29.2,30.2,25.3,51
	C235.1,198.8,240.6,256.1,248.2,313.3z"/>
<path id="f6231dd0-d8a8-465e-b214-b8e5de78c90d" class="st2" d="M151.2,186.3l-47-3c3.7-46.2,14.1-71.5,30-80l17,20V186.3z"/>
<path id="b1bce2c7-12e1-4551-8863-d6d142670d08" class="st3" d="M668.1,225.2H379.8c-2.9,0-5.3-2.4-5.3-5.3V93.4
	c0-2.9,2.4-5.3,5.3-5.3h288.3c2.9,0,5.3,2.4,5.3,5.3v126.5C673.4,222.8,671,225.2,668.1,225.2z"/>
<path id="b8b7ef86-e6be-48b5-b7f8-365881aa5bd2" class="st0" d="M438.5,132.1c-2,0-3.6,1.6-3.6,3.6c0,2,1.6,3.6,3.6,3.6h170.9
	c2,0,3.6-1.6,3.6-3.6c0-2-1.6-3.6-3.6-3.6H438.5z"/>
<path id="a9b62e3b-06cf-4a55-8c8f-4aeba6e5e4c7" class="st0" d="M438.5,153.1c-2,0-3.6,1.6-3.6,3.6c0,2,1.6,3.6,3.6,3.6h170.9
	c2,0,3.6-1.6,3.6-3.6c0-2-1.6-3.6-3.6-3.6H438.5z"/>
<path id="a12f9c39-a43a-4056-b48c-3363dc06a37f" class="st0" d="M438.5,173.9c-2,0-3.6,1.6-3.6,3.6c0,2,1.6,3.6,3.6,3.6H512
	c2,0,3.6-1.6,3.6-3.6c0-2-1.6-3.6-3.6-3.6H438.5z"/>
<path id="e7c770ea-313c-4db5-898e-f0c92c7afc68" class="st5" d="M207.1,13.1c-2.4-0.3-4.7,1-7.1,1.6c-4.9,1.1-9.9-1.2-15-1.1
	c-4.3,0.2-8.5,1.5-12.3,3.7c-3,1.4-5.8,3.4-8.2,5.7c-2.4,2.4-3.8,5.6-3.9,9c0.3,1.9,0.3,3.9-0.2,5.9c-0.5,1-1.1,1.9-1.8,2.7
	c-1.3,2-1.6,4.5-0.8,6.8c1,2.2,2.4,4.3,4,6.1c3.2,4.2,5.3,9.1,8.2,13.6c1.3,1.9,2.7,3.7,4.3,5.4c0.3,0.3,0.6,0.5,0.9,0.7
	c0.3,0.1,0.7,0.2,1.1,0.2c6.2,0.2,12.6,0.3,18.2-2.1c1.8-0.6,3.4-1.9,4.4-3.5c0.8-2.3,1-4.7,0.4-7c-0.3-2.6-0.2-5.2,0.2-7.8
	c0-0.9,0.4-1.7,1-2.3c0.9-0.6,2.1-0.6,3.1-0.1c1,0.5,2,0.8,3.1,0.9c2.1,0,3.5-2.4,3.9-4.5c-0.5-3.9,1.2-7.7,4.4-9.9
	c3-3.8,4-8.7,2.7-13.3C216.2,19.1,211.9,13.6,207.1,13.1z"/>
<path id="a71493d8-729a-4860-baf4-314f557d0142" class="st2" d="M583.6,540.2H295.3c-2.9,0-5.3-2.4-5.3-5.3v-71.5
	c0-2.9,2.4-5.3,5.3-5.3h288.3c2.9,0,5.3,2.4,5.3,5.3v71.5C588.9,537.8,586.5,540.2,583.6,540.2L583.6,540.2z M295.3,460.1
	c-1.8,0-3.2,1.4-3.2,3.2v71.5c0,1.8,1.4,3.2,3.2,3.2h288.3c1.8,0,3.2-1.4,3.2-3.2v-71.5c0-1.8-1.4-3.2-3.2-3.2L295.3,460.1z"/>
<path class="st1" d="M256.9,278.4l-9.7-103.1l-29,1l23,101.8c-5.1,4.3-5.7,11.8-1.5,16.9c4.3,5.1,11.8,5.7,16.9,1.5
	c5.1-4.3,5.7-11.8,1.5-16.9C257.7,279.2,257.3,278.8,256.9,278.4L256.9,278.4z"/>
<path id="e519ab1a-c4cc-4940-8e12-0133c9949239" class="st2" d="M257.2,177.3l-44,10l-2-72l25,1L257.2,177.3z"/>
<path class="st5" d="M210.5,519.5l31.9,0h0c11.2,0,20.3,9.1,20.3,20.3v0.7l-52.3,0L210.5,519.5z"/>
<path class="st5" d="M130.3,494.3l26.8,17.3l0,0c9.4,6.1,12.2,18.7,6.1,28.1l-0.4,0.6L119,511.9L130.3,494.3z"/>
<rect id="f8d1573e-a821-470f-abec-777083782890" y="540.3" class="st6" width="738.2" height="2"/>
</svg>
