<svg xmlns="http://www.w3.org/2000/svg" width="59.321" height="59.321" viewBox="0 0 59.321 59.321">
  <g id="apps-script" transform="translate(-4 -4)">
    <path id="Path_593" data-name="Path 593" d="M62.744,27.851H60.355v-.123H33.66V39.592H50.423a17.81,17.81,0,1,1-4.956-19.221l8.389-8.389A29.63,29.63,0,1,0,63.321,33.66,29.862,29.862,0,0,0,62.744,27.851Z" fill="#ffc107"/>
    <path id="Path_594" data-name="Path 594" d="M6.306,19.855,16.051,27a17.76,17.76,0,0,1,28.3-6.631l8.389-8.389A29.6,29.6,0,0,0,6.306,19.855Z" transform="translate(1.114)" fill="#ff3d00"/>
    <path id="Path_595" data-name="Path 595" d="M32.6,51.7A29.522,29.522,0,0,0,52.486,44l-9.18-7.768a17.75,17.75,0,0,1-27.439-8.18L6.2,35.506A29.637,29.637,0,0,0,32.6,51.7Z" transform="translate(1.06 11.618)" fill="#4caf50"/>
    <path id="Path_596" data-name="Path 596" d="M53.083,20.123H50.694V20H24V31.864H40.763A17.856,17.856,0,0,1,34.7,40.126l0,0,9.18,7.768A28.692,28.692,0,0,0,53.66,25.932,29.862,29.862,0,0,0,53.083,20.123Z" transform="translate(9.66 7.728)" fill="#1976d2"/>
  </g>
</svg>
