<svg xmlns="http://www.w3.org/2000/svg" width="50.929" height="57.04" viewBox="0 0 50.929 57.04">
  <path id="icons8-javascript-logo" d="M55.068,2.4a1.241,1.241,0,0,0-.915-.4H5.7A1.24,1.24,0,0,0,4.469,3.35L8.834,52.24a1.242,1.242,0,0,0,.9,1.083l19.852,5.671a1.249,1.249,0,0,0,.68,0l19.87-5.671a1.242,1.242,0,0,0,.9-1.083L55.388,3.35A1.243,1.243,0,0,0,55.068,2.4ZM13.809,35.485l8.68,2.408V13.16h4.96V45.4l-13.64-3.783ZM46.116,26.8,44.809,41.99l-12.4,3.41V39.695l8.37-2.3.31-4.65-8.68,1.5V13.16h14.88l-.428,4.96H37.369v9.92Z" transform="translate(-4.464 -2)" fill="#f0db4f"/>
</svg>
