<svg xmlns="http://www.w3.org/2000/svg" width="83.284" height="57" viewBox="0 0 83.284 57">
  <path id="Icon_awesome-laravel" data-name="Icon awesome-laravel" d="M82.954,29.223c-.546-.625-8.171-10.162-9.511-11.775s-2-1.327-2.824-1.21-10.474,1.744-11.593,1.926-1.822.638-1.132,1.6c.612.859,6.948,9.85,8.353,11.828l-25.2,6.037L20.98,4.123c-.794-1.184-.963-1.6-2.784-1.509S2.465,3.85,1.476,3.941-.606,4.462.383,6.8,17.168,43.184,17.61,44.173a3.382,3.382,0,0,0,4.268,1.952c2.745-.664,12.27-3.149,17.475-4.515,2.745,4.983,8.353,15.08,9.394,16.525,1.379,1.939,2.342,1.613,4.463.963,1.665-.507,25.971-9.251,27.064-9.694s1.77-.768,1.028-1.874c-.546-.807-6.961-9.394-10.318-13.9,2.3-.612,10.487-2.784,11.359-3.032,1.028-.26,1.171-.755.612-1.379ZM37.127,38.591c-.3.065-14.417,3.448-15.171,3.617s-.755.091-.846-.169S4.325,7.337,4.091,6.908s-.221-.768,0-.768,13.337-1.171,13.792-1.2.416.078.586.364c0,0,18.5,31.93,18.815,32.49C37.622,38.357,37.427,38.526,37.127,38.591ZM76.943,46.06c.221.351.455.586-.26.833s-23.9,8.08-24.345,8.275-.807.26-1.379-.586-8.119-13.9-8.119-13.9L67.405,34.3c.612-.2.807-.325,1.2.286s8.119,11.125,8.34,11.476Zm1.574-17.448c-.546.117-9.576,2.355-9.576,2.355L61.563,20.843c-.208-.3-.377-.586.143-.651s8.9-1.587,9.277-1.665.7-.2,1.171.442S79,27.687,79.246,28s-.182.481-.729.612Z" transform="translate(0.006 -2.602)" fill="#f05240"/>
</svg>
