<svg xmlns="http://www.w3.org/2000/svg" xmlns:xlink="http://www.w3.org/1999/xlink" width="83" height="46.688" viewBox="0 0 83 46.688">
  <defs>
    <clipPath id="clip-path">
      <path id="path3446" d="M14.4-377.4c0,3.809,16.261,6.9,36.32,6.9h0c20.058,0,36.32-3.088,36.32-6.9h0c0-3.809-16.261-6.9-36.32-6.9h0c-20.058,0-36.32,3.088-36.32,6.9" transform="translate(-14.4 384.299)"/>
    </clipPath>
    <radialGradient id="radial-gradient" cx="0.628" cy="0.8" r="1.248" gradientTransform="translate(-0.009 0.511) scale(0.526 1)" gradientUnits="objectBoundingBox">
      <stop offset="0" stop-color="#aeb2d5"/>
      <stop offset="0.3" stop-color="#aeb2d5"/>
      <stop offset="0.75" stop-color="#484c89"/>
      <stop offset="1" stop-color="#484c89"/>
    </radialGradient>
    <clipPath id="clip-path-2">
      <path id="path3470" d="M0-405H83v46.688H0Z" transform="translate(0 405)"/>
    </clipPath>
  </defs>
  <g id="g3438" transform="translate(0 405)">
    <g id="g3440" transform="translate(5.18 -388.553)">
      <g id="g3442" clip-path="url(#clip-path)">
        <g id="g3448">
          <g id="g3450">
            <path id="path3462" d="M14.4-377.4c0,3.809,16.261,6.9,36.32,6.9h0c20.058,0,36.32-3.088,36.32-6.9h0c0-3.809-16.261-6.9-36.32-6.9h0c-20.058,0-36.32,3.088-36.32,6.9" transform="translate(-14.4 384.299)" fill="url(#radial-gradient)"/>
          </g>
        </g>
      </g>
    </g>
    <g id="g3464" transform="translate(0 -405)">
      <g id="g3466" clip-path="url(#clip-path-2)">
        <g id="g3472" transform="translate(3.216 3.942)">
          <path id="path3474" d="M-293.816-297.8c21.143,0,38.284-8.686,38.284-19.4s-17.14-19.4-38.284-19.4-38.284,8.686-38.284,19.4,17.141,19.4,38.284,19.4" transform="translate(332.1 336.602)" fill="#777bb3"/>
        </g>
      </g>
    </g>
    <g id="g3476" transform="translate(0 -405)">
      <g id="g3478" clip-path="url(#clip-path-2)">
        <g id="g3484" transform="translate(13.786 13.645)">
          <path id="path3486" d="M-73.058-92.9a6.354,6.354,0,0,0,3.858-.953,5.155,5.155,0,0,0,1.668-3.221c.274-1.413.17-2.4-.31-2.932s-1.552-.82-3.155-.82h-2.778l-1.54,7.925Zm-9.087,9.763a.432.432,0,0,1-.333-.157.432.432,0,0,1-.091-.357l4.082-21a.432.432,0,0,1,.424-.35h8.8c2.765,0,4.823.751,6.117,2.232s1.7,3.57,1.194,6.185a9.872,9.872,0,0,1-1.058,2.941A9.847,9.847,0,0,1-64.96-91.2a8.541,8.541,0,0,1-3.2,1.92,14.514,14.514,0,0,1-4.4.566h-3.562l-1.017,5.234a.432.432,0,0,1-.424.35Z" transform="translate(82.578 105)"/>
        </g>
        <g id="g3488" transform="translate(13.354 13.213)">
          <path id="path3490" d="M-73.6-38.707h2.422c1.934,0,2.606.424,2.834.677.379.42.45,1.305.207,2.56a4.753,4.753,0,0,1-1.507,2.96,5.959,5.959,0,0,1-3.594.863h-1.734Zm4.154-5.043h-8.8a.865.865,0,0,0-.849.7l-4.082,21a.865.865,0,0,0,.181.715.864.864,0,0,0,.667.315h4.575a.865.865,0,0,0,.849-.7l.949-4.884h3.206a14.936,14.936,0,0,0,4.536-.587A8.973,8.973,0,0,0-64.844-29.2a10.283,10.283,0,0,0,2.029-2.544,10.3,10.3,0,0,0,1.1-3.07c.535-2.753.1-4.957-1.292-6.552-1.379-1.579-3.547-2.38-6.442-2.38M-76.02-30.781h2.783a6.72,6.72,0,0,0,4.121-1.042A5.536,5.536,0,0,0-67.288-35.3q.454-2.341-.414-3.3t-3.476-.963h-3.135l-1.708,8.79m6.576-12.1q3.97,0,5.791,2.084t1.095,5.818a9.4,9.4,0,0,1-1.011,2.813,9.379,9.379,0,0,1-1.862,2.332,8.081,8.081,0,0,1-3.045,1.827,14.025,14.025,0,0,1-4.268.545h-3.919l-1.085,5.584h-4.575l4.082-21h8.8" transform="translate(83.189 43.75)" fill="#fff"/>
        </g>
        <g id="g3492" transform="translate(33.262 8.061)">
          <path id="path3494" d="M-89.3-167.821a.432.432,0,0,1-.333-.157.431.431,0,0,1-.091-.357l1.806-9.293c.172-.884.129-1.518-.119-1.786-.152-.164-.609-.439-1.961-.439h-3.271l-2.27,11.682a.432.432,0,0,1-.424.35h-4.539a.432.432,0,0,1-.334-.157.432.432,0,0,1-.091-.357l4.082-21a.432.432,0,0,1,.424-.35h4.539a.432.432,0,0,1,.334.157.432.432,0,0,1,.091.358l-.985,5.069h3.519c2.681,0,4.5.473,5.558,1.445,1.079.992,1.416,2.578,1,4.715l-1.9,9.773a.432.432,0,0,1-.424.35Z" transform="translate(100.938 189.688)"/>
        </g>
        <g id="g3496" transform="translate(32.83 7.629)">
          <path id="path3498" d="M-72.8,0h-4.539a.865.865,0,0,0-.849.7l-4.082,21a.864.864,0,0,0,.182.715.864.864,0,0,0,.667.315h4.539a.865.865,0,0,0,.849-.7l2.2-11.333h2.915c1.349,0,1.632.288,1.644.3.082.088.189.5.012,1.409L-71.066,21.7a.864.864,0,0,0,.182.715.864.864,0,0,0,.667.315h4.611a.865.865,0,0,0,.849-.7l1.9-9.773c.446-2.294.064-4.015-1.133-5.115-1.142-1.049-3.056-1.559-5.85-1.559h-2.995l.885-4.554a.865.865,0,0,0-.182-.715A.865.865,0,0,0-72.8,0m0,.865-1.085,5.584h4.044q3.816,0,5.265,1.331t.869,4.314l-1.9,9.773h-4.611l1.806-9.293a2.522,2.522,0,0,0-.227-2.163,3.19,3.19,0,0,0-2.277-.577h-3.628l-2.338,12.032h-4.539l4.082-21H-72.8" transform="translate(82.285)" fill="#fff"/>
        </g>
        <g id="g3500" transform="translate(49.496 13.645)">
          <path id="path3502" d="M-73.058-92.9a6.354,6.354,0,0,0,3.858-.953,5.156,5.156,0,0,0,1.668-3.221c.274-1.413.17-2.4-.311-2.932s-1.552-.82-3.155-.82h-2.778l-1.54,7.925Zm-9.087,9.763a.432.432,0,0,1-.333-.157.432.432,0,0,1-.091-.357l4.082-21a.433.433,0,0,1,.425-.35h8.8c2.765,0,4.823.751,6.117,2.232s1.7,3.569,1.194,6.185a9.88,9.88,0,0,1-1.058,2.941A9.847,9.847,0,0,1-64.96-91.2a8.541,8.541,0,0,1-3.2,1.92,14.514,14.514,0,0,1-4.4.566h-3.563l-1.017,5.234a.433.433,0,0,1-.425.35Z" transform="translate(82.578 105)"/>
        </g>
        <g id="g3504" transform="translate(49.063 13.213)">
          <path id="path3506" d="M-73.6-38.707h2.422c1.934,0,2.606.424,2.834.677.379.42.45,1.305.207,2.56a4.753,4.753,0,0,1-1.507,2.961,5.96,5.96,0,0,1-3.594.863H-74.97Zm4.154-5.043h-8.8a.865.865,0,0,0-.849.7l-4.082,21a.865.865,0,0,0,.181.715.864.864,0,0,0,.667.315h4.575a.865.865,0,0,0,.849-.7l.949-4.884h3.206a14.936,14.936,0,0,0,4.536-.587,8.973,8.973,0,0,0,3.366-2.015,10.278,10.278,0,0,0,2.029-2.544,10.3,10.3,0,0,0,1.1-3.07c.535-2.753.1-4.957-1.292-6.552-1.379-1.579-3.547-2.379-6.442-2.379m-6.575,12.969h2.783a6.72,6.72,0,0,0,4.121-1.042A5.535,5.535,0,0,0-67.287-35.3q.454-2.341-.414-3.3t-3.476-.963h-3.135l-1.708,8.79m6.575-12.1q3.97,0,5.791,2.084t1.095,5.818a9.4,9.4,0,0,1-1.011,2.813,9.379,9.379,0,0,1-1.862,2.332,8.081,8.081,0,0,1-3.045,1.827,14.024,14.024,0,0,1-4.268.545h-3.919l-1.085,5.584h-4.575l4.082-21h8.8" transform="translate(83.188 43.75)" fill="#fff"/>
        </g>
      </g>
    </g>
  </g>
</svg>
