<svg xmlns="http://www.w3.org/2000/svg" width="83.28" height="56.55" viewBox="0 0 83.28 56.55">
  <path id="Icon_simple-mysql" data-name="Icon simple-mysql" d="M56.925,11.764a3.829,3.829,0,0,0-.951.115v.045h.049a7.828,7.828,0,0,0,.743.947c.187.371.347.743.534,1.11l.049-.052a1.291,1.291,0,0,0,.486-1.156c-.139-.163-.16-.326-.278-.486-.139-.232-.437-.347-.625-.531Zm-36.9,45.783H16.805c-.1-5.42-.427-10.514-.937-15.3h-.028l-4.893,15.3H8.5l-4.858-15.3H3.609q-.536,6.886-.677,15.3H0Q.286,47.315,1.423,38.358H5.413l4.632,14.1h.028l4.674-14.1h3.8q1.26,10.488,1.485,19.189ZM33.961,43.39q-1.967,10.644-5.177,15.476-2.509,3.727-5.493,3.723a5.416,5.416,0,0,1-1.964-.479V60.4a8.9,8.9,0,0,0,1.339.09,3.235,3.235,0,0,0,2.245-.77,2.8,2.8,0,0,0,1.024-2.1,13.919,13.919,0,0,0-.8-3.276L21.618,43.39h3.158L27.3,51.579a11,11,0,0,1,.711,3.9,52.937,52.937,0,0,0,2.9-12.086h3.054ZM76.729,57.548H67.6V38.358h3.071V55.188h6.055Zm-11.52.468-3.526-1.735a7.453,7.453,0,0,0,.885-.868q2.254-2.634,2.249-7.818,0-9.525-7.478-9.529a7.115,7.115,0,0,0-5.725,2.419q-2.238,2.644-2.242,7.79,0,5.059,1.992,7.426a6.821,6.821,0,0,0,5.493,2.134,8.823,8.823,0,0,0,2.516-.34l4.6,2.679,1.249-2.158Zm-11.423-4.31c-.781-1.249-1.169-3.262-1.169-6.024q0-7.251,4.407-7.252a3.707,3.707,0,0,1,3.39,1.735q1.166,1.884,1.166,5.979,0,7.308-4.407,7.315a3.709,3.709,0,0,1-3.394-1.735Zm-5.753-1.475a5.084,5.084,0,0,1-1.791,4.011,7.035,7.035,0,0,1-4.8,1.561,9.624,9.624,0,0,1-5.458-1.787l.822-1.652A9.31,9.31,0,0,0,40.932,55.5a4.337,4.337,0,0,0,2.717-.763,2.615,2.615,0,0,0,1.041-2.134c0-1.145-.8-2.117-2.249-2.932-1.346-.739-4.036-2.28-4.036-2.28a4.592,4.592,0,0,1-2.193-4.084,4.763,4.763,0,0,1,1.631-3.765,6.147,6.147,0,0,1,4.233-1.44,8.71,8.71,0,0,1,4.858,1.423L46.2,41.18a9.459,9.459,0,0,0-3.692-.8,3.267,3.267,0,0,0-2.269.715,2.376,2.376,0,0,0-.861,1.818c0,1.138.812,2.117,2.311,2.949,1.364.746,4.119,2.325,4.119,2.325a4.517,4.517,0,0,1,2.249,4.053ZM80.587,31.925a10.639,10.639,0,0,0-4.5.652c-.347.139-.9.139-.951.579.191.184.219.486.382.743a5.324,5.324,0,0,0,1.2,1.412c.486.382.972.75,1.482,1.076.9.555,1.926.885,2.811,1.444.5.326,1.017.739,1.527,1.086.253.174.416.486.743.6v-.069c-.16-.208-.208-.51-.364-.743-.232-.232-.465-.441-.694-.67A11.184,11.184,0,0,0,79.81,35.69c-.743-.507-2.367-1.214-2.672-2.065l-.045-.049a9.337,9.337,0,0,0,1.6-.368c.788-.208,1.509-.163,2.325-.368.368-.094.739-.208,1.11-.326v-.208c-.416-.416-.729-.982-1.159-1.371a30.77,30.77,0,0,0-3.831-2.856c-.729-.465-1.652-.763-2.419-1.159-.278-.139-.743-.208-.9-.441A8.947,8.947,0,0,1,72.86,24.7c-.666-1.277-1.319-2.689-1.9-4.036a24.029,24.029,0,0,0-1.18-2.648,23.379,23.379,0,0,0-8.973-8.675,11.3,11.3,0,0,0-2.97-.951c-.579-.028-1.159-.069-1.735-.094a8.419,8.419,0,0,1-1.076-.815c-1.319-.833-4.733-2.637-5.7-.25-.625,1.506.926,2.991,1.464,3.755a10.7,10.7,0,0,1,1.18,1.735c.163.4.208.815.371,1.235a27.768,27.768,0,0,0,1.2,3.113A10.642,10.642,0,0,0,54.4,18.5c.187.253.507.371.579.788a6.755,6.755,0,0,0-.534,1.735,10.279,10.279,0,0,0,.673,7.807c.371.576,1.256,1.853,2.439,1.364,1.041-.416.812-1.735,1.11-2.9.069-.278.024-.462.167-.649V26.7c.326.652.652,1.273.951,1.926a13.056,13.056,0,0,0,3.008,3.106c.555.416,1,1.138,1.69,1.395v-.069h-.052a3.1,3.1,0,0,0-.534-.462,11.953,11.953,0,0,1-1.215-1.388A30.4,30.4,0,0,1,60.09,26.98c-.382-.729-.7-1.513-1.006-2.231-.139-.278-.139-.694-.371-.833a8.563,8.563,0,0,0-1.11,1.572,13.257,13.257,0,0,0-.652,3.5c-.094.024-.049,0-.094.049-.743-.18-1-.951-1.273-1.6a10.072,10.072,0,0,1-.208-6.194c.163-.486.857-2.02.579-2.485-.146-.441-.6-.694-.857-1.051a8.6,8.6,0,0,1-.833-1.482c-.555-1.3-.833-2.734-1.437-4.032a12.018,12.018,0,0,0-1.159-1.78,11.676,11.676,0,0,1-1.277-1.8c-.115-.253-.278-.673-.094-.951a.4.4,0,0,1,.326-.312c.305-.25,1.162.076,1.464.215a11.867,11.867,0,0,1,2.3,1.159c.326.229.677.67,1.093.784h.486c.743.163,1.579.049,2.273.253a14.848,14.848,0,0,1,3.338,1.6,20.657,20.657,0,0,1,7.235,7.932c.278.534.4,1.024.652,1.579.486,1.145,1.086,2.3,1.579,3.408a15.109,15.109,0,0,0,1.652,3.113c.347.486,1.742.739,2.367.992a16.857,16.857,0,0,1,1.6.652c.8.486,1.575,1.041,2.325,1.575.382.264,1.537.843,1.607,1.312Z" transform="translate(0 -6.039)"/>
</svg>
