<svg xmlns="http://www.w3.org/2000/svg" width="50.536" height="57" viewBox="0 0 50.536 57">
  <path id="Icon_awesome-node-js" data-name="Icon awesome-node-js" d="M25.306,57.285a4.43,4.43,0,0,1-2.194-.588l-6.979-4.128c-1.041-.588-.532-.792-.192-.9A13.747,13.747,0,0,0,19.1,50.227a.51.51,0,0,1,.52.045l5.361,3.178a.655.655,0,0,0,.645,0L46.513,41.393a.67.67,0,0,0,.317-.566V16.713a.674.674,0,0,0-.328-.577L25.623,4.091a.655.655,0,0,0-.645,0L4.11,16.148a.66.66,0,0,0-.328.577v24.1a.624.624,0,0,0,.328.554l5.723,3.3c3.11,1.55,5.011-.271,5.011-2.115v-23.8a.6.6,0,0,1,.611-.6H18.1a.606.606,0,0,1,.611.6V42.581c0,4.14-2.262,6.515-6.187,6.515-1.21,0-2.16,0-4.807-1.312L2.243,44.628A4.4,4.4,0,0,1,.049,40.816v-24.1A4.412,4.412,0,0,1,2.243,12.9L23.112.845a4.58,4.58,0,0,1,4.389,0L48.391,12.913a4.4,4.4,0,0,1,2.194,3.812v24.1a4.426,4.426,0,0,1-2.194,3.812L27.5,56.7A4.4,4.4,0,0,1,25.306,57.285ZM42.17,33.521c0-4.513-3.054-5.712-9.467-6.56-6.492-.86-7.148-1.3-7.148-2.816,0-1.255.554-2.929,5.361-2.929,4.287,0,5.87.927,6.526,3.823a.606.606,0,0,0,.588.475h2.715a.59.59,0,0,0,.441-.192.63.63,0,0,0,.158-.464c-.418-4.988-3.733-7.307-10.428-7.307-5.961,0-9.512,2.511-9.512,6.73,0,4.57,3.54,5.836,9.252,6.4,6.843.667,7.375,1.674,7.375,3.02,0,2.33-1.878,3.325-6.277,3.325-5.531,0-6.741-1.391-7.148-4.14a.6.6,0,0,0-.6-.509H21.3a.6.6,0,0,0-.6.6c0,3.518,1.911,7.714,11.062,7.714,6.605-.011,10.406-2.624,10.406-7.171Z" transform="translate(-0.049 -0.285)" fill="#3c8639"/>
</svg>
