<svg xmlns="http://www.w3.org/2000/svg" width="60.419" height="60.418" viewBox="0 0 60.419 60.418">
  <g id="python-icon" transform="translate(-4.563 -5)">
    <path id="Path_591" data-name="Path 591" d="M35.542,5a34.167,34.167,0,0,0-6.258.584c-6.118,1.065-7.233,3.3-7.233,7.425v6.3H36.361v3.18H14.591c-4.191,0-7.859,1.975-9.021,6.708a26.627,26.627,0,0,0,0,14.508c1.041,4.231,3.336,7.4,7.528,7.4h5.775V42.993c0-4.716,4.271-9.374,9.164-9.374h11.5c4.011,0,7.95-2.96,7.95-6.959V13.009c0-3.878-2.8-6.778-6.706-7.428A27.054,27.054,0,0,0,35.542,5Zm-7.924,6.36a2.385,2.385,0,1,1,0,4.77,2.385,2.385,0,1,1,0-4.77Z" transform="translate(0 0)" fill="#0277bd"/>
    <path id="Path_592" data-name="Path 592" d="M27.512,60.108a34.167,34.167,0,0,0,6.258-.584C39.888,58.46,41,56.223,41,52.1V45.8H26.693v-3.18H48.464c4.191,0,7.859-1.975,9.021-6.708a26.627,26.627,0,0,0,0-14.508c-1.043-4.231-3.337-7.4-7.53-7.4H44.181v8.115c0,4.716-4.271,9.374-9.164,9.374h-11.5c-4.011,0-7.95,2.96-7.95,6.959V52.1c0,3.878,2.8,6.778,6.706,7.428A27.054,27.054,0,0,0,27.512,60.108Zm7.926-6.36a2.385,2.385,0,1,1,0-4.77,2.385,2.385,0,1,1,0,4.77Z" transform="translate(6.489 5.31)" fill="#ffc107"/>
  </g>
</svg>
