<svg xmlns="http://www.w3.org/2000/svg" width="65.139" height="57" viewBox="0 0 65.139 57">
  <path id="Icon_awesome-react" data-name="Icon awesome-react" d="M53.206,20.722q-1.031-.344-2.061-.649c.115-.471.216-.941.318-1.412C53.028,11.079,52,4.985,48.524,2.974c-3.346-1.921-8.8.076-14.326,4.885-.547.471-1.081.967-1.59,1.463-.344-.331-.7-.662-1.056-.98-5.789-5.14-11.59-7.3-15.063-5.28C13.155,5,12.163,10.735,13.562,17.911c.14.712.293,1.412.471,2.125-.814.229-1.616.483-2.366.751C4.873,23.14,0,26.855,0,30.7c0,3.969,5.191,7.952,12.252,10.369.573.191,1.145.382,1.73.547-.191.763-.356,1.514-.509,2.29-1.336,7.061-.293,12.659,3.041,14.58,3.435,1.985,9.211-.051,14.834-4.975.445-.394.891-.8,1.336-1.234.56.547,1.145,1.069,1.73,1.578,5.445,4.682,10.827,6.578,14.147,4.656,3.435-1.985,4.555-8,3.1-15.331q-.172-.84-.382-1.718c.407-.115.8-.242,1.2-.369,7.341-2.43,12.659-6.361,12.659-10.394C65.139,26.842,60.127,23.1,53.206,20.722ZM35.992,9.921C40.725,5.8,45.14,4.183,47.15,5.341c2.15,1.234,2.977,6.221,1.628,12.773-.089.433-.178.852-.293,1.272a65.129,65.129,0,0,0-8.562-1.349,64.28,64.28,0,0,0-5.42-6.756c.5-.471.98-.916,1.489-1.361ZM21.272,37.3c.649,1.107,1.31,2.214,2.01,3.3a57.609,57.609,0,0,1-5.9-.954,59.432,59.432,0,0,1,2.074-5.662c.585,1.12,1.183,2.226,1.819,3.321ZM17.417,21.995c1.832-.407,3.779-.738,5.8-.992-.674,1.056-1.336,2.137-1.959,3.232s-1.234,2.188-1.807,3.308C18.651,25.646,17.977,23.789,17.417,21.995ZM20.9,30.76c.84-1.756,1.756-3.473,2.723-5.165s2.01-3.333,3.1-4.949c1.908-.14,3.855-.216,5.84-.216s3.944.076,5.84.216q1.622,2.4,3.092,4.924t2.761,5.14q-1.279,2.634-2.748,5.191c-.967,1.692-2,3.333-3.079,4.962-1.9.14-3.868.2-5.865.2s-3.931-.064-5.8-.178q-1.66-2.424-3.13-4.962c-.98-1.692-1.883-3.41-2.735-5.165ZM43.88,37.274c.649-1.12,1.26-2.252,1.857-3.4a59.058,59.058,0,0,1,2.15,5.636,55.881,55.881,0,0,1-5.98,1.018C42.6,39.463,43.244,38.369,43.88,37.274Zm1.832-9.733c-.6-1.12-1.209-2.239-1.845-3.333S42.6,22.058,41.921,21a58.546,58.546,0,0,1,5.84,1.018A56.3,56.3,0,0,1,45.712,27.542ZM32.6,13.229a55.867,55.867,0,0,1,3.766,4.555c-2.519-.115-5.051-.115-7.57,0C30.038,16.142,31.323,14.616,32.6,13.229ZM17.837,5.43c2.137-1.247,6.883.534,11.883,4.962.318.28.636.585.967.891a64.637,64.637,0,0,0-5.458,6.756,67.064,67.064,0,0,0-8.55,1.323c-.165-.649-.305-1.31-.445-1.972-1.2-6.158-.407-10.8,1.6-11.959ZM14.72,38.967c-.534-.153-1.056-.318-1.578-.5A25.948,25.948,0,0,1,5.127,34.5a5.709,5.709,0,0,1-2.392-3.8c0-2.328,4.02-5.305,9.822-7.328.725-.254,1.463-.483,2.2-.7a67.651,67.651,0,0,0,3.117,8.092,69.545,69.545,0,0,0-3.155,8.206ZM29.554,51.435a23.286,23.286,0,0,1-7.176,4.491,5.631,5.631,0,0,1-4.491.165c-2.023-1.17-2.863-5.662-1.718-11.7.14-.712.293-1.425.471-2.125a63.648,63.648,0,0,0,8.639,1.247,67.141,67.141,0,0,0,5.5,6.794C30.369,50.7,29.962,51.078,29.554,51.435Zm3.117-3.092c-1.3-1.4-2.6-2.952-3.855-4.618,1.221.051,2.481.076,3.753.076,1.31,0,2.6-.025,3.868-.089a54.867,54.867,0,0,1-3.766,4.631ZM49.3,52.16a5.654,5.654,0,0,1-2.1,3.982c-2.023,1.17-6.336-.356-10.992-4.351-.534-.458-1.069-.954-1.616-1.463a62.937,62.937,0,0,0,5.369-6.819,62.718,62.718,0,0,0,8.677-1.336c.127.522.242,1.043.344,1.552A23.192,23.192,0,0,1,49.3,52.16Zm2.316-13.677c-.356.115-.712.229-1.081.331A64.63,64.63,0,0,0,47.29,30.7a64.308,64.308,0,0,0,3.117-8c.662.191,1.3.394,1.908.6C58.244,25.328,62.4,28.356,62.4,30.671c0,2.494-4.44,5.712-10.789,7.812ZM32.57,36.575a5.827,5.827,0,1,0-5.827-5.827A5.826,5.826,0,0,0,32.57,36.575Z" transform="translate(0 -2.251)" fill="#61dbfb"/>
</svg>
