<svg xmlns="http://www.w3.org/2000/svg" width="86.212" height="75.446" viewBox="0 0 86.212 75.446">
  <path id="Icon_awesome-react" data-name="Icon awesome-react" d="M70.42,26.7q-1.365-.455-2.728-.859c.152-.623.286-1.245.421-1.869,2.071-10.035.711-18.1-3.89-20.762-4.429-2.543-11.647.1-18.961,6.465-.724.623-1.431,1.28-2.1,1.936-.455-.438-.926-.876-1.4-1.3C34.1,3.51,26.42.651,21.824,3.325,17.411,5.89,16.1,13.48,17.95,22.978c.185.942.388,1.869.623,2.813-1.077.3-2.139.639-3.131.994C6.45,29.9,0,34.815,0,39.9c0,5.253,6.87,10.525,16.216,13.724.758.253,1.515.506,2.29.724-.253,1.01-.471,2-.674,3.031-1.768,9.345-.388,16.755,4.025,19.3C26.4,79.307,34.048,76.613,41.49,70.1c.589-.521,1.179-1.059,1.768-1.633.741.724,1.515,1.415,2.29,2.089,7.207,6.2,14.33,8.706,18.724,6.162,4.546-2.627,6.029-10.588,4.1-20.291q-.228-1.112-.506-2.274c.539-.152,1.059-.32,1.588-.488,9.716-3.216,16.755-8.419,16.755-13.757C86.214,34.8,79.58,29.846,70.42,26.7ZM47.637,12.4C53.9,6.948,59.744,4.808,62.4,6.341c2.846,1.633,3.94,8.234,2.155,16.906-.118.573-.236,1.128-.388,1.684A86.2,86.2,0,0,0,52.84,23.145,85.077,85.077,0,0,0,45.666,14.2c.662-.623,1.3-1.212,1.971-1.8ZM28.154,48.64c.859,1.465,1.734,2.93,2.66,4.368a76.252,76.252,0,0,1-7.809-1.263,78.66,78.66,0,0,1,2.745-7.494c.774,1.482,1.566,2.946,2.408,4.4Zm-5.1-20.257c2.425-.539,5-.977,7.677-1.313-.892,1.4-1.768,2.828-2.593,4.278s-1.633,2.9-2.392,4.378C24.685,33.215,23.793,30.758,23.052,28.383Zm4.61,11.6c1.112-2.324,2.324-4.6,3.6-6.836s2.66-4.411,4.1-6.55c2.525-.185,5.1-.286,7.729-.286s5.22.1,7.729.286q2.147,3.176,4.092,6.517t3.654,6.8q-1.693,3.486-3.637,6.87c-1.28,2.239-2.647,4.411-4.075,6.567-2.515.185-5.119.265-7.763.265s-5.2-.085-7.677-.236q-2.2-3.208-4.143-6.567c-1.3-2.239-2.492-4.513-3.62-6.836Zm30.415,8.622c.859-1.482,1.668-2.981,2.458-4.5a78.159,78.159,0,0,1,2.846,7.459,73.964,73.964,0,0,1-7.915,1.347C56.383,51.5,57.235,50.055,58.077,48.605ZM60.5,35.723c-.794-1.482-1.6-2.963-2.442-4.411s-1.677-2.846-2.576-4.246a77.489,77.489,0,0,1,7.729,1.347A74.517,74.517,0,0,1,60.5,35.725ZM43.147,16.781a73.938,73.938,0,0,1,4.984,6.029c-3.334-.152-6.685-.152-10.019,0C39.756,20.636,41.457,18.617,43.147,16.781ZM23.608,6.459c2.828-1.65,9.11.707,15.728,6.567.421.371.842.774,1.28,1.179a85.55,85.55,0,0,0-7.224,8.942A88.762,88.762,0,0,0,22.075,24.9c-.218-.859-.4-1.734-.589-2.61C19.9,14.138,20.948,7.994,23.6,6.46ZM19.482,50.846c-.707-.2-1.4-.421-2.089-.662a34.343,34.343,0,0,1-10.608-5.25A7.556,7.556,0,0,1,3.62,39.9c0-3.081,5.321-7.021,13-9.7.96-.336,1.936-.639,2.912-.926a89.539,89.539,0,0,0,4.125,10.71A92.049,92.049,0,0,0,19.481,50.85Zm19.633,16.5a30.82,30.82,0,0,1-9.5,5.944,7.453,7.453,0,0,1-5.944.218C21,71.962,19.885,66.017,21.4,58.025c.185-.942.388-1.886.623-2.813a84.24,84.24,0,0,0,11.434,1.65,88.866,88.866,0,0,0,7.279,8.992C40.194,66.375,39.656,66.875,39.116,67.348Zm4.125-4.092a77.887,77.887,0,0,1-5.1-6.112c1.616.068,3.284.1,4.967.1,1.734,0,3.441-.033,5.119-.118a72.618,72.618,0,0,1-4.984,6.129ZM65.25,68.308a7.483,7.483,0,0,1-2.779,5.27c-2.678,1.549-8.386-.471-14.548-5.759-.707-.606-1.415-1.263-2.139-1.936a83.3,83.3,0,0,0,7.106-9.025,83.009,83.009,0,0,0,11.484-1.768c.168.691.32,1.38.455,2.054a30.7,30.7,0,0,1,.421,11.164Zm3.065-18.1c-.471.152-.942.3-1.431.438A85.539,85.539,0,0,0,62.59,39.9a85.112,85.112,0,0,0,4.125-10.588c.876.253,1.721.521,2.525.794,7.847,2.684,13.348,6.692,13.348,9.756,0,3.3-5.876,7.56-14.28,10.339ZM43.108,47.68A7.712,7.712,0,1,0,35.4,39.968a7.712,7.712,0,0,0,7.712,7.712Z" transform="translate(0 -2.25)" fill="#61dbfb"/>
</svg>
