<svg id="Group_76" data-name="Group 76" xmlns="http://www.w3.org/2000/svg" xmlns:xlink="http://www.w3.org/1999/xlink" width="519.355" height="283.265" viewBox="0 0 519.355 283.265">
  <defs>
    <linearGradient id="linear-gradient" x1="0.409" y1="0.938" x2="0.409" y2="0.047" gradientUnits="objectBoundingBox">
      <stop offset="0" stop-color="gray" stop-opacity="0.251"/>
      <stop offset="0.54" stop-color="gray" stop-opacity="0.122"/>
      <stop offset="1" stop-color="gray" stop-opacity="0.102"/>
    </linearGradient>
    <linearGradient id="linear-gradient-2" x1="0.493" y1="1.008" x2="0.493" y2="-0.026" xlink:href="#linear-gradient"/>
  </defs>
  <path id="Path_482" data-name="Path 482" d="M231.9,438.066c-12.245,5.66-23.535,13.435-36.3,17.79-15.535,5.3-32.31,5.245-48.725,5.125l-66.235-.465a102.33,102.33,0,0,0,63.875,48.89c10.5,2.615,21.715,3.64,30.975,9.255,11.54,7,18.38,20.16,30.11,26.825,12.93,7.34,29,5.36,43.41,9,18.785,4.715,34.5,18.9,53.66,21.685,18.53,2.7,36.6-5.675,54.555-10.96,64.15-18.88,133.455,1.285,199.67-8.05,2.545-.36,5.255-.845,7.095-2.635,2.365-2.3,2.56-6,2.09-9.285-2.36-16.37-17.085-28.4-32.525-34.335-32.895-12.64-69.85-4.7-104.795-9.25-24-3.13-46.83-12.14-69.35-21.075-23.58-9.355-47.53-18.535-69.875-30.64C266.82,437.616,259.455,425.346,231.9,438.066Z" transform="translate(-80.64 -299.716)" fill="#6c63ff" opacity="0.1"/>
  <path id="Path_483" data-name="Path 483" d="M796.74,613.66s1,15-1,17.5c0,0,44,8,49.5,5.5s3-6.5,0-8-18-7-20-17.5c0,0,6.5-3-14.5,1S796.74,613.66,796.74,613.66Z" transform="translate(-438.13 -388.41)" fill="#dc9ba3"/>
  <path id="Path_484" data-name="Path 484" d="M796.74,613.66s1,15-1,17.5c0,0,44,8,49.5,5.5s3-6.5,0-8-18-7-20-17.5c0,0,6.5-3-14.5,1S796.74,613.66,796.74,613.66Z" transform="translate(-438.13 -388.41)" opacity="0.05"/>
  <path id="Path_485" data-name="Path 485" d="M359.18,199.48l-.19.09a61.685,61.685,0,0,0-23,18.735c-3.41,4.5-7.6,8.79-11.585,9.5-8.85,1.56-73.925,69.24-58.305,132.23s106.745,65.59,106.745,65.59,19.38,3.285,30.5,9.855a20.57,20.57,0,0,0,17.375,1.67c13.24-4.71,35-11.54,44.81-9.44,14.575,3.125,139.5-48.935,139.5-48.935s-52.06-50-128.585-48.935c0,0-120.775-84.335-116.61-119.215Z" transform="translate(-172.165 -183.11)" fill="#6c63ff"/>
  <path id="Path_486" data-name="Path 486" d="M359.18,199.48l-.19.09a61.685,61.685,0,0,0-23,18.735c-3.41,4.5-7.6,8.79-11.585,9.5-8.85,1.56-73.925,69.24-58.305,132.23s106.745,65.59,106.745,65.59,19.38,3.285,30.5,9.855a20.57,20.57,0,0,0,17.375,1.67c13.24-4.71,35-11.54,44.81-9.44,14.575,3.125,139.5-48.935,139.5-48.935s-52.06-50-128.585-48.935c0,0-120.775-84.335-116.61-119.215Z" transform="translate(-172.165 -183.11)" opacity="0.1"/>
  <path id="Path_487" data-name="Path 487" d="M366.046,199.24l-12.5,12s-9.5,18.5-18,20-71,66.5-56,127,102.5,63,102.5,63,18.21,3.085,28.925,9.26a20.81,20.81,0,0,0,17.355,1.7c12.745-4.5,33.39-10.955,42.715-8.955,14,3,134-47,134-47s-50-48-123.5-47c0,0-116-81-112-114.5Z" transform="translate(-178.936 -182.99)" fill="#6c63ff"/>
  <ellipse id="Ellipse_130" data-name="Ellipse 130" cx="39.43" cy="71.78" rx="39.43" ry="71.78" transform="translate(141.36 134.525) rotate(-45)" opacity="0.1"/>
  <path id="Path_488" data-name="Path 488" d="M454.86,326.24s5.5,9,2,26.5,9,17.5,9,17.5h25l8.5-22-12,1s-8-2-4.5-20.5Z" transform="translate(-267.75 -246.49)" fill="#ffd2d9"/>
  <path id="Path_489" data-name="Path 489" d="M550.6,268.208c-3.825,12.175-8.62,27-11.18,34.91l-1.82,5.59-16.5-17s.725-1.685,1.81-4.045c2.415-5.23,6.62-13.765,8.69-14.455,0,0-23-1.5-30,4s-5-15-5-15,13.5-1,18.5-4,32-6,32-6S556.1,250.708,550.6,268.208Z" transform="translate(-288.486 -209.458)" fill="#ffd2d9"/>
  <path id="Path_490" data-name="Path 490" d="M423.86,569.426s42.5-19.5,57.5-16.5" transform="translate(-252.25 -359.676)" opacity="0.1"/>
  <path id="Path_491" data-name="Path 491" d="M336.86,494.174s51.5-2,79.5,16" transform="translate(-208.75 -330.424)" opacity="0.1"/>
  <path id="Path_492" data-name="Path 492" d="M387.86,528s40.5-10,62-6.5" transform="translate(-234.25 -343.747)" opacity="0.1"/>
  <path id="Path_493" data-name="Path 493" d="M873.36,576.24l-3.5,25.5-9-1s-.545-.5-1.47-1.34c-2.425-2.135-7.47-6.32-12.3-8.6a15.072,15.072,0,0,0-5.23-1.56l10-15a55.252,55.252,0,0,0,7.465,2.21,36.032,36.032,0,0,0,8.04.95A14.676,14.676,0,0,0,873.36,576.24Z" transform="translate(-461.25 -370.49)" fill="#ffd2d9"/>
  <path id="Path_494" data-name="Path 494" d="M700.6,526.471c-4.5,4-25-4.5-28.5,8.5l-3.22-12.33L658.965,484.7l-1.365-5.225-8.26-.355-94.79-4.045-5.38-.22-2.83-.12,3.755-1.86,25-12.39s9-.63,21.425-2.335h0c18.83-2.58,45.5-7.625,60.56-16.66,25-15,34.5,35.5,34.5,35.5s3.8,12.815,6.7,25.44a142.463,142.463,0,0,1,3,16.53C701.705,522.8,701.575,525.606,700.6,526.471Z" transform="translate(-313.49 -302.721)" fill="#e9e9ef"/>
  <path id="Path_495" data-name="Path 495" d="M702.11,526.461c-4.5,4-25-4.5-28.5,8.5l-3.22-12.33-9.915-37.945-1.365-5.225-8.5-.5-91.6-5.655-5.655-.35-1.74-.105-2.255-.14,27.25-12.25s9-.63,21.425-2.335h0c18.83-2.58,45.5-7.625,60.56-16.66,25-15,34.5,35.5,34.5,35.5s3.8,12.815,6.7,25.44a142.489,142.489,0,0,1,3,16.53C703.215,522.791,703.085,525.6,702.11,526.461Z" transform="translate(-315 -302.711)" opacity="0.05"/>
  <path id="Path_496" data-name="Path 496" d="M859.31,576.45l-8.75,10.26-3.5,4.09a15.072,15.072,0,0,0-5.23-1.56l10-15a55.246,55.246,0,0,0,7.48,2.21Z" transform="translate(-461.235 -370.49)" opacity="0.1"/>
  <path id="Path_497" data-name="Path 497" d="M693,527.219l-9.785,11.47-4.715,5.53v1.5c-5.77,1.33-23.755-2.46-27.72-3.33-.5-.105-.78-.17-.78-.17-11.5.5-54-24.5-54-24.5s-46.5,8-69,6c-12.565-1.12-16.085-5.665-16.745-9.465a9.86,9.86,0,0,1,.745-5.535l20.07-14.12,2.665-1.875,4.255-3s7.4-1.675,16.79-3.75h0c14.675-3.235,34.235-7.44,38.2-7.745,6.5-.5,23,5,32.5,16a28.079,28.079,0,0,0,5.5,4.5l.26.17c2.67,1.77,5.96,3.655,9.625,5.58,12.1,6.375,28.24,13.22,39.335,17.715C687.774,525.239,693,527.219,693,527.219Z" transform="translate(-295.389 -322.469)" fill="#e9e9ef"/>
  <path id="Path_498" data-name="Path 498" d="M890.89,578.24l-3.5,25.5-9-1s-.545-.5-1.47-1.34c2,.045,5.28-.53,5.97-4.66,0,0-3.465-12.125,2-17.34A14.675,14.675,0,0,0,890.89,578.24Z" transform="translate(-478.78 -372.49)" opacity="0.1"/>
  <path id="Path_499" data-name="Path 499" d="M883.355,595.74s-5-17.5,6.5-19.5l19,7.5,22,1.5s5.745,9.38-3.465,19.88a28.285,28.285,0,0,1-20,9.5l-24.04,1.125-7.5-15.5S882.355,601.74,883.355,595.74Z" transform="translate(-478.245 -371.49)" fill="#dc9ba3"/>
  <path id="Path_500" data-name="Path 500" d="M578.439,477.57c-2.5.735-12.94,3.85-23.62,8.08h0a131.562,131.562,0,0,0-15.39,7.1c-1.035.58-2,1.165-2.95,1.755a25.452,25.452,0,0,0-6.45,5.4c-6.17,8-15.235,12.28-19.745,14.035a9.861,9.861,0,0,1,.745-5.535l20.055-14.115-2.83-.12,3.755-1.86-2.255-.14L557,479.915S566.019,479.285,578.439,477.57Z" transform="translate(-295.404 -322.155)" opacity="0.1"/>
  <path id="Path_501" data-name="Path 501" d="M564.18,338.6l-1.82,5.59-16.5-17s.725-1.685,1.81-4.045C549.755,327.575,559.715,335.29,564.18,338.6Z" transform="translate(-313.25 -244.945)" opacity="0.1"/>
  <path id="Path_502" data-name="Path 502" d="M427.293,345.955A29.073,29.073,0,0,1,426,340.74l-21.5,7.5s-14.75,11.25-13.25,35.75c0,0,18.25-6.75,26.25,1.25l.165,1.41a65,65,0,0,0,17.625,37.19c4,4.175,7.725,8.885,9.71,13.4,0,0,14-4,22.5-15s49-22.5,49-22.5-21.5.5-24.5-7-13-23.5-9.5-36,5.5-16.5,5.5-16.5-20.5-14.5-19-19l-13,15-6,2a9.6,9.6,0,0,1,.7,3.655C451.028,355.49,431.848,358.76,427.293,345.955Z" transform="translate(-235.893 -243.99)" fill="#cedad5"/>
  <path id="Path_503" data-name="Path 503" d="M212.923,496s4.19,5.5-1.935,13.75-11.175,15.255-9.13,20.415c0,0,9.24-15.365,16.76-15.58S221.2,505.255,212.923,496Z" transform="translate(-141.018 -331.37)" fill="#6c63ff"/>
  <path id="Path_504" data-name="Path 504" d="M213.16,496a6.784,6.784,0,0,1,.855,1.72c7.34,8.62,11.245,16.665,4.195,16.87-6.57.19-14.45,11.935-16.34,14.905a6.373,6.373,0,0,0,.225.675s9.24-15.365,16.76-15.58S221.435,505.255,213.16,496Z" transform="translate(-141.255 -331.37)" opacity="0.1"/>
  <path id="Path_505" data-name="Path 505" d="M239,508.774c0,1.93-.215,3.5-.5,3.5s-.5-1.565-.5-3.5.27-1,.535-1S239,506.844,239,508.774Z" transform="translate(-159.32 -337.144)" fill="#ffd037"/>
  <path id="Path_506" data-name="Path 506" d="M242.066,513.29c-1.695.925-3.17,1.5-3.295,1.245s1.14-1.175,2.835-2.095,1.025-.25,1.155,0S243.761,512.365,242.066,513.29Z" transform="translate(-159.701 -339.355)" fill="#ffd037"/>
  <path id="Path_507" data-name="Path 507" d="M170.777,496s-4.19,5.5,1.935,13.75,11.175,15.255,9.13,20.415c0,0-9.24-15.365-16.76-15.58S162.507,505.255,170.777,496Z" transform="translate(-121.007 -331.37)" fill="#6c63ff"/>
  <path id="Path_508" data-name="Path 508" d="M170.777,496a6.785,6.785,0,0,0-.855,1.72c-7.34,8.62-11.245,16.665-4.2,16.87,6.57.19,14.45,11.935,16.34,14.905a6.369,6.369,0,0,1-.225.675s-9.24-15.365-16.76-15.58S162.507,505.255,170.777,496Z" transform="translate(-121.007 -331.37)" opacity="0.1"/>
  <path id="Path_509" data-name="Path 509" d="M164.6,508.774c0,1.93.215,3.5.5,3.5s.5-1.565.5-3.5-.27-1-.535-1S164.6,506.844,164.6,508.774Z" transform="translate(-122.62 -337.144)" fill="#ffd037"/>
  <path id="Path_510" data-name="Path 510" d="M158.227,513.29c1.7.925,3.17,1.5,3.295,1.245s-1.14-1.175-2.835-2.095-1.025-.25-1.155,0S156.532,512.365,158.227,513.29Z" transform="translate(-118.917 -339.355)" fill="#ffd037"/>
  <path id="Path_511" data-name="Path 511" d="M167.27,556.6s11.715-.36,15.245-2.875,18-5.5,18.9-1.5,17.6,20.055,4.38,20.16-30.73-2.06-34.255-4.2S167.27,556.6,167.27,556.6Z" transform="translate(-123.955 -358.507)" fill="#a8a8a8"/>
  <path id="Path_512" data-name="Path 512" d="M206.035,577.32c-13.225.105-30.73-2.06-34.255-4.205-2.685-1.635-3.755-7.5-4.11-10.2h-.39s.74,9.45,4.265,11.595,21.03,4.315,34.255,4.205c3.82-.03,5.135-1.39,5.065-3.4C210.33,576.535,208.875,577.3,206.035,577.32Z" transform="translate(-123.96 -364.825)" opacity="0.2"/>
  <path id="Path_513" data-name="Path 513" d="M335.958,685.93a5.835,5.835,0,0,0,1.915-2.89,2.565,2.565,0,0,0-1.34-2.945c-1.23-.47-2.545.38-3.54,1.245s-2.14,1.845-3.445,1.66a5.24,5.24,0,0,0,1.62-4.9,2.05,2.05,0,0,0-.45-1c-.685-.73-1.92-.415-2.74.16-2.6,1.83-3.325,5.36-3.34,8.54a16.373,16.373,0,0,1-.05-3.5,3.613,3.613,0,0,0-1.32-3.11,4,4,0,0,0-2-.475,4.164,4.164,0,0,0-3.27.93,3.216,3.216,0,0,0,.13,4,13.014,13.014,0,0,0,3.385,2.71,7.5,7.5,0,0,1,2.42,2.3,2.289,2.289,0,0,1,.18.41h7.315a20.415,20.415,0,0,0,4.53-3.135Z" transform="translate(-198.998 -421.705)" fill="#6c63ff"/>
  <path id="Path_514" data-name="Path 514" d="M400.958,717.74a5.835,5.835,0,0,0,1.915-2.89,2.565,2.565,0,0,0-1.34-2.945c-1.23-.47-2.545.38-3.54,1.245s-2.14,1.845-3.445,1.66a5.24,5.24,0,0,0,1.62-4.905,2.05,2.05,0,0,0-.45-1c-.685-.73-1.92-.415-2.74.16-2.6,1.83-3.325,5.36-3.34,8.54a16.371,16.371,0,0,1-.05-3.5,3.613,3.613,0,0,0-1.32-3.11,4,4,0,0,0-2-.475,4.164,4.164,0,0,0-3.27.93,3.216,3.216,0,0,0,.13,4,13.015,13.015,0,0,0,3.385,2.71,7.5,7.5,0,0,1,2.42,2.305,2.284,2.284,0,0,1,.18.41h7.315a20.411,20.411,0,0,0,4.53-3.135Z" transform="translate(-231.498 -437.61)" fill="#6c63ff"/>
  <path id="Path_515" data-name="Path 515" d="M499.36,566.547s48.5-20,88-1l-9.5,20-45.5,1Z" transform="translate(-290 -362.047)" fill="#6c63ff"/>
  <path id="Path_516" data-name="Path 516" d="M482.1,336.31a51.819,51.819,0,0,1,.76-5.57l-28-2.5s1.94,1.675,2.785,7.925c3.285,1.95,7.12,4.575,11.215,4.575A21.9,21.9,0,0,0,482.1,336.31Z" transform="translate(-267.75 -247.49)" opacity="0.1"/>
  <circle id="Ellipse_131" data-name="Ellipse 131" cx="22" cy="22" r="22" transform="translate(179.36 48.5)" fill="#ffd2d9"/>
  <path id="Path_517" data-name="Path 517" d="M440.546,282.138h3v-8.5l3-9s15-7,22-5.5l5.5,5s1.5-12-7.5-16.5-25-2.5-29,1-10.5,9.5-5.5,26l1.5,4S439.546,276.638,440.546,282.138Z" transform="translate(-255.436 -205.888)" fill="#844f6e"/>
  <g id="Group_74" data-name="Group 74" transform="translate(155.253 77.255)" opacity="0.05">
    <path id="Path_518" data-name="Path 518" d="M528.58,331.8l1.64-.545,7.57-8.715a2.13,2.13,0,0,1-.05-1.285Z" transform="translate(-459.863 -321.25)"/>
    <path id="Path_519" data-name="Path 519" d="M507.53,362.75a11.3,11.3,0,0,0,6.865-11,4.574,4.574,0,0,0-.05-.84l-.16.18-6,2a9.6,9.6,0,0,1,.705,3.655A11.95,11.95,0,0,1,507.53,362.75Z" transform="translate(-449.338 -336.08)"/>
    <path id="Path_520" data-name="Path 520" d="M589.135,477.42c-12.53,4.36-29.5,11.225-34.66,17.91-.125.165-.255.32-.385.5,13.73-9.415,43.885-18,43.885-18a77.94,77.94,0,0,1-8.84-.41Z" transform="translate(-472.618 -399.335)"/>
    <path id="Path_521" data-name="Path 521" d="M450.5,458.855c-2-4.5-5.735-9.225-9.71-13.4a65,65,0,0,1-17.625-37.19l-.165-1.41c-8-8-26.25-1.25-26.25-1.25-.95-15.54,4.635-25.745,8.845-31.135l-1.1.385s-14.75,11.25-13.25,35.75c0,0,18.25-6.75,26.25,1.25l.165,1.41a65,65,0,0,0,17.625,37.19c4,4.175,7.725,8.885,9.71,13.4,0,0,12.185-3.5,20.72-12.88a51.76,51.76,0,0,1-15.22,7.88Z" transform="translate(-391.146 -347.86)"/>
  </g>
  <path id="Path_522" data-name="Path 522" d="M446.36,405.248s-24,34.5-36.5,44.5-16-4.5-16-4.5v-32l22-2.5.235,3.035.265,3.465,20.5-22s20.5-18.5,24.5-7.5S446.36,405.248,446.36,405.248Z" transform="translate(-237.25 -275.498)" fill="#ffd2d9"/>
  <path id="Path_523" data-name="Path 523" d="M416.08,440.29a47.634,47.634,0,0,1-9.5,4.215c-4.725,1.455-10.14-.075-12.75-1V439.77l22-2.5Z" transform="translate(-237.235 -302.005)" opacity="0.1"/>
  <path id="Path_524" data-name="Path 524" d="M392.045,430.74l-1.315,5.355s7.815,3.645,14.315,1.645a56.849,56.849,0,0,0,12.5-6c1-.5-4-6-4-6Z" transform="translate(-235.685 -296.24)" fill="#cedad5"/>
  <path id="Path_525" data-name="Path 525" d="M681.36,546.24a40.612,40.612,0,0,1,11-6,39.3,39.3,0,0,0,10.5-5.5" transform="translate(-381 -350.74)" opacity="0.1"/>
  <path id="Path_526" data-name="Path 526" d="M937.61,594.185l-.82-.055c1.19,3,2.91,10.4-4.145,18.45a28.285,28.285,0,0,1-20,9.5l-23.285,1.09.745,1.535,24.045-1.14a28.285,28.285,0,0,0,20-9.5C943.355,603.565,937.61,594.185,937.61,594.185Z" transform="translate(-485 -380.435)" fill="#fff" opacity="0.2"/>
  <path id="Path_527" data-name="Path 527" d="M759.025,645.74h-.075c.065,1.18.18,3.615.2,6.29C759.17,649.68,759.095,647.37,759.025,645.74Z" transform="translate(-419.795 -406.24)" fill="lime" opacity="0.05"/>
  <path id="Path_528" data-name="Path 528" d="M816.06,637.1q.1.455.235.9C816.785,637.715,817.49,637.185,816.06,637.1Z" transform="translate(-448.35 -401.92)" fill="lime" opacity="0.05"/>
  <path id="Path_529" data-name="Path 529" d="M845.36,654.845c-5.125,2.33-43.665-4.455-48.9-5.395a3.9,3.9,0,0,1-.6,1.395s44,8,49.5,5.5c2.83-1.285,3.54-2.97,3.155-4.5C848.225,652.91,847.285,653.97,845.36,654.845Z" transform="translate(-438.25 -408.095)" fill="#fff" opacity="0.2"/>
  <path id="Path_530" data-name="Path 530" d="M757.787,644.995c-.025-.5-.045-.755-.045-.755S755.2,645.15,757.787,644.995Z" transform="translate(-418.632 -405.49)" fill="lime" opacity="0.05"/>
  <rect id="Rectangle_143" data-name="Rectangle 143" width="34.5" height="17" rx="4.08" transform="translate(188.36 59.5)" opacity="0.1"/>
  <rect id="Rectangle_144" data-name="Rectangle 144" width="14.5" height="6.5" rx="2.44" transform="translate(175.36 65)" opacity="0.1"/>
  <rect id="Rectangle_145" data-name="Rectangle 145" width="34.5" height="17" rx="4.08" transform="translate(188.36 59)" fill="#7679b4"/>
  <rect id="Rectangle_146" data-name="Rectangle 146" width="30.44" height="15" rx="4.08" transform="translate(192.385 60)" fill="#565388"/>
  <rect id="Rectangle_147" data-name="Rectangle 147" width="14.5" height="6.5" rx="2.44" transform="translate(175.36 64.5)" fill="#565388"/>
  <path id="Path_531" data-name="Path 531" d="M473.286,258.16a34.075,34.075,0,0,0,12.69-13.61,3.068,3.068,0,0,0,.47-2.1c-.355-1.36-2.13-1.6-3.41-2.185-2.385-1.1-3.39-3.86-4.955-5.965a11.93,11.93,0,0,0-11.665-4.5c-2.28.46-4.39,1.59-6.69,1.93-4.96.725-10.37-2.28-14.825,0-2.03,1.045-3.4,3-4.615,4.95-3.035,4.855-6.84,10-4.08,15.7,1.585,3.255,4.115,5.955,7.67,6.9s7.67.16,11.285-.235c2.975-.32,6.09-1,9.085-.685C467.751,258.74,469.941,260.17,473.286,258.16Z" transform="translate(-257.946 -198.17)" opacity="0.1"/>
  <path id="Path_532" data-name="Path 532" d="M473.286,256.16a34.075,34.075,0,0,0,12.69-13.61,3.068,3.068,0,0,0,.47-2.1c-.355-1.36-2.13-1.6-3.41-2.185-2.385-1.1-3.39-3.86-4.955-5.965a11.93,11.93,0,0,0-11.665-4.5c-2.28.46-4.39,1.59-6.69,1.93-4.96.725-10.37-2.28-14.825,0-2.03,1.045-3.4,3-4.615,4.95-3.035,4.855-6.84,10-4.08,15.7,1.585,3.255,4.115,5.955,7.67,6.9s7.67.16,11.285-.235c2.975-.32,6.09-1,9.085-.685C467.751,256.74,469.941,258.17,473.286,256.16Z" transform="translate(-257.946 -197.17)" fill="#844f6e"/>
  <path id="Path_533" data-name="Path 533" d="M821.215,116.625,603.72,155.5V38.875L821.215,0Z" transform="translate(-301.86)" fill="#6c63ff" opacity="0.2"/>
  <path id="Path_534" data-name="Path 534" d="M948.11,19.975l40.225-6.935.585,18.025L947.63,37.97Z" transform="translate(-473.815 -6.52)" fill="#6c63ff" opacity="0.2"/>
  <g id="Group_75" data-name="Group 75" transform="translate(350.52 32.455)" opacity="0.2">
    <path id="Path_535" data-name="Path 535" d="M864.15,386.97a15,15,0,0,1,4.16-.345c8.225.145,16.76.95,24.83-1.5,4.285-1.29,8.13-3.42,12.55-4.335,7.5-1.545,15,.71,22.375-1.17,1.5-.385,3.335-.925,4.4-.345,1.235.67.36,2.41,1.865,2.85a7.1,7.1,0,0,1,1.4.32c.55.32.2,1-.345,1.435-3.345,2.715-10.15.91-14.34,3.105-.93.5-1.63,1.13-2.5,1.65a18.834,18.834,0,0,1-4.345,1.6l-23.265,6.5a113.478,113.478,0,0,1-16.975,3.815c-5.76.685-11.735.4-15.955-1.55a4.233,4.233,0,0,1-2.09-1.635C854.275,394.065,858.354,388.51,864.15,386.97Z" transform="translate(-818.615 -305.335)" fill="#252223" opacity="0.1"/>
    <path id="Path_536" data-name="Path 536" d="M726.05,136.06l19.465,15.39,19.465,15.385-31.97,6.045-31.97,6.04,12.505-21.43Z" transform="translate(-701.04 -100.485)" fill="#6c63ff" opacity="0.3"/>
    <path id="Path_537" data-name="Path 537" d="M766.53,128.94l19.465,15.385,19.465,15.39-31.97,6.04L741.52,171.8l12.505-21.43Z" transform="translate(-721.28 -96.925)" fill="#6c63ff" opacity="0.3"/>
    <path id="Path_538" data-name="Path 538" d="M814.185,64.91,776.62,136.47l71.24-13.865,26.325-4.975Z" transform="translate(-738.83 -64.91)" fill="#6c63ff"/>
    <path id="Path_539" data-name="Path 539" d="M911.75,117.63l-26.325,4.975L851.75,64.91Z" transform="translate(-776.395 -64.91)" opacity="0.1"/>
    <path id="Path_540" data-name="Path 540" d="M920.678,291.68a2.045,2.045,0,0,0-2.17-1.5s.5-3.93-7.6-2.345a2.065,2.065,0,0,0-3.2-.65l-.345-1.825s-4.44,2.545.265,6.175l.565,3a.944.944,0,0,0,.07.22.953.953,0,0,1,.06.17c.215.875,1.8,7.81-1.795,10.18-3.845,2.575-6.045-5.36-6.045-5.36-2.5-10.365-7.26-10.325-8.39-10.16-.135,0-.275.03-.415.04-.53.03-2.175.62-2.8,6.6-.755,7.17-3.5,5.38-3.5,5.38-6.155-3.355-10.5-.42-10.5-.42-10.68,6.28-1.6,18.06.275,20.3-.7,3.555-2.13,9.82-3.5,10.08-1.94.365-5.57,7.175,4.26,17.765l2.615-.5s-8.085-10.56-1.72-15.815a8.206,8.206,0,0,1-.5,1.125c-3.565,6.1,8.565,13.44,8.565,13.44l2.91-.55-6.72-8.465c-2.67-3.5,2.31-6.36,2.31-6.36,5.895-4.93,2.86-10.88,2.86-10.88l13.76-2.6c-1.7,3.76-4.2,13,4.11,25.17l1.94-.365-1.585-14.76s.5-3.175,3.87-7.965c1.34,6,4.18,16.355,8.47,20.69l2.81-.53s-3.425-9.825-3.5-13.5c-.035-1.5-.1-2.975-.235-4.455l-.7-7.74a6.635,6.635,0,0,0,2.95-6.925l-2.585-13.43a1.415,1.415,0,0,1,1.2-1.67l3.315-.45a.83.83,0,0,0,.635-1.1Z" transform="translate(-825.518 -258.505)" fill="url(#linear-gradient)"/>
    <path id="Path_541" data-name="Path 541" d="M945,341.415s3.11,18.53,9.2,24.67l2.76-.5s-3.36-9.645-3.45-13.24c-.035-1.46-.095-2.92-.23-4.375l-1.13-12.5Z" transform="translate(-863.34 -283.56)" fill="#535461"/>
    <path id="Path_542" data-name="Path 542" d="M945,341.415s3.11,18.53,9.2,24.67l2.76-.5s-3.36-9.645-3.45-13.24c-.035-1.46-.095-2.92-.23-4.375l-1.13-12.5Z" transform="translate(-863.34 -283.56)" opacity="0.05"/>
    <path id="Path_543" data-name="Path 543" d="M876.38,352.67s-2,11.9-3.89,12.265-5.47,7.045,4.185,17.44l2.57-.5s-8.9-11.62-.435-16.375C878.805,365.515,880.28,355.575,876.38,352.67Z" transform="translate(-825.965 -292.16)" fill="#535461"/>
    <path id="Path_544" data-name="Path 544" d="M876.38,352.67s-2,11.9-3.89,12.265-5.47,7.045,4.185,17.44l2.57-.5s-8.9-11.62-.435-16.375C878.805,365.515,880.28,355.575,876.38,352.67Z" transform="translate(-825.965 -292.16)" opacity="0.05"/>
    <path id="Path_545" data-name="Path 545" d="M908.785,295.57l-.555-2.93c-4.615-3.56-.26-6.06-.26-6.06l.6,3.14c10.935-3.15,10.35,1.59,10.35,1.59a2,2,0,0,1,2.13,1.455.815.815,0,0,1-.66,1.08l-3.255.445a1.39,1.39,0,0,0-1.18,1.64l2.535,13.185a6.615,6.615,0,0,1-1.33,5.4,7.474,7.474,0,0,1-4.845,2.575l-25.12,4.75s3,5.845-2.81,10.68c0,0-4.89,2.8-2.27,6.245l6.595,8.31-2.855.54s-11.905-7.21-8.405-13.2a11.965,11.965,0,0,0-.8-12.07s-12.2-13.46-.585-20.29c0,0,4.285-2.88,10.325.415,0,0,2.695,1.755,3.435-5.28.615-5.865,2.23-6.445,2.75-6.475a1.4,1.4,0,0,0,.405-.04c1.11-.16,5.8-.2,8.24,9.975,0,0,2.16,7.77,5.925,5.285,3.525-2.325,2-9.135,1.765-10a.933.933,0,0,0-.06-.165h0a.929.929,0,0,1-.055-.21Z" transform="translate(-826.36 -259.115)" fill="#535461"/>
    <path id="Path_546" data-name="Path 546" d="M929.666,345.94s-7.73,10.725,3.045,26.5l1.9-.36-1.555-14.5s.92-6.085,9.265-14.07Z" transform="translate(-854.331 -287.58)" fill="#535461"/>
    <circle id="Ellipse_132" data-name="Ellipse 132" cx="2.035" cy="2.035" r="2.035" transform="translate(80.896 29.199) rotate(-10.7)" fill="#535461"/>
    <path id="Path_547" data-name="Path 547" d="M899.473,290.629c2.35-3.575.95-3.81.04-4.75-.62-.64-5.83-.885-9.075-.975-.07-.25-.18-.67-.31-1.18,0,0-.26-.94-.38-1.6h.205l-.03-.2,4-.215c3.415-.14,3.58-1.5,3.58-1.5.08-2.335-3.775-.1-3.775-.1-.765.375-2.795.1-4.38-.215a8.728,8.728,0,0,1-.075-1,7.562,7.562,0,0,0-.1-1.545,2.5,2.5,0,0,0-.5-1.21,20.41,20.41,0,0,0-4.03-3.68,6.939,6.939,0,0,1,.24-2.625,3.185,3.185,0,0,0,1.68-3.4,3.077,3.077,0,0,0-.31-.88,2.754,2.754,0,0,0-.61-3.465,2.364,2.364,0,0,0-.34-.255,3.145,3.145,0,0,0-2.185-.5,5.7,5.7,0,0,0-2.37.97,6.438,6.438,0,0,1-2.675,1.38,10.929,10.929,0,0,0-2.185.055,3.032,3.032,0,0,0-1.66,2.14,4.266,4.266,0,0,1-1.355,2.39,7.087,7.087,0,0,1-2.375.65,3.5,3.5,0,0,0-2.525,2.115,2.31,2.31,0,0,0,.91,2.645,1.845,1.845,0,0,0,.43.235,3.683,3.683,0,0,1,.5.195.415.415,0,0,1,.165.275.885.885,0,0,1-.085.395,2.115,2.115,0,0,0,.145,1.685,1.085,1.085,0,0,0,.415.45.758.758,0,0,0,.165.1c.585.255,1.31-.32,1.89-.06h.045a4.085,4.085,0,0,1,.58.8,1.662,1.662,0,0,0,.5.42,2.45,2.45,0,0,0,1.725.37,6.084,6.084,0,0,0,2.145-.86c.885-.5,1.85-1.195,1.92-2.185.04-.605-.275-1.19-.2-1.79a1.645,1.645,0,0,1,.335-.785,6.108,6.108,0,0,0-.105,1.54,8.179,8.179,0,0,0,.15,1.245,8.844,8.844,0,0,0,1.14,3.035,13.207,13.207,0,0,1,1.645,3.935,5.364,5.364,0,0,1,.03,1.86,7.72,7.72,0,0,0-.2,2.885c.055.44.2.445.2.445h.035a2.24,2.24,0,0,0,.78,1.585c4.525,1.87,13.73-.78,13.73-.78-1.86.655-3.19,5.75-3.19,5.75a7.134,7.134,0,0,1-1.35,3.05h0c-1-.15-2.18.97-3.07,1.625l-.075.05a.735.735,0,0,0-.13,1.1l3.54,3.88c2.04,1.445,3.215,1.54,3.545,1.13.215-.27.07-.75-.43-1.215-1.21-1.125-1.035-4.775-1-5.085A77.089,77.089,0,0,1,899.473,290.629Z" transform="translate(-824.768 -246.484)" fill="url(#linear-gradient-2)"/>
    <path id="Path_548" data-name="Path 548" d="M898.295,276.58a7.064,7.064,0,0,0-.35,4.4l-3.835-2.035s1.22-.33.965-3.235Z" transform="translate(-837.895 -253.68)" fill="#f9d5c6"/>
    <path id="Path_549" data-name="Path 549" d="M902.488,308.8s10.175.145,11.04,1.065,2.19,1.165,0,4.635-4.61,8.46-4.61,8.46l-2.59-1.185a6.864,6.864,0,0,0,1.785-3.59s1.23-4.965,3-5.59c0,0-8.685,2.53-13,.68a2.488,2.488,0,0,1-.615-2.74C898.033,308.658,902.488,308.8,902.488,308.8Z" transform="translate(-839.518 -270.223)" fill="#353535"/>
    <path id="Path_550" data-name="Path 550" d="M893.955,282.323s-2.54-.625-2.355,3.27a8.725,8.725,0,0,0,1.21,4c.825,1.41,2,3.835,1.655,5.85-.5,3.05,0,3.055,0,3.055l1.3-.79a11.26,11.26,0,0,1,5.815-1.65h.6a37.6,37.6,0,0,1-1.245-6.32,3.851,3.851,0,0,0-.555-2.5C898.65,285,895.17,282.318,893.955,282.323Z" transform="translate(-836.635 -256.968)" opacity="0.1"/>
    <path id="Path_551" data-name="Path 551" d="M893.885,281.963s-2.54-.625-2.355,3.27a8.725,8.725,0,0,0,1.21,4c.825,1.41,2,3.835,1.655,5.85-.5,3.05,0,3.055,0,3.055l1.3-.79a11.259,11.259,0,0,1,5.815-1.65h.605a37.588,37.588,0,0,1-1.245-6.32,3.85,3.85,0,0,0-.555-2.5C898.58,284.628,895.1,281.963,893.885,281.963Z" transform="translate(-836.6 -256.788)" fill="#409cd6"/>
    <path id="Path_552" data-name="Path 552" d="M894.267,287.037a1.83,1.83,0,0,1,3-.68,4.579,4.579,0,0,1,.92,1.42c1.2,2.73,2.12,4.43,2.12,4.43a14.561,14.561,0,0,1,2.285.53c.115.935.265,1.9.265,1.9l-3.245.16-4.445-5.27A2.547,2.547,0,0,1,894.267,287.037Z" transform="translate(-837.927 -258.742)" opacity="0.1"/>
    <path id="Path_553" data-name="Path 553" d="M894.188,286.647a1.83,1.83,0,0,1,3-.68,4.58,4.58,0,0,1,.92,1.42c1.2,2.73,2.12,4.43,2.12,4.43s4.885,1.345,6.145.71c0,0,3.63-2.165,3.57.115,0,0-.145,1.31-3.375,1.425l-7.03.345-4.445-5.27A2.581,2.581,0,0,1,894.188,286.647Z" transform="translate(-837.888 -258.547)" fill="#f9d5c6"/>
    <path id="Path_554" data-name="Path 554" d="M895.45,277.2c.1-.455.31-.28.24-1.08l3.22.87a7.4,7.4,0,0,0-.33,1,3.463,3.463,0,0,1-1,.185C896.87,278.315,896.055,277.535,895.45,277.2Z" transform="translate(-838.565 -253.885)" opacity="0.1"/>
    <circle id="Ellipse_133" data-name="Ellipse 133" cx="3.1" cy="3.1" r="3.1" transform="translate(54.973 18.725) rotate(-10.7)" fill="#f9d5c6"/>
    <path id="Path_555" data-name="Path 555" d="M885.638,267.777c-.55.03-1.15-.145-1.615.145a1.77,1.77,0,0,0-.5,1.705,4.858,4.858,0,0,1,.215,1.86c-.195.8-1,1.3-1.7,1.725s-1.5,1-1.575,1.81c-.065.585.235,1.16.2,1.75-.06.965-.965,1.63-1.805,2.12a5.585,5.585,0,0,1-2,.825,2.1,2.1,0,0,1-1.975-.72c-.225-.31-.36-.725-.71-.885-.55-.26-1.235.3-1.785.05a1,1,0,0,1-.44-.465,2.125,2.125,0,0,1-.145-1.64.879.879,0,0,0,.075-.385c-.045-.315-.43-.42-.73-.535a2.255,2.255,0,0,1-1.17-2.735,3.275,3.275,0,0,1,2.375-2.05,6.646,6.646,0,0,0,2.24-.62,4.071,4.071,0,0,0,1.265-2.325,2.875,2.875,0,0,1,1.555-2.075,9.794,9.794,0,0,1,2.065-.04,5.739,5.739,0,0,0,2.5-1.33,5.23,5.23,0,0,1,2.235-.935,2.835,2.835,0,0,1,2.28.65C887.873,264.932,887.958,267.652,885.638,267.777Z" transform="translate(-825.773 -247.322)" opacity="0.1"/>
    <path id="Path_556" data-name="Path 556" d="M885.413,267.637c-.55.03-1.15-.145-1.615.145a1.77,1.77,0,0,0-.5,1.7,4.858,4.858,0,0,1,.215,1.86c-.2.8-1,1.3-1.7,1.725s-1.5,1-1.575,1.81c-.065.585.235,1.16.2,1.75-.06.965-.965,1.63-1.8,2.12a5.586,5.586,0,0,1-2,.825,2.1,2.1,0,0,1-1.97-.71c-.225-.31-.36-.725-.71-.885-.55-.26-1.235.3-1.785.05a1,1,0,0,1-.44-.465,2.125,2.125,0,0,1-.145-1.64.88.88,0,0,0,.075-.385c-.045-.315-.43-.42-.73-.535a2.255,2.255,0,0,1-1.17-2.735,3.275,3.275,0,0,1,2.375-2.05,6.647,6.647,0,0,0,2.24-.62,4.071,4.071,0,0,0,1.265-2.325,2.875,2.875,0,0,1,1.555-2.075,9.8,9.8,0,0,1,2.065-.04,5.739,5.739,0,0,0,2.5-1.33,5.23,5.23,0,0,1,2.235-.935,2.835,2.835,0,0,1,2.28.65C887.648,264.792,887.733,267.507,885.413,267.637Z" transform="translate(-825.663 -247.257)" fill="#2f302f"/>
    <path id="Path_557" data-name="Path 557" d="M897.95,286.285s-4,.26-3.66,3.055-1.39-3.185-1.39-3.185l1.555-1.675,2.22.27Z" transform="translate(-837.29 -258.065)" opacity="0.1"/>
    <path id="Path_558" data-name="Path 558" d="M897.74,286.125s-4,.26-3.66,3.055-1.39-3.185-1.39-3.185l1.555-1.675,2.22.27Z" transform="translate(-837.185 -257.985)" fill="#409cd6"/>
    <path id="Path_559" data-name="Path 559" d="M909.973,336.131l3.37,3.8c1.94,1.42,3.05,1.5,3.36,1.125.2-.26.06-.73-.415-1.185-1.2-1.15-1-5-1-5a2.35,2.35,0,0,1-2.245-1.45c-.955-.15-2.055.935-2.9,1.565l-.07.05a.73.73,0,0,0-.1,1.09Z" transform="translate(-845.728 -282.531)" fill="#409cd6"/>
    <path id="Path_560" data-name="Path 560" d="M918.565,334.91s-1.92.265-2.245-1.45a2.41,2.41,0,0,0,2.245,1.45Z" transform="translate(-849 -282.555)" opacity="0.1"/>
    <path id="Path_561" data-name="Path 561" d="M909.985,337.725l3.37,3.8c1.94,1.42,3.05,1.5,3.36,1.125-.97-.3-3.715-1.5-6.545-6.055l-.07.05a.73.73,0,0,0-.115,1.075Z" transform="translate(-845.74 -284.125)" opacity="0.1"/>
    <path id="Path_562" data-name="Path 562" d="M797.882,396.829s-8.915,7.97,11.4,13.8c0,0,2.65-8.36-3.035-13.69a6.2,6.2,0,0,0-8.23-.24Z" transform="translate(-788.807 -313.449)" fill="#6c63ff"/>
    <path id="Path_563" data-name="Path 563" d="M800,398.11s9.865,4.945,11.315,13.945" transform="translate(-790.84 -314.88)" fill="none" stroke="#535461" stroke-miterlimit="10" stroke-width="1"/>
    <path id="Path_564" data-name="Path 564" d="M815.505,391.89s-5.175-10.11-2.92-18.7a17.2,17.2,0,0,0-.64-10.89,28.938,28.938,0,0,0-2.445-4.7" transform="translate(-795.59 -294.63)" fill="none" stroke="#535461" stroke-miterlimit="10" stroke-width="2"/>
    <path id="Path_565" data-name="Path 565" d="M807.487,344.852c.25,1.31-1.41,5.565-1.41,5.565s-3.1-3.355-3.34-4.665a2.417,2.417,0,0,1,4.75-.9Z" transform="translate(-792.187 -287.267)" fill="#6c63ff"/>
    <path id="Path_566" data-name="Path 566" d="M818.234,356.525c-.5,1.235-4.2,3.905-4.2,3.905s-.775-4.5-.27-5.735a2.429,2.429,0,1,1,4.5,1.83Z" transform="translate(-797.634 -292.415)" fill="#6c63ff"/>
    <path id="Path_567" data-name="Path 567" d="M821.625,380.436c-1.06.81-5.6,1.25-5.6,1.25s1.6-4.275,2.66-5.085a2.416,2.416,0,0,1,2.94,3.835Z" transform="translate(-798.85 -303.876)" fill="#6c63ff"/>
    <path id="Path_568" data-name="Path 568" d="M820.97,400.291c-.905,1-5.31,2.175-5.31,2.175s.855-4.5,1.765-5.46a2.417,2.417,0,0,1,3.545,3.285Z" transform="translate(-798.67 -313.941)" fill="#6c63ff"/>
    <path id="Path_569" data-name="Path 569" d="M803.514,365.634c1.115.735,5.675.855,5.675.855s-1.9-4.15-3-4.89a2.418,2.418,0,0,0-2.665,4.035Z" transform="translate(-792.059 -296.424)" fill="#6c63ff"/>
    <path id="Path_570" data-name="Path 570" d="M802.02,388.255c1.285.37,5.67-.885,5.67-.885s-3.05-3.395-4.335-3.765a2.417,2.417,0,0,0-1.335,4.645Z" transform="translate(-790.975 -307.58)" fill="#6c63ff"/>
    <path id="Path_571" data-name="Path 571" d="M804.633,410.778c1.2.58,5.74.09,5.74.09s-2.435-3.86-3.635-4.44a2.419,2.419,0,1,0-2.105,4.355Z" transform="translate(-792.473 -318.918)" fill="#6c63ff"/>
    <path id="Path_572" data-name="Path 572" d="M807.487,344.852c.25,1.31-1.41,5.565-1.41,5.565s-3.1-3.355-3.34-4.665a2.417,2.417,0,0,1,4.75-.9Z" transform="translate(-792.187 -287.267)" opacity="0.25"/>
    <path id="Path_573" data-name="Path 573" d="M818.234,356.525c-.5,1.235-4.2,3.905-4.2,3.905s-.775-4.5-.27-5.735a2.429,2.429,0,1,1,4.5,1.83Z" transform="translate(-797.634 -292.415)" opacity="0.25"/>
    <path id="Path_574" data-name="Path 574" d="M821.625,380.436c-1.06.81-5.6,1.25-5.6,1.25s1.6-4.275,2.66-5.085a2.416,2.416,0,0,1,2.94,3.835Z" transform="translate(-798.85 -303.876)" opacity="0.25"/>
    <path id="Path_575" data-name="Path 575" d="M820.97,400.291c-.905,1-5.31,2.175-5.31,2.175s.855-4.5,1.765-5.46a2.417,2.417,0,0,1,3.545,3.285Z" transform="translate(-798.67 -313.941)" opacity="0.25"/>
    <path id="Path_576" data-name="Path 576" d="M803.514,365.634c1.115.735,5.675.855,5.675.855s-1.9-4.15-3-4.89a2.418,2.418,0,0,0-2.665,4.035Z" transform="translate(-792.059 -296.424)" opacity="0.25"/>
    <path id="Path_577" data-name="Path 577" d="M802.02,388.255c1.285.37,5.67-.885,5.67-.885s-3.05-3.395-4.335-3.765a2.417,2.417,0,0,0-1.335,4.645Z" transform="translate(-790.975 -307.58)" opacity="0.25"/>
    <path id="Path_578" data-name="Path 578" d="M804.633,410.778c1.2.58,5.74.09,5.74.09s-2.435-3.86-3.635-4.44a2.419,2.419,0,1,0-2.105,4.355Z" transform="translate(-792.473 -318.918)" opacity="0.25"/>
    <path id="Path_579" data-name="Path 579" d="M835,395.745s-5.175-10.11-2.92-18.7a17.2,17.2,0,0,0-.635-10.865,28.935,28.935,0,0,0-2.445-4.7" transform="translate(-805.34 -296.57)" fill="none" stroke="#535461" stroke-miterlimit="10" stroke-width="2"/>
    <path id="Path_580" data-name="Path 580" d="M827.017,348.672c.25,1.31-1.41,5.565-1.41,5.565s-3.095-3.355-3.34-4.665a2.417,2.417,0,1,1,4.75-.9Z" transform="translate(-801.952 -289.177)" fill="#6c63ff"/>
    <path id="Path_581" data-name="Path 581" d="M837.764,360.345c-.5,1.235-4.205,3.905-4.205,3.905s-.775-4.5-.27-5.735a2.429,2.429,0,0,1,4.5,1.83Z" transform="translate(-807.399 -294.325)" fill="#6c63ff"/>
    <path id="Path_582" data-name="Path 582" d="M841.155,384.256c-1.06.81-5.6,1.25-5.6,1.25s1.6-4.275,2.66-5.085a2.416,2.416,0,0,1,2.94,3.835Z" transform="translate(-808.615 -305.786)" fill="#6c63ff"/>
    <path id="Path_583" data-name="Path 583" d="M840.5,404.111c-.9,1-5.31,2.175-5.31,2.175s.855-4.5,1.765-5.46a2.416,2.416,0,1,1,3.545,3.285Z" transform="translate(-808.435 -315.851)" fill="#6c63ff"/>
    <path id="Path_584" data-name="Path 584" d="M823.044,369.454c1.115.735,5.675.855,5.675.855s-1.895-4.15-3-4.89a2.418,2.418,0,0,0-2.665,4.035Z" transform="translate(-801.824 -298.334)" fill="#6c63ff"/>
    <path id="Path_585" data-name="Path 585" d="M821.55,392.065c1.285.37,5.67-.885,5.67-.885s-3.05-3.395-4.335-3.765a2.417,2.417,0,0,0-1.335,4.645Z" transform="translate(-800.74 -309.485)" fill="#6c63ff"/>
    <path id="Path_586" data-name="Path 586" d="M824.193,414.6c1.2.58,5.74.09,5.74.09s-2.435-3.86-3.635-4.44a2.419,2.419,0,1,0-2.105,4.355Z" transform="translate(-802.253 -320.828)" fill="#6c63ff"/>
    <path id="Path_587" data-name="Path 587" d="M873.571,244.124l-.88.165a.626.626,0,0,0-.235-1.23l-7.125,1.345a.626.626,0,0,0,.235,1.23l.88-.165a.626.626,0,1,0,.235,1.23l-1.23.235a.626.626,0,0,0,.235,1.23l7.125-1.345a.626.626,0,0,0-.235-1.23l1.23-.235a.626.626,0,0,0-.235-1.23Z" transform="translate(-823.251 -237.349)" fill="#252223" opacity="0.1"/>
    <path id="Path_588" data-name="Path 588" d="M847.746,268.594l-.88.165a.626.626,0,0,0-.235-1.23l-7.14,1.345a.626.626,0,1,0,.235,1.23l.88-.165a.626.626,0,1,0,.235,1.23l-1.23.235a.626.626,0,0,0,.235,1.23l7.145-1.345a.626.626,0,1,0-.235-1.23l1.23-.235a.626.626,0,0,0-.235-1.23Z" transform="translate(-810.331 -249.584)" fill="#252223" opacity="0.1"/>
    <path id="Path_589" data-name="Path 589" d="M993.536,237.334l-.88.165a.626.626,0,0,0-.235-1.23l-7.12,1.36a.626.626,0,0,0,.235,1.23l.88-.165a.626.626,0,0,0,.235,1.23l-1.255.2a.626.626,0,0,0,.235,1.23l7.125-1.345a.626.626,0,0,0-.235-1.23l1.23-.235a.626.626,0,0,0-.235-1.23Z" transform="translate(-883.236 -233.954)" fill="#252223" opacity="0.1"/>
    <circle id="Ellipse_134" data-name="Ellipse 134" cx="6.635" cy="6.635" r="6.635" transform="translate(7.378 13.662) rotate(-10.7)" fill="#6c63ff" opacity="0.3"/>
    <path id="Path_590" data-name="Path 590" d="M891.12,338.19a29.8,29.8,0,0,1,4.89,5.56c1.555,2.615,1.06,3.5,1.06,3.5" transform="translate(-836.4 -284.92)" opacity="0.05"/>
  </g>
</svg>
