<svg id="Group_73" data-name="Group 73" xmlns="http://www.w3.org/2000/svg" width="388.087" height="271.608" viewBox="0 0 388.087 271.608">
  <path id="Path_449" data-name="Path 449" d="M732.011,544.928h-6.493l-3.089-25.043h9.582Z" transform="translate(-389.292 -280.148)" fill="#ffb8b8"/>
  <path id="Path_450" data-name="Path 450" d="M901.539,733.509H880.6v-.265a8.149,8.149,0,0,1,8.148-8.148H901.54Z" transform="translate(-557.165 -462.435)" fill="#2f2e41"/>
  <path id="Path_451" data-name="Path 451" d="M775.82,520.582l-4.214,4.939L750.55,511.615l6.22-7.289Z" transform="translate(-404.445 -271.764)" fill="#ffb8b8"/>
  <path id="Path_452" data-name="Path 452" d="M977.811,694.824l-13.589,15.925-.2-.172a8.149,8.149,0,0,1-.909-11.488h0l8.3-9.726Z" transform="translate(-600.574 -443.18)" fill="#2f2e41"/>
  <path id="Path_453" data-name="Path 453" d="M640.874,258.474l-2.021,18.639,81.7-1.165-35.63-58.055-29.091-1.045Z" transform="translate(-344.256 -116.852)" fill="#2f2e41"/>
  <path id="Path_454" data-name="Path 454" d="M640.874,258.474l-2.021,18.639,81.7-1.165-35.63-58.055-29.091-1.045Z" transform="translate(-344.256 -116.852)" opacity="0.28"/>
  <path id="Path_455" data-name="Path 455" d="M853.909,465.255l-2.884,17.055v15.244l23.255,7.591s-2.722,59.212.907,62.983l-.089,9.1,10.145.461.083-6.407,4.3-47.891,2.533-35.162-4.107-26.659Z" transform="translate(-541.225 -320.432)" fill="#2f2e41"/>
  <path id="Path_456" data-name="Path 456" d="M871.649,501.392l-20.9,17.618s-1.223,31.787,1.883,35.515C855.3,557.727,890,585.344,890,585.344s6.167,5.657,9.624,5.747,7.476-7.159,7.476-7.159l-8-6.082S878.358,558.494,872.2,550.8c-2.485-3.106-2.485-3.417-2.485-3.417l.849-12.918,8.543-23.975Z" transform="translate(-540.948 -341.889)" fill="#2f2e41"/>
  <path id="Path_457" data-name="Path 457" d="M626.992,161.912l-9.011-.833-8.174,1.362-17.308.006-1.475,12.545,15.8,3.535,3.849-1.887,16.045,6.113Z" transform="translate(-318.482 -86.8)" fill="#2f2e41"/>
  <path id="Path_458" data-name="Path 458" d="M863.788,317.751s19.125-1.792,23.474,1.625,13.668,71.138,13.668,71.138l-37.142,2.1-6.659-4.581,1.89-33.809Z" transform="translate(-544.515 -242.678)" fill="#ccc"/>
  <path id="Path_459" data-name="Path 459" d="M657.387,161.885l-21.1.463-19.669,88.875,15.532,3.417Z" transform="translate(-332.276 -87.234)" fill="#2f2e41"/>
  <path id="Path_460" data-name="Path 460" d="M729.377,160.256l16.618,5.2-.944,36.516,20.515,43.657-24.117,2.54-19.063-47.142Z" transform="translate(-389.269 -86.356)" fill="#2f2e41"/>
  <path id="Path_461" data-name="Path 461" d="M965.786,482.98a5.309,5.309,0,0,0-.2-8.138l3.343-11.663-6.592-3.76-4.49,16.536a5.338,5.338,0,0,0,7.94,7.025Z" transform="translate(-598.275 -319.271)" fill="#ffb8b8"/>
  <path id="Path_462" data-name="Path 462" d="M931.905,328.237l9.833-.853s8.828,9.233,10.836,16.381,4.183,29.515,4.183,29.515L955.85,406,944.356,398.2l-.771-28.143Z" transform="translate(-584.809 -248.123)" fill="#2f2e41"/>
  <circle id="Ellipse_123" data-name="Ellipse 123" cx="13.939" cy="13.939" r="13.939" transform="translate(313.577 62.53) rotate(-61.337)" fill="#ffb8b8"/>
  <path id="Path_463" data-name="Path 463" d="M880.358,251.4c-1.829-.423-3.727.046-5.579.349s-3.894.4-5.46-.63a8.634,8.634,0,0,1-2.537-3.24,3.73,3.73,0,0,1-.546-1.43,3.329,3.329,0,0,1,1.1-2.385,18.036,18.036,0,0,1,11.091-5.332,19.162,19.162,0,0,1,10.127,1.237,13.249,13.249,0,0,1,7.1,7.127,20.243,20.243,0,0,1,1.061,5.09,15.206,15.206,0,0,1,.072,3.855,16.53,16.53,0,0,1-.747,2.793l-2.053,6.2a4.085,4.085,0,0,1-.807,1.6,1.4,1.4,0,0,1-1.636.358,5.089,5.089,0,0,0,.074-2.057,1.735,1.735,0,0,0-1.369-1.381c-.757-.08-1.4.506-2.121.759a2.61,2.61,0,0,1-3.244-1.76q-.029-.1-.051-.2a9.673,9.673,0,0,0-.192-2.133c-.315-.78-1.15-1.189-1.777-1.749a4.09,4.09,0,0,1-1.122-4.25c.168-.516.642-.751.547-1.343C882.165,252.1,881.018,251.557,880.358,251.4Z" transform="translate(-549.418 -200.241)" fill="#2f2e41"/>
  <path id="Path_464" data-name="Path 464" d="M355.179,265.584H179.2V155.5H355.179Z" transform="translate(-179.205 -155.5)" fill="#fff"/>
  <path id="Path_465" data-name="Path 465" d="M355.179,265.584H179.2V155.5H355.179Zm-175.171-.8H354.376V156.3H180.008Z" transform="translate(-179.205 -155.5)" fill="#3f3d56"/>
  <path id="Path_466" data-name="Path 466" d="M396.831,596.228H296.389V486.143H396.831Z" transform="translate(-242.351 -333.672)" fill="#fff"/>
  <path id="Path_467" data-name="Path 467" d="M396.831,596.228H296.389V486.143H396.831Zm-99.639-.8h98.835V486.947H297.193Z" transform="translate(-242.351 -333.672)" fill="#3f3d56"/>
  <rect id="Rectangle_137" data-name="Rectangle 137" width="20.892" height="0.847" transform="translate(119.928 252.158)" fill="#3f3d56"/>
  <rect id="Rectangle_138" data-name="Rectangle 138" width="20.892" height="0.847" transform="translate(119.928 254.699)" fill="#3f3d56"/>
  <rect id="Rectangle_139" data-name="Rectangle 139" width="20.892" height="0.847" transform="translate(119.928 257.24)" fill="#3f3d56"/>
  <path id="Path_468" data-name="Path 468" d="M405.3,528.835v8.839a26.517,26.517,0,0,1,18.75,45.267l6.25,6.25a35.356,35.356,0,0,0-25-60.356Z" transform="translate(-301.038 -356.677)" fill="#e6e6e6"/>
  <path id="Path_469" data-name="Path 469" d="M405.3,652.417l-6.25-6.25a26.51,26.51,0,0,1-34.793,2.359l-5.35,7.039A35.355,35.355,0,0,0,405.3,652.417Z" transform="translate(-276.039 -419.903)" fill="#575a89"/>
  <path id="Path_470" data-name="Path 470" d="M337.462,564.191a26.517,26.517,0,0,1,26.517-26.517v-8.839a35.355,35.355,0,0,0-21.393,63.5l5.35-7.039a26.471,26.471,0,0,1-10.474-21.109Z" transform="translate(-259.72 -356.677)" fill="#6c63ff"/>
  <path id="Path_471" data-name="Path 471" d="M719.2,448.114H618.755V338.029H719.2Z" transform="translate(-416.063 -253.858)" fill="#fff"/>
  <path id="Path_472" data-name="Path 472" d="M719.2,448.114H618.755V338.029H719.2Zm-99.638-.8h98.835V338.832H619.559Z" transform="translate(-416.063 -253.858)" fill="#3f3d56"/>
  <rect id="Rectangle_140" data-name="Rectangle 140" width="18.08" height="28.927" transform="translate(217.156 151.467)" fill="#575a89"/>
  <rect id="Rectangle_141" data-name="Rectangle 141" width="18.08" height="48.614" transform="translate(243.271 131.78)" fill="#e6e6e6"/>
  <rect id="Rectangle_142" data-name="Rectangle 142" width="18.08" height="71.515" transform="translate(269.386 108.879)" fill="#6c63ff"/>
  <path id="Path_473" data-name="Path 473" d="M541.618,294.815H460.461v-83.97h.8v83.166h80.354Z" transform="translate(-248.126 -113.617)" fill="#3f3d56"/>
  <circle id="Ellipse_124" data-name="Ellipse 124" cx="5.534" cy="5.534" r="5.534" transform="translate(268.391 76.034)" fill="#ffb8b8"/>
  <path id="Path_474" data-name="Path 474" d="M918.488,743.422H832.256a.461.461,0,1,1,0-.922h86.232a.461.461,0,1,1,0,.922Z" transform="translate(-530.863 -471.814)" fill="#ccc"/>
  <path id="Path_475" data-name="Path 475" d="M358.834,272.183h-127.1a.4.4,0,0,1-.4-.4V210.867a.4.4,0,1,1,.8,0v60.52h126.7a.4.4,0,0,1,0,.8Z" transform="translate(-207.298 -185.121)" fill="#3f3d56"/>
  <path id="Path_476" data-name="Path 476" d="M276.2,313.43h-11.56a1.182,1.182,0,0,1-1.181-1.181V296.313a1.182,1.182,0,0,1,1.181-1.181H276.2a1.182,1.182,0,0,1,1.181,1.181v15.936a1.182,1.182,0,0,1-1.181,1.181Z" transform="translate(-224.607 -230.743)" fill="#6c63ff"/>
  <path id="Path_477" data-name="Path 477" d="M321.917,295.767h-11.56a1.182,1.182,0,0,1-1.181-1.181v-31.05a1.182,1.182,0,0,1,1.181-1.181h11.56a1.182,1.182,0,0,1,1.181,1.181v31.05a1.182,1.182,0,0,1-1.181,1.181Z" transform="translate(-249.242 -213.081)" fill="#6c63ff"/>
  <path id="Path_478" data-name="Path 478" d="M367.632,313.43h-11.56a1.182,1.182,0,0,1-1.181-1.181V296.313a1.182,1.182,0,0,1,1.181-1.181h11.56a1.182,1.182,0,0,1,1.181,1.181v15.936a1.182,1.182,0,0,1-1.181,1.181Z" transform="translate(-273.876 -230.743)" fill="#6c63ff"/>
  <path id="Path_479" data-name="Path 479" d="M413.348,288.795h-11.56a1.156,1.156,0,0,1-1.181-1.127V250.544a1.156,1.156,0,0,1,1.181-1.127h11.56a1.156,1.156,0,0,1,1.181,1.127v37.124A1.156,1.156,0,0,1,413.348,288.795Z" transform="translate(-298.511 -206.108)" fill="#6c63ff"/>
  <path id="Path_480" data-name="Path 480" d="M459.063,276.245H447.5a1.182,1.182,0,0,1-1.181-1.181V227.309a1.182,1.182,0,0,1,1.181-1.181h11.56a1.182,1.182,0,0,1,1.181,1.181v47.756a1.182,1.182,0,0,1-1.181,1.181Z" transform="translate(-323.145 -193.559)" fill="#6c63ff"/>
  <circle id="Ellipse_125" data-name="Ellipse 125" cx="2.387" cy="2.387" r="2.387" transform="translate(43.427 54.843)" fill="#3f3d56"/>
  <circle id="Ellipse_126" data-name="Ellipse 126" cx="2.387" cy="2.387" r="2.387" transform="translate(64.508 39.331)" fill="#3f3d56"/>
  <circle id="Ellipse_127" data-name="Ellipse 127" cx="2.387" cy="2.387" r="2.387" transform="translate(85.589 54.843)" fill="#3f3d56"/>
  <circle id="Ellipse_128" data-name="Ellipse 128" cx="2.387" cy="2.387" r="2.387" transform="translate(106.67 31.774)" fill="#3f3d56"/>
  <circle id="Ellipse_129" data-name="Ellipse 129" cx="2.387" cy="2.387" r="2.387" transform="translate(127.752 23.023)" fill="#3f3d56"/>
  <path id="Path_481" data-name="Path 481" d="M141.284,87.326,120.153,71.5,99.31,87.109l-.477-.637L120.153,70.5l21.031,15.752,20.9-22.87.084-.034,21.081-8.494.3.738-21,8.46Z" transform="translate(-53.258 -29.561)" fill="#3f3d56"/>
</svg>
