<svg xmlns="http://www.w3.org/2000/svg" width="369" height="326.962" viewBox="0 0 369 326.962">
  <g id="Group_72" data-name="Group 72" transform="translate(0 -0.006)">
    <path id="Path_367" data-name="Path 367" d="M323.4,345.044c-14.422-4.668-29.67-8.58-45.254-8.177-22.91.595-44.938,11.271-55.8,27.051-9.183,13.372-10.409,29.087-14.418,43.956-4.939,18.319-14.314,35.7-24.32,52.7-5.374,9.131-11.044,18.454-11.978,28.488-1.282,13.931,7.159,27.857,20.467,37.192s31.016,14.31,48.807,15.472c9.467.615,19.361.14,27.789-3.27,8.916-3.593,15.436-10.169,24.388-13.723,8.3-3.29,17.967-3.713,27.274-3.23a151.747,151.747,0,0,1,35.559,6.093c12.972,3.881,25.026,9.467,37.971,13.4s27.414,6.165,40.678,3c12.453-2.971,22.331-10.293,31.239-17.712a339.651,339.651,0,0,0,39.907-39.129c8.045-9.339,15.54-19.2,19.133-30.113,6.863-20.866-2.332-44.491-22.906-58.861-17.045-11.91-39.975-17.169-62.43-20.363-20.479-2.943-44.172-3.234-62.993-10.728C358.559,359.929,342.228,351.137,323.4,345.044Z" transform="translate(-158.088 -218.539)" fill="#6c63ff" opacity="0.1"/>
    <ellipse id="Ellipse_103" data-name="Ellipse 103" cx="9.227" cy="1.266" rx="9.227" ry="1.266" transform="translate(339.917 195.08)" fill="#6c63ff" opacity="0.1"/>
    <ellipse id="Ellipse_104" data-name="Ellipse 104" cx="9.227" cy="1.266" rx="9.227" ry="1.266" transform="translate(304.569 198.666)" fill="#6c63ff" opacity="0.1"/>
    <ellipse id="Ellipse_105" data-name="Ellipse 105" cx="9.227" cy="1.266" rx="9.227" ry="1.266" transform="translate(262.933 193.815)" fill="#6c63ff" opacity="0.1"/>
    <ellipse id="Ellipse_106" data-name="Ellipse 106" cx="6.56" cy="0.902" rx="6.56" ry="0.902" transform="translate(321.383 209.235)" fill="#6c63ff" opacity="0.1"/>
    <ellipse id="Ellipse_107" data-name="Ellipse 107" cx="6.56" cy="0.902" rx="6.56" ry="0.902" transform="translate(284.697 208.332)" fill="#6c63ff" opacity="0.1"/>
    <path id="Path_368" data-name="Path 368" d="M864.218,435.155s12.944-42.427-2.024-59.42c-11.18-12.713-23.908-11.18-29.6-9.618a10.509,10.509,0,0,0-6.788,5.642c-2,4.292-1.629,11.259,12.417,19.393,23.521,13.619,24.987,32.3,24.987,32.3Z" transform="translate(-550.621 -235.511)" fill="#6c63ff"/>
    <path id="Path_369" data-name="Path 369" d="M849.2,382.73s38.154,11.93,29.6,63.021" transform="translate(-565.201 -246.107)" fill="none" stroke="#565987" stroke-miterlimit="10" stroke-width="1"/>
    <path id="Path_370" data-name="Path 370" d="M899.105,393.44s-5.254,3.542-3.593,8.86" transform="translate(-592.827 -252.541)" fill="none" stroke="#565987" stroke-miterlimit="10" stroke-width="1"/>
    <path id="Path_371" data-name="Path 371" d="M858.79,398.31s3.194-3.266,7.119-1.465" transform="translate(-570.962 -254.261)" fill="none" stroke="#565987" stroke-miterlimit="10" stroke-width="1"/>
    <path id="Path_372" data-name="Path 372" d="M896.56,440.854s5.638-2.859,7.1.723" transform="translate(-593.652 -280.374)" fill="none" stroke="#565987" stroke-miterlimit="10" stroke-width="1"/>
    <path id="Path_373" data-name="Path 373" d="M925.022,457.389s-4.236-.335-4.312,1.689" transform="translate(-608.159 -290.944)" fill="none" stroke="#565987" stroke-miterlimit="10" stroke-width="1"/>
    <path id="Path_374" data-name="Path 374" d="M890.232,496.025s-15.172-30.836-19.321-30.161c-2,.319-2.891,2.268-3.3,4.22a12.409,12.409,0,0,0,.826,7.506C870.588,482.525,876.366,491.9,890.232,496.025Z" transform="translate(-576.112 -296.041)" fill="#6c63ff"/>
    <path id="Path_375" data-name="Path 375" d="M876.53,480.54s15.911,23.07,18.985,24.084" transform="translate(-581.619 -304.864)" fill="none" stroke="#565987" stroke-miterlimit="10" stroke-width="1"/>
    <line id="Line_29" data-name="Line 29" x2="3.713" transform="translate(293.45 179.277)" fill="none" stroke="#565987" stroke-miterlimit="10" stroke-width="1"/>
    <line id="Line_30" data-name="Line 30" x2="5.821" y2="0.248" transform="translate(297.897 187.718)" fill="none" stroke="#565987" stroke-miterlimit="10" stroke-width="1"/>
    <line id="Line_31" data-name="Line 31" x1="0.631" y2="3.03" transform="translate(300.808 180.966)" fill="none" stroke="#565987" stroke-miterlimit="10" stroke-width="1"/>
    <line id="Line_32" data-name="Line 32" x1="0.112" y2="2.755" transform="translate(307.516 190.193)" fill="none" stroke="#565987" stroke-miterlimit="10" stroke-width="1"/>
    <path id="Path_376" data-name="Path 376" d="M923.52,496.025s15.172-30.836,19.321-30.161c2,.319,2.891,2.268,3.3,4.22a12.409,12.409,0,0,1-.827,7.506C943.164,482.525,937.387,491.9,923.52,496.025Z" transform="translate(-609.847 -296.041)" fill="#6c63ff"/>
    <path id="Path_377" data-name="Path 377" d="M943.065,480.54s-15.911,23.07-18.985,24.084" transform="translate(-610.184 -304.864)" fill="none" stroke="#565987" stroke-miterlimit="10" stroke-width="1"/>
    <line id="Line_33" data-name="Line 33" x1="3.713" transform="translate(330.63 179.277)" fill="none" stroke="#565987" stroke-miterlimit="10" stroke-width="1"/>
    <line id="Line_34" data-name="Line 34" x1="5.821" y2="0.248" transform="translate(324.074 187.718)" fill="none" stroke="#565987" stroke-miterlimit="10" stroke-width="1"/>
    <line id="Line_35" data-name="Line 35" x2="0.631" y2="3.03" transform="translate(326.354 180.966)" fill="none" stroke="#565987" stroke-miterlimit="10" stroke-width="1"/>
    <line id="Line_36" data-name="Line 36" x2="0.116" y2="2.755" transform="translate(320.161 190.193)" fill="none" stroke="#565987" stroke-miterlimit="10" stroke-width="1"/>
    <path id="Path_378" data-name="Path 378" d="M856.976,553.185a2.651,2.651,0,0,1-.862-1.3,1.162,1.162,0,0,1,.6-1.33,1.7,1.7,0,0,1,1.6.563,2.128,2.128,0,0,0,1.549.747,2.36,2.36,0,0,1-.727-2.208.928.928,0,0,1,.2-.451c.307-.327.866-.184,1.234.072a4.608,4.608,0,0,1,1.505,3.845,7.462,7.462,0,0,0,0-1.6,1.625,1.625,0,0,1,.595-1.4,1.761,1.761,0,0,1,.906-.216,1.885,1.885,0,0,1,1.473.419,1.472,1.472,0,0,1-.06,1.809,5.741,5.741,0,0,1-1.521,1.2,3.346,3.346,0,0,0-1.09,1.038,1.278,1.278,0,0,0-.08.184H859a9.1,9.1,0,0,1-2.024-1.37Z" transform="translate(-569.332 -345.999)" fill="#6c63ff"/>
    <path id="Path_379" data-name="Path 379" d="M1001.647,522.079a2.615,2.615,0,0,1-.862-1.3,1.158,1.158,0,0,1,.6-1.326,1.7,1.7,0,0,1,1.6.559,2.136,2.136,0,0,0,1.553.747,2.352,2.352,0,0,1-.731-2.208.883.883,0,0,1,.2-.447c.307-.327.862-.188,1.23.072a4.58,4.58,0,0,1,1.505,3.845,7.247,7.247,0,0,0,0-1.6,1.625,1.625,0,0,1,.595-1.4,1.816,1.816,0,0,1,.906-.212,1.869,1.869,0,0,1,1.473.4,1.455,1.455,0,0,1-.06,1.8,5.677,5.677,0,0,1-1.521,1.222,3.345,3.345,0,0,0-1.09,1.038.979.979,0,0,0-.08.184h-3.3a9.2,9.2,0,0,1-2.024-1.377Z" transform="translate(-656.24 -327.314)" fill="#6c63ff"/>
    <path id="Path_380" data-name="Path 380" d="M953.426,553.185a2.651,2.651,0,0,1-.862-1.3,1.162,1.162,0,0,1,.6-1.33,1.7,1.7,0,0,1,1.6.563,2.128,2.128,0,0,0,1.549.747,2.364,2.364,0,0,1-.731-2.208.97.97,0,0,1,.2-.451c.307-.327.866-.184,1.234.072a4.607,4.607,0,0,1,1.505,3.845,7.471,7.471,0,0,0,.02-1.6,1.625,1.625,0,0,1,.595-1.4,1.762,1.762,0,0,1,.906-.216,1.885,1.885,0,0,1,1.473.419,1.472,1.472,0,0,1-.06,1.809,5.742,5.742,0,0,1-1.521,1.2,3.345,3.345,0,0,0-1.09,1.038,1.266,1.266,0,0,0-.08.184h-3.3A9.1,9.1,0,0,1,953.426,553.185Z" transform="translate(-627.273 -345.999)" fill="#6c63ff"/>
    <path id="Path_381" data-name="Path 381" d="M813.873,496.58s-1.238,1.617.571,4.057,3.294,4.5,2.7,6.025c0,0-2.727-4.532-4.947-4.6S811.43,499.307,813.873,496.58Z" transform="translate(-542.312 -314.5)" fill="#6c63ff"/>
    <path id="Path_382" data-name="Path 382" d="M813.873,496.58a1.952,1.952,0,0,0-.256.507c-2.164,2.543-3.318,4.919-1.238,4.979,1.94.056,4.268,3.522,4.823,4.392a.614.614,0,0,1-.064.2s-2.727-4.532-4.947-4.6S811.43,499.307,813.873,496.58Z" transform="translate(-542.312 -314.5)" opacity="0.1"/>
    <path id="Path_383" data-name="Path 383" d="M812.29,501.192c0,.571.064,1.03.144,1.03s.14-.459.14-1.03-.08-.3-.156-.3S812.29,500.625,812.29,501.192Z" transform="translate(-543.028 -317.052)" fill="#ffd037"/>
    <path id="Path_384" data-name="Path 384" d="M809.852,502.858c.5.275.938.439.974.371s-.335-.347-.835-.619-.3-.076-.343,0S809.353,502.586,809.852,502.858Z" transform="translate(-541.381 -318.039)" fill="#ffd037"/>
    <path id="Path_385" data-name="Path 385" d="M829.287,496.58s1.238,1.617-.571,4.057-3.294,4.5-2.691,6.025c0,0,2.723-4.532,4.943-4.6S831.73,499.307,829.287,496.58Z" transform="translate(-551.197 -314.5)" fill="#6c63ff"/>
    <path id="Path_386" data-name="Path 386" d="M829.39,496.58a1.954,1.954,0,0,1,.256.507c2.164,2.543,3.318,4.919,1.238,4.979-1.94.056-4.268,3.522-4.823,4.392a1.682,1.682,0,0,0,.068.2s2.723-4.532,4.943-4.6S831.833,499.307,829.39,496.58Z" transform="translate(-551.3 -314.5)" opacity="0.1"/>
    <path id="Path_387" data-name="Path 387" d="M839.734,501.192c0,.571-.064,1.03-.144,1.03s-.14-.459-.14-1.03.08-.3.156-.3S839.734,500.625,839.734,501.192Z" transform="translate(-559.344 -317.052)" fill="#ffd037"/>
    <path id="Path_388" data-name="Path 388" d="M840.671,502.858c-.5.275-.938.439-.974.371s.335-.347.834-.619.3-.076.343,0S841.17,502.586,840.671,502.858Z" transform="translate(-559.491 -318.039)" fill="#ffd037"/>
    <path id="Path_389" data-name="Path 389" d="M819.8,518.491s-3.454-.1-4.5-.846-5.318-1.629-5.59-.439-5.191,5.917-1.294,5.949,9.071-.607,10.11-1.242S819.8,518.491,819.8,518.491Z" transform="translate(-539.805 -326.541)" fill="#a8a8a8"/>
    <path id="Path_390" data-name="Path 390" d="M808.36,525.542c3.9.032,9.068-.607,10.11-1.242.8-.479,1.106-2.212,1.2-3.01h.112s-.216,2.795-1.258,3.422-6.2,1.274-10.11,1.242c-1.126,0-1.513-.4-1.493-1C807.091,525.315,807.522,525.538,808.36,525.542Z" transform="translate(-539.801 -329.344)" opacity="0.2"/>
    <circle id="Ellipse_108" data-name="Ellipse 108" cx="8.636" cy="8.636" r="8.636" transform="translate(42.866 15.532)" fill="#6c63ff" opacity="0.1"/>
    <circle id="Ellipse_109" data-name="Ellipse 109" cx="8.636" cy="8.636" r="8.636" transform="translate(192.238 1.9)" fill="#6c63ff" opacity="0.1"/>
    <circle id="Ellipse_110" data-name="Ellipse 110" cx="8.636" cy="8.636" r="8.636" transform="translate(329.248 36.018)" fill="#6c63ff" opacity="0.1"/>
    <circle id="Ellipse_111" data-name="Ellipse 111" cx="14.474" cy="14.474" r="14.474" transform="translate(0 88.882)" fill="#6c63ff" opacity="0.1"/>
    <circle id="Ellipse_112" data-name="Ellipse 112" cx="14.474" cy="14.474" r="14.474" transform="translate(13.875 160.352)" fill="#6c63ff" opacity="0.1"/>
    <circle id="Ellipse_113" data-name="Ellipse 113" cx="14.474" cy="14.474" r="14.474" transform="translate(284.949 97.311)" fill="#6c63ff" opacity="0.1"/>
    <path id="Path_391" data-name="Path 391" d="M569.06,385.5c-.511.048-1.03.024-1.537.1a7,7,0,0,0-2.4.962c-3.633,2.068-7.063,4.911-8.568,8.808a1.2,1.2,0,0,0-.112.779,1.317,1.317,0,0,0,.423.551l1.413,1.286a2,2,0,0,0,.627.439,2.048,2.048,0,0,0,1.158-.036c3.885-.89,8.013-1.917,10.74-4.823,1.294-1.378,2.487-3.274,4.392-3.326a20.179,20.179,0,0,1,2.332.4,1.7,1.7,0,0,0,1.92-1.01,2.124,2.124,0,0,0-.128-1.13l-1.174-3.909c-.319-1.07-3.542-1.126-4.616-.934C571.9,383.944,570.8,385.342,569.06,385.5Z" transform="translate(-389.323 -246.614)" fill="#65617d"/>
    <path id="Path_392" data-name="Path 392" d="M603.713,427.541a32.87,32.87,0,0,1-.168,4.017,11.718,11.718,0,0,1-.994,3.014,19.794,19.794,0,0,1-2.715,4.276,8.416,8.416,0,0,1-3.717,2.795,3.919,3.919,0,0,1-4.272-1.13,5.659,5.659,0,0,1-.743-3.677,22.521,22.521,0,0,1,2.044-9.163c.607-1.2,1.378-2.34,2-3.55,1.294-2.511,2.032-5.49,4.264-7.223a14.02,14.02,0,0,0,4.432,1.218c.595.064,2.3.1,2.5.866.136.515-.982,1.956-1.2,2.464a16.814,16.814,0,0,0-1.425,6.093Z" transform="translate(-410.145 -266.634)" fill="#65617d"/>
    <path id="Path_393" data-name="Path 393" d="M581.15,269.113a13.686,13.686,0,0,1,1.2,3.721c.08.8,0,1.6,0,2.4a15.647,15.647,0,0,0,.543,3.234l2.224,9.1a11.66,11.66,0,0,1,.491,4.148,21.861,21.861,0,0,0-.447,2.755,10.684,10.684,0,0,0,.335,2.088,12.865,12.865,0,0,1-.335,6.348.95.95,0,0,0-.068.491c.056.26.307.419.535.543a22.8,22.8,0,0,0,7.706,2.567A75.485,75.485,0,0,0,598.4,288.4c.567-3.769.842-7.586,1.569-11.327a.926.926,0,0,1,.26-.575c.271-.228.683-.084,1,.068a89.454,89.454,0,0,1,11.743,6.788,14.669,14.669,0,0,0,2.711-12.142,25.158,25.158,0,0,0-2-5.223,29.5,29.5,0,0,0-3.394-5.7c-2.963-3.713-7.307-6.085-11.779-7.694-2.719-.982-5.518-1.709-8.313-2.452-1.565-.419-4.188-1.785-5.71-.723-1.6,1.106-2.659,3.849-3.314,5.59a20.6,20.6,0,0,0-1.3,6.744,19.053,19.053,0,0,0,1.27,7.355Z" transform="translate(-403.41 -165.789)" fill="#3f3d56"/>
    <path id="Path_394" data-name="Path 394" d="M625.272,315.046c-.834.91-.132,2.364-.291,3.593a4.963,4.963,0,0,1-.587,1.577l-3.821,7.5a13.909,13.909,0,0,0-1.421,3.593c-.523,2.707.551,5.75-.823,8.141a8.582,8.582,0,0,0-1.314,2.3,18.447,18.447,0,0,0-.068,1.94,12.935,12.935,0,0,1-.719,2.16,15.044,15.044,0,0,0-.371,2.124,12.5,12.5,0,0,1-4.488,7.762,7.139,7.139,0,0,1-4.951,1.685,4.3,4.3,0,0,1-3.913-3.11,4.092,4.092,0,0,0-.471-1.741c-.527-.691-1.637-.719-2.144-1.425l1.964-3.234a7.641,7.641,0,0,0,1.334-3.218c.12-1.433-.571-2.863-.323-4.28.212-1.218,1.086-2.232,1.35-3.438.327-1.5-.327-3.011-.683-4.5-.87-3.677.1-7.51,1.074-11.18,1.29-4.855,2.611-9.786,5.222-14.078C615.039,310.027,619.83,312.722,625.272,315.046Z" transform="translate(-415.434 -200.746)" fill="#3f3d56"/>
    <path id="Path_395" data-name="Path 395" d="M617.606,131.771a6.512,6.512,0,0,1,.084,2.683c-.14,2,.284,3.993.188,6.017a35.791,35.791,0,0,1-1.15,5.925c-1.226,5.618-.93,11.471-2.04,17.113-1.37,6.987-4.871,13.5-5.562,20.587-.22,2.252-.192,4.663-1.425,6.564a103.073,103.073,0,0,1-20.65-12.13c1.405-10.425,2.795-20.9,2.607-31.419a13.488,13.488,0,0,1,.263-3.785,11.672,11.672,0,0,1,1.421-2.947c1.545-2.511,3.246-4.923,4.943-7.331,1.086-1.541,2.26-3.158,3.993-3.881s3.785-.4,5.674-.056l6.812,1.246C614.181,130.617,617,130.122,617.606,131.771Z" transform="translate(-407.721 -93.524)" fill="#6c63ff"/>
    <path id="Path_396" data-name="Path 396" d="M522.085,215.272a21.309,21.309,0,0,0-3.034-2.519c1.417-1.725,1.138-4.22,1.485-6.428a21.2,21.2,0,0,1,1.29-4.18c.144-.379.347-.8.743-.9a1.305,1.305,0,0,1,.711.112c1.2.423,3.7.4,4.628,1.174,1.122.942.1,2.915-.327,4.093C527.279,207.414,522.679,215.87,522.085,215.272Z" transform="translate(-366.871 -137.078)" fill="#be6f72"/>
    <path id="Path_397" data-name="Path 397" d="M502.633,398.612a8.273,8.273,0,0,1,1.154,3.194,3.17,3.17,0,0,1-1.286,2.975,4.432,4.432,0,0,1-3.5.04,18.223,18.223,0,0,1-11.04-9.982,4.94,4.94,0,0,0-2.9-3.434,8.492,8.492,0,0,1-3.809-3.705,3.972,3.972,0,0,1,1.106-4.843,4.081,4.081,0,0,1,3.13-.4,12.106,12.106,0,0,1,2.963,1.29,29.541,29.541,0,0,1,4.791,2.691,30.883,30.883,0,0,1,3.294,3.482,48.973,48.973,0,0,1,3.286,4.192C500.15,394.539,502.909,398.225,502.633,398.612Z" transform="translate(-343.942 -245.854)" fill="#65617d"/>
    <path id="Path_398" data-name="Path 398" d="M445.537,384.781a27.658,27.658,0,0,1-1.058,5.929,5.485,5.485,0,0,1-1.649,2.907,6.033,6.033,0,0,1-2.519.922,1.807,1.807,0,0,1-2.244-.982,17.1,17.1,0,0,1-3.194-5.769c-.8-3.1,0-6.428,1.385-9.327a9.547,9.547,0,0,1,2.136-3.11,8.181,8.181,0,0,1,3.921-1.761c1.473-.3,3.282-.926,3.39.866A83.3,83.3,0,0,1,445.537,384.781Z" transform="translate(-316.113 -240.405)" fill="#65617d"/>
    <path id="Path_399" data-name="Path 399" d="M451.413,214.19c2.755,1.425,5.813,3.238,6.388,6.285.355,1.861-.327,3.765-.216,5.658.1,1.665.8,3.274.711,4.935a23.223,23.223,0,0,1-.4,2.336,37.8,37.8,0,0,0-.156,4.464c-.132,3.354-1.254,6.58-1.8,9.89a28.968,28.968,0,0,0-.268,7.151c.132,1.541.4,3.074.4,4.624a20.254,20.254,0,0,1-.276,3.331,33.218,33.218,0,0,1-3.194,9.929c-1.92,3.781-1.649,8.66-1.445,12.9a3.194,3.194,0,0,1-.216,1.725c-.5.914-1.757,1.046-2.795.958a15.172,15.172,0,0,1-9.982-5.055,2.559,2.559,0,0,1-.727-1.346c-.088-.854.6-1.557,1.094-2.264,1.685-2.4,1.258-5.642,1.457-8.584a18.766,18.766,0,0,1,1.513-6.209,11.672,11.672,0,0,0,1.226-3.5,8.833,8.833,0,0,0-.595-3.4l-1.2-3.8c-1.857-5.905-3.725-11.846-6.536-17.36a8.684,8.684,0,0,0-3.693,5.191c-1.046,3.761.443,7.962-.982,11.579a10.589,10.589,0,0,0-.587,1.553,6.249,6.249,0,0,0-.1,1.393,113.448,113.448,0,0,0,.711,11.647,3.593,3.593,0,0,0,.479,1.665c.236.339.579.591.831.914a4.331,4.331,0,0,1,.4,3.306l-.8,5.342a1.449,1.449,0,0,1-.26.755,1.43,1.43,0,0,1-.679.367,18.925,18.925,0,0,1-7.85.719,5.207,5.207,0,0,1-2.136-1.054c-.068-.8.926-1.33.962-2.124a1.833,1.833,0,0,0-.611-1.222c-1.485-1.677-3.258-3.458-3.242-5.7,0-.587.14-1.174.12-1.761-.052-1.505-1.09-2.795-1.453-4.244-.447-1.793.148-3.653.375-5.486a28.342,28.342,0,0,0-.4-7.43l-1.338-9.04a24.215,24.215,0,0,0-.831-4.144,32.447,32.447,0,0,0-1.769-3.889c-1.278-2.6-2.328-5.294-3.374-7.985a7.278,7.278,0,0,1-.619-2.312,5.632,5.632,0,0,1,1.525-3.717,11.623,11.623,0,0,1,6.388-3.873,2.8,2.8,0,0,1,1.282-.052,3.441,3.441,0,0,1,.994.523,23.884,23.884,0,0,0,21.11,2.5,1.74,1.74,0,0,0,1.6-.044,20.44,20.44,0,0,0,3.454-2.4A20.565,20.565,0,0,1,451.413,214.19Z" transform="translate(-299.897 -144.86)" fill="#3f3d56"/>
    <path id="Path_400" data-name="Path 400" d="M309.89,462.673a5.463,5.463,0,0,0,.942,1.681c1.445,1.885,3.462,3.39,4.392,5.59.2.471.339.966.519,1.445a9.507,9.507,0,0,0,2.6,3.761,15.971,15.971,0,0,0,2.863,1.9,11.549,11.549,0,0,0,5.678,1.781,6.168,6.168,0,0,0,1.2-.144,6.478,6.478,0,0,0,1.785-.655c1.29-.711,2.4-2.1,2.14-3.549a3.247,3.247,0,0,0-.26-.8,8.386,8.386,0,0,0-.731-1.154,8.666,8.666,0,0,0-2.356-2.491c-1.11-.679-2.507-.846-3.506-1.685a5.51,5.51,0,0,1-1.01-1.222,15.4,15.4,0,0,1-2-4.524,7,7,0,0,0-1.381-3.39,8.448,8.448,0,0,0-4.44-1.393,3.384,3.384,0,0,1-1.7-.084c-.535-.268-.715-.647-1.362-.595a2.8,2.8,0,0,0-1.4.611A4.716,4.716,0,0,0,309.89,462.673Z" transform="translate(-241.132 -290.806)" fill="#3f3d56"/>
    <path id="Path_401" data-name="Path 401" d="M328.536,467.488a6.175,6.175,0,0,0,1.7,3.677c.667.575,1.6.934,1.928,1.745a2.846,2.846,0,0,1-.647,2.571,9.47,9.47,0,0,1-2.571,2.36,3.844,3.844,0,0,1-2.827.691,4.72,4.72,0,0,1-2.024-1.318,14.054,14.054,0,0,1-3.53-4.276c-.8-1.789-.838-3.861-1.709-5.622a18.455,18.455,0,0,1-1.6-3.026,1.881,1.881,0,0,1,0-1.23,1.733,1.733,0,0,1,1.565-.93,5.447,5.447,0,0,1,1.873.4,41.242,41.242,0,0,0,5.522,1.545c.747.14,1.2.136,1.6.858a8.608,8.608,0,0,1,.715,2.555Z" transform="translate(-245.591 -293.804)" fill="#fbbebe"/>
    <path id="Path_402" data-name="Path 402" d="M356.193,500.763a4.391,4.391,0,0,0-.619,1.485,3.318,3.318,0,0,0-.044,1.254,6.479,6.479,0,0,0,1.785-.655c1.29-.711,2.4-2.1,2.14-3.549a3.247,3.247,0,0,0-.26-.8,1.114,1.114,0,0,0-1.062.331,8.82,8.82,0,0,0-1.94,1.932Z" transform="translate(-268.616 -315.637)" fill="#fbbebe"/>
    <path id="Path_403" data-name="Path 403" d="M321.135,424.421a1.965,1.965,0,0,0-.148,1.2c.184.8,1,1.258,1.741,1.621l7.023,3.434a14.717,14.717,0,0,1,1.421.755,20.934,20.934,0,0,1,3.162,2.723,8.3,8.3,0,0,0,3.514,2.176,5.937,5.937,0,0,0,3.993-.523,8.252,8.252,0,0,0,1.829-1.242,11.241,11.241,0,0,0,1.318-1.37,2.955,2.955,0,0,0,.715-1.29,2.831,2.831,0,0,0-.655-2.052,9.478,9.478,0,0,0-.8-.99c-2.663-2.943-7.027-4.468-10.78-5.067a30.694,30.694,0,0,1-4.348-1.254,10.181,10.181,0,0,0-4.452-.587A4.407,4.407,0,0,0,321.135,424.421Z" transform="translate(-247.868 -269.631)" fill="#3f3d56"/>
    <path id="Path_404" data-name="Path 404" d="M321.135,424.421a1.965,1.965,0,0,0-.148,1.2c.184.8,1,1.258,1.741,1.621l7.023,3.434a14.717,14.717,0,0,1,1.421.755,20.934,20.934,0,0,1,3.162,2.723,8.3,8.3,0,0,0,3.514,2.176,5.937,5.937,0,0,0,3.993-.523,8.252,8.252,0,0,0,1.829-1.242,11.241,11.241,0,0,0,1.318-1.37,2.955,2.955,0,0,0,.715-1.29,2.831,2.831,0,0,0-.655-2.052,9.478,9.478,0,0,0-.8-.99c-2.663-2.943-7.027-4.468-10.78-5.067a30.694,30.694,0,0,1-4.348-1.254,10.181,10.181,0,0,0-4.452-.587A4.407,4.407,0,0,0,321.135,424.421Z" transform="translate(-247.868 -269.631)" opacity="0.1"/>
    <path id="Path_405" data-name="Path 405" d="M357.23,431.93a7.986,7.986,0,0,1,1.318,2.032,2.276,2.276,0,0,1,.3,1.625,2.372,2.372,0,0,1-.731.958l-.7.647a2.794,2.794,0,0,1-.727.543,2.906,2.906,0,0,1-1.2.18,4.463,4.463,0,0,1-2.711-.563,3,3,0,0,1-.755-3.5,7.548,7.548,0,0,1,2.471-2.9C355.314,430.293,356.66,431.327,357.23,431.93Z" transform="translate(-266.388 -274.948)" fill="#fbbebe"/>
    <path id="Path_406" data-name="Path 406" d="M376.011,441.213a3.55,3.55,0,0,0,.18,1.976c.176.6.347,1.2.519,1.809v.024a11.243,11.243,0,0,0,1.318-1.37,2.954,2.954,0,0,0,.715-1.29,2.831,2.831,0,0,0-.655-2.052,9.479,9.479,0,0,0-.8-.99c-.188.244-.351.483-.487.639A3.525,3.525,0,0,0,376.011,441.213Z" transform="translate(-280.904 -280.102)" fill="#fbbebe"/>
    <path id="Path_407" data-name="Path 407" d="M329.037,330.6c-.826,3.474-.475,7.107-.036,10.653.335,2.7.711,5.494-.088,8.093a6.5,6.5,0,0,0-.583,2.959c.339,1.889,2.615,2.615,4.5,2.971a4.436,4.436,0,0,0,1.665.1,3.952,3.952,0,0,0,1.517-.8,16.586,16.586,0,0,0,5.841-7.766,28.73,28.73,0,0,0,1.162-6.492,45.428,45.428,0,0,0,.2-11.088c-.16-1.078-.4-2.144-.5-3.23a23.339,23.339,0,0,1,.311-5.65,91.139,91.139,0,0,1,3.114-13.631,18.367,18.367,0,0,1-11.052-2c.655.351-.1,5.953-.176,6.74a45.744,45.744,0,0,1-1.266,6.947C332.534,322.667,330.047,326.365,329.037,330.6Z" transform="translate(-252.276 -199.244)" fill="#3f3d56"/>
    <path id="Path_408" data-name="Path 408" d="M329.037,330.6c-.826,3.474-.475,7.107-.036,10.653.335,2.7.711,5.494-.088,8.093a6.5,6.5,0,0,0-.583,2.959c.339,1.889,2.615,2.615,4.5,2.971a4.436,4.436,0,0,0,1.665.1,3.952,3.952,0,0,0,1.517-.8,16.586,16.586,0,0,0,5.841-7.766,28.73,28.73,0,0,0,1.162-6.492,45.428,45.428,0,0,0,.2-11.088c-.16-1.078-.4-2.144-.5-3.23a23.339,23.339,0,0,1,.311-5.65,91.139,91.139,0,0,1,3.114-13.631,18.367,18.367,0,0,1-11.052-2c.655.351-.1,5.953-.176,6.74a45.744,45.744,0,0,1-1.266,6.947C332.534,322.667,330.047,326.365,329.037,330.6Z" transform="translate(-252.276 -199.244)" opacity="0.1"/>
    <path id="Path_409" data-name="Path 409" d="M343.846,302.571c1.6,4.628,1.246,9.682.555,14.53s-1.709,9.694-1.409,14.577c.116,1.917.427,3.885-.132,5.718a12.5,12.5,0,0,1-1.226,2.551l-12.741,22.032a3.961,3.961,0,0,1-3.194,2,9.25,9.25,0,0,1-3.969-.85,7.138,7.138,0,0,1-2.312-1.282,2.735,2.735,0,0,1-.974-2.34c.571-3.825,1.429-7.742,2.064-11.579a20.044,20.044,0,0,1,2.771-7.335c.986-1.6,2.2-3.03,3.05-4.691,2.444-4.759,1.6-10.565-.287-15.572s-4.691-9.654-6.189-14.773a16.936,16.936,0,0,1-.755-4.392,11.711,11.711,0,0,1,3.338-8.329,2.927,2.927,0,0,1,1.154-.8,3.234,3.234,0,0,1,1.573.028C332.259,293.44,341.5,295.735,343.846,302.571Z" transform="translate(-246.356 -191.573)" fill="#3f3d56"/>
    <path id="Path_410" data-name="Path 410" d="M627.907,137.347a8.019,8.019,0,0,1-1.3,5.031,14.228,14.228,0,0,1-17.288,5.538,27.615,27.615,0,0,1-6.676-4.66,5.942,5.942,0,0,1-1.769-2.072,4.029,4.029,0,0,1,1.346-4.352,11.434,11.434,0,0,1,4.364-2.072C611.764,133.147,626.673,128.06,627.907,137.347Z" transform="translate(-415.893 -95.436)" fill="#fbbebe"/>
    <path id="Path_411" data-name="Path 411" d="M644.391,131.563c4.715,3.793,11.579,7.407,16.921,10.217,1.817.958,3.833,2.036,4.488,3.993a7.774,7.774,0,0,1,.12,3.286,22.166,22.166,0,0,1-1.274,6.241c-.962,2.3-2.663,4.2-4.029,6.3-2.4,3.665-3.8,7.985-6.76,11.224,2,6.632,4.18,13.256,4.891,20.139a.926.926,0,0,1-.06.563.966.966,0,0,1-.311.283l-4.967,3.258a5.591,5.591,0,0,0-1.433,1.2c-.878,1.142-.763,2.747-1.306,4.077a5.3,5.3,0,0,1-3.074,2.795,9.467,9.467,0,0,1-4.228.447,9.83,9.83,0,0,1-5.047-1.777,13.96,13.96,0,0,1-3.038-3.629,14.131,14.131,0,0,1-1.6-2.911,13.108,13.108,0,0,1-.543-4.636,49.006,49.006,0,0,1,.85-8.876c.232-1.162.519-2.308.7-3.478.367-2.356.3-4.759.567-7.127a47.934,47.934,0,0,1,1.777-7.854,40.516,40.516,0,0,0,1.038-4.831,52.98,52.98,0,0,1,2.328-8.385l1.6-4.715c.339-1.018.683-2.032,1.086-3.026a23.549,23.549,0,0,0,1.972-5.646c.284-2.16-2.048-4.723-1.262-6.752C643.864,131.715,644.212,131.419,644.391,131.563Z" transform="translate(-435.408 -95.201)" fill="#3f3d56"/>
    <path id="Path_412" data-name="Path 412" d="M669.13,164.42a4.531,4.531,0,0,1,2.112,2.839,16.09,16.09,0,0,1,.623,8.065,14.437,14.437,0,0,0-.319,2.06,13.743,13.743,0,0,0,.236,2.4c.4,3.054,0,6.157.132,9.239.136,3.466.89,7.127-.563,10.277a14.683,14.683,0,0,1-4.6,5.063,92.04,92.04,0,0,1-22.028,12.713,5.766,5.766,0,0,0,.479-6.029,11.212,11.212,0,0,0-4.392-4.5,28.3,28.3,0,0,0,6.608-2.36c4.184-2.124,7.77-5.234,11.311-8.313a3.442,3.442,0,0,0,1.174-1.485c.359-1.2-.631-2.336-1.318-3.386-2.08-3.194-1.6-7.367-.727-11.064a28.63,28.63,0,0,1,4.995-11.347A11.223,11.223,0,0,1,669.13,164.42Z" transform="translate(-440.016 -114.962)" fill="#3f3d56"/>
    <path id="Path_413" data-name="Path 413" d="M629.2,281.659a5.457,5.457,0,0,1-1.373,1.509c-1.2.8-2.843.5-4.18-.072a12.2,12.2,0,0,1-3.394-2.16,5.319,5.319,0,0,0-1.505-1.118c-1.046-.4-2.507-.1-3.094-1.062a.563.563,0,0,1-.1-.343c.036-.347.491-.443.843-.463a10.457,10.457,0,0,0,4.62-1.425,4.436,4.436,0,0,1-1.134-1.2.935.935,0,0,1-.192-.567,1.014,1.014,0,0,1,.347-.567,8.888,8.888,0,0,1,9.774-1.629,1.948,1.948,0,0,1,.8.6,2.216,2.216,0,0,1,.291.8c.26,1.118,1.2,2.795.859,3.925C631.39,279.184,629.973,280.561,629.2,281.659Z" transform="translate(-424.846 -179.449)" fill="#fbbebe"/>
    <path id="Path_414" data-name="Path 414" d="M574.7,184.666c4.967-5.738,7.187-13.288,9.247-20.59l1.473-5.191,3.554-12.5c.523-1.845,1.046-3.689,1.393-5.57a51.54,51.54,0,0,0,.615-9.862,10.672,10.672,0,0,0-.922-3.961c-.347-.862-.515-1.781-.8-2.671a13.33,13.33,0,0,0-1.6-3.51,3.675,3.675,0,0,0-.723-.862,4.2,4.2,0,0,0-1.633-.663,14.374,14.374,0,0,0-3.909-.595,4.845,4.845,0,0,0-3.546,1.513,18.374,18.374,0,0,0-1.465,2.635,10.268,10.268,0,0,0-.651,1.106,5.591,5.591,0,0,0-.359,1.813q-.311,3.773-.531,7.554c-.068,1.146-.128,2.3-.084,3.45.036.894.132,1.785.228,2.675l.946,8.72c.22,2.048.064,3.965.248,6.017.447,4.955-.619,9.91-1.713,14.773a26.57,26.57,0,0,1-2.18,6.748c-.986,1.853-2.464,3.733-2.072,5.8a20.13,20.13,0,0,1,.555,2.116,4.25,4.25,0,0,0,.132,1.338,1.6,1.6,0,0,0,1.7.8A3.957,3.957,0,0,0,574.7,184.666Z" transform="translate(-397.567 -87.491)" fill="#3f3d56"/>
    <path id="Path_415" data-name="Path 415" d="M570.682,217.983c.152,1.146.036,2.308.092,3.462a23.351,23.351,0,0,0,.8,4.392c.4,1.6.91,3.386,2.32,4.272a7.289,7.289,0,0,1,1.01.635.982.982,0,0,1,.327,1.07l-1.1-.184a1.114,1.114,0,1,1-1.533,1.6,2.6,2.6,0,0,1-.1,1.07.87.87,0,0,1-.8.6,1.286,1.286,0,0,1-.571-.24l-2.867-1.777a5.29,5.29,0,0,1-2.064-2l-1.254-1.889a4.513,4.513,0,0,1-.651-1.2c-.467-1.6.839-3.37.16-4.875a6.554,6.554,0,0,0-.715-1.046c-1.449-2-1.358-4.711-1.2-7.187.052-.834.2-1.825.958-2.188a1.969,1.969,0,0,1,1.873.331,7.954,7.954,0,0,0,1.677,1.058c.4.136.839.152,1.238.3.559.2,1.078.958,1.453,1.409A4.676,4.676,0,0,1,570.682,217.983Z" transform="translate(-392.946 -143.77)" fill="#fbbebe"/>
    <path id="Path_416" data-name="Path 416" d="M477.3,103.21a7.1,7.1,0,0,1-1.405,2.1,2.719,2.719,0,0,1-2.316.8,4.089,4.089,0,0,1-2.124-1.6,27.85,27.85,0,0,1-4.116-5.758c-1.573-3.246-1.825-6.951-2.052-10.549a5.006,5.006,0,0,1,.339-2.719,5,5,0,0,1,2.859-1.932l6.089-2.276a2.36,2.36,0,0,1,1.2-.22c.954.16,1.306,1.31,1.565,2.24a13.974,13.974,0,0,0,2.276,4.632c1.366,1.821,4.428,4.272,2.679,6.544A50.223,50.223,0,0,0,477.3,103.21Z" transform="translate(-334.553 -64.88)" fill="#be6f72"/>
    <path id="Path_417" data-name="Path 417" d="M461.2,95.592c2.667,2.507,3.57,6.412,3.442,10.066s-1.142,7.215-1.721,10.824-.695,7.462.874,10.78a27.128,27.128,0,0,1,1.649,3.394,10.649,10.649,0,0,1,.315,3.645,10.409,10.409,0,0,1-.727,3.769c-.85,1.885-2.6,3.194-4.272,4.392-3.414,2.467-6.9,4.975-10.9,6.265a33.408,33.408,0,0,1-8.433,1.318,26.823,26.823,0,0,1-5.773-.164,15.679,15.679,0,0,1-8.764-4.64,4.91,4.91,0,0,1-.994-1.37,5.69,5.69,0,0,1-.347-2.076q-.144-3.933.048-7.866a34.576,34.576,0,0,1,1.026-7.407c.763-2.795,2.084-5.414,3.086-8.137,3.49-9.467,3.138-20.239,7.985-29.079,1.046-1.909,2.795-3.917,4.951-3.613a1.661,1.661,0,0,1,1.094.5,2.3,2.3,0,0,1,.4,1.23c.515,4.3,1.246,8.7,3.27,12.581.8,1.521,2,3.837,3.837,4.244s2.927-1.35,3.913-2.6a31.865,31.865,0,0,1,6.045-6.065Z" transform="translate(-310.665 -67.651)" fill="#e3e8f4"/>
    <path id="Path_418" data-name="Path 418" d="M522.422,90.547a7.956,7.956,0,0,1,1.513,1.062,6.119,6.119,0,0,1,1.629,4.516,35.1,35.1,0,0,1-.639,4.9c-.643,4.392-.1,8.888.16,13.336a6.457,6.457,0,0,1-.128,2.148c-.2.671-.6,1.262-.858,1.913-.763,1.924-.188,4.12-.635,6.141-.479,2.152-2.12,4.109-1.813,6.293.124.854.535,1.641.711,2.487a2.187,2.187,0,0,1-.707,2.324c-.731.455-1.793.124-2.663.375a8.211,8.211,0,0,0-1.03.463,5.061,5.061,0,0,1-4.276-.264,12.96,12.96,0,0,1-3.454-2.739,14.2,14.2,0,0,1-3.661-5.334c-.974-3-.108-6.273.95-9.251s2.32-5.989,2.132-9.155a40.346,40.346,0,0,0-1-5.219,33.381,33.381,0,0,1-.443-7.307,13,13,0,0,1,.942-5.25,7.231,7.231,0,0,1,5.718-3.913C517.667,87.764,520.063,89.19,522.422,90.547Z" transform="translate(-359.12 -69.071)" fill="#3f3d56"/>
    <path id="Path_419" data-name="Path 419" d="M527.93,162.027a12.174,12.174,0,0,0,.679,3.749,14.917,14.917,0,0,0,.894-5.23A102.81,102.81,0,0,1,532.7,142.77c-1.05.8-1.641,2.795-2.144,3.993a35.207,35.207,0,0,0-2.623,15.264Z" transform="translate(-372.177 -101.957)" opacity="0.1"/>
    <path id="Path_420" data-name="Path 420" d="M411.271,84.093c-1.924.507-3.593,1.649-5.458,2.4a40.762,40.762,0,0,1-6.053,1.629c-4.7,1.142-9.427,3.262-12.266,7.187-2.092,2.887-2.959,6.452-4.392,9.722-1.2,2.743-2.795,5.314-3.677,8.169-1.154,3.725-1.022,7.718-.739,11.607.232,3.194.583,6.424,2.032,9.255.759,1.485,1.8,2.815,2.563,4.3.91,1.785,1.389,3.753,2.148,5.59a8.929,8.929,0,0,0,3.633,4.632l2.915-1.7c4.348-2.543,8.7-5.091,12.908-7.854,3.673-2.4,7.379-5.147,9.335-9.083,1.733-3.478,1.9-7.542,1.457-11.4s-1.469-7.638-2-11.487a46.257,46.257,0,0,1,.3-14.577c.4-2.172,1.461-4.416,1.681-6.58C415.906,83.578,412.936,83.654,411.271,84.093Z" transform="translate(-282.434 -66.562)" fill="#3f3d56"/>
    <path id="Path_421" data-name="Path 421" d="M403.451,235.936c2.232,2.112,5.442,2.727,8.233,3.993a17.676,17.676,0,0,1,5.5,3.993c.858.942,1.689,2.224,1.258,3.422a3.817,3.817,0,0,1-2.5,1.94,5.684,5.684,0,0,1-3.953.419,14.194,14.194,0,0,1-2.024-1.254c-1.673-.994-3.781-1-5.5-1.917-2.42-1.294-3.625-4.14-5.9-5.678-1.246-.838-2.967-1.525-3.094-3.023a3.654,3.654,0,0,1,.335-1.569c.459-1.222,1.242-5.418,2.991-5.306C400.7,231.08,402.034,234.925,403.451,235.936Z" transform="translate(-292.633 -154.931)" fill="#fbbebe"/>
    <path id="Path_422" data-name="Path 422" d="M354.68,179.594a19.1,19.1,0,0,0,4.188,6.951c1.266,1.5,2.655,3.126,2.7,5.087a5.361,5.361,0,0,1-2.795,4.5,11.842,11.842,0,0,1-5.326,1.37,13.435,13.435,0,0,1-4.416-.307c-3.649-.99-6.181-4.172-9.052-6.632-1.7-1.457-3.621-2.727-4.927-4.552s-1.857-4.444-.571-6.285a9.1,9.1,0,0,1,1.6-1.6,26.7,26.7,0,0,0,5.506-6.608,7.118,7.118,0,0,1,2.152-2.691c1.425-.866,3.254-.471,4.867-.048,1.753.459,6.692,1.358,7.035,3.593.14.918-1,2.348-1.17,3.334a8.832,8.832,0,0,0,.212,3.881Z" transform="translate(-255.557 -117.304)" fill="#fbbebe"/>
    <path id="Path_423" data-name="Path 423" d="M353.149,193.744a16.86,16.86,0,0,1,1.286,2.975c1.218,4.232-.958,8.592-2,12.873-1.326,5.482-.763,11.216-.826,16.857-.028,2.579-.3,5.418-2.16,7.207a6.689,6.689,0,0,0-1.378,1.413,5.848,5.848,0,0,0-.443,1.322,6.812,6.812,0,0,1-9.87,4.065c-1.513-.842-2.827-2.3-4.56-2.348a13.217,13.217,0,0,0-1.625.18,11.15,11.15,0,0,1-5.031-1.094,3.282,3.282,0,0,1-1.062-.567c-.292-.268-.479-.627-.747-.914-.986-1.062-2.671-.878-4.093-1.174a5.729,5.729,0,0,1-4.34-4.34,11.2,11.2,0,0,1,.2-4.18l1.07-6.173a56.832,56.832,0,0,0,.93-6.856,28.749,28.749,0,0,0-.663-7.75,62.1,62.1,0,0,1-1.429-6.225,15.208,15.208,0,0,1,2.795-10.7,3.321,3.321,0,0,1,2.224-1.6,3.738,3.738,0,0,1,2.14.731q8.636,5.111,17.392,10.01a20.577,20.577,0,0,0,5.011,2.244c.535.136,1.3.08,1.378-.463a1.01,1.01,0,0,0-.156-.587c-1-1.921-2.444-3.569-3.593-5.4a9.154,9.154,0,0,1-1.7-6.117c.463-2.939,3.194-4.883,5.426-2.579C349.831,187.168,351.508,190.53,353.149,193.744Z" transform="translate(-244.998 -126.447)" fill="#f86d70"/>
    <path id="Path_424" data-name="Path 424" d="M347.934,293.638c4.683.3,9.471.619,13.807,2.416,1.393.575,2.871,1.318,4.336.962a5.8,5.8,0,0,0,2-1.07,45.672,45.672,0,0,0,5.1-4.352c-.16-.874-1.346-.994-2.232-.986a13.34,13.34,0,0,1-6.213-1.493,10.468,10.468,0,0,0-2-.93c-1.9-.523-3.829.475-5.734.962-2.819.719-5.789.3-8.668-.124l-7.77-1.146a2.776,2.776,0,0,0-2.112.26,2.579,2.579,0,0,0-.755,1.354c-.95,3.194-.5,3.462,2.667,3.661Z" transform="translate(-257.663 -189.076)" fill="#fbbebe"/>
    <circle id="Ellipse_114" data-name="Ellipse 114" cx="12.777" cy="12.777" r="12.777" transform="translate(183.59 23.573)" opacity="0.1"/>
    <circle id="Ellipse_115" data-name="Ellipse 115" cx="12.777" cy="12.777" r="12.777" transform="translate(183.498 23.018)" fill="#fbbebe"/>
    <path id="Path_425" data-name="Path 425" d="M620.683,84.14a6.81,6.81,0,0,1,2.651,2.372,11.87,11.87,0,0,1,.683,2.236c.7,2.4,2.559,4.476,2.671,6.971.124,2.735-1.928,5.111-4.252,6.544a3.154,3.154,0,0,1-1.829.615,5.88,5.88,0,0,1-1.877-.739c-2.623-1.166-5.558.311-8.337.99a14.965,14.965,0,0,1-8.7-.511,8.236,8.236,0,0,1-3.889-2.7,4.267,4.267,0,0,1-.475-4.508c.4-.711,1.062-1.354,1.018-2.164a11.2,11.2,0,0,0-.4-1.405,3.232,3.232,0,0,1,.679-2.156,31.206,31.206,0,0,1,6.907-7.814,4.941,4.941,0,0,1,2.767-1.342c2.1-.092,3.9,1.473,6.065,1.481A11.345,11.345,0,0,1,620.683,84.14Z" transform="translate(-413.624 -64.567)" fill="#3f3d56"/>
    <circle id="Ellipse_116" data-name="Ellipse 116" cx="13.176" cy="13.176" r="13.176" transform="translate(136.064 6.744)" opacity="0.1"/>
    <circle id="Ellipse_117" data-name="Ellipse 117" cx="13.176" cy="13.176" r="13.176" transform="translate(136.296 6.42)" fill="#be6f72"/>
    <path id="Path_426" data-name="Path 426" d="M495.22,67.6a8.8,8.8,0,0,0,6.233.459,8.385,8.385,0,0,0,3.274-1.381,3.949,3.949,0,0,0,1.649-3.034c0-1.338-.878-2.543-.986-3.881-.132-1.685.966-3.242,1.082-4.935a8.584,8.584,0,0,0-1.533-4.671,26.157,26.157,0,0,0-4.991-6.931c-2.132-1.909-5.087-3.126-7.882-2.483-1.374.315-2.647,1.054-4.049,1.2a17.062,17.062,0,0,1-3.717-.419,4.267,4.267,0,0,0-3.526.8c-.487.479-.8,1.154-1.37,1.505a8.216,8.216,0,0,1-1.2.443c-1.441.579-2.1,2.2-2.611,3.665l-3.426,9.818a27.469,27.469,0,0,0,3.781,1.777,4.574,4.574,0,0,1,2.727,2.971c.2,1.042-.176,2.24.431,3.11a2.7,2.7,0,0,0,2.643.8,9.977,9.977,0,0,1,2.879-.319c2.4.363,3.286,1.833,5.5,0S493.16,66.441,495.22,67.6Z" transform="translate(-338.709 -40.56)" fill="#3f3d56"/>
    <circle id="Ellipse_118" data-name="Ellipse 118" cx="11.978" cy="11.978" r="11.978" transform="translate(81.5 37.332)" opacity="0.1"/>
    <circle id="Ellipse_119" data-name="Ellipse 119" cx="11.978" cy="11.978" r="11.978" transform="translate(81.963 36.681)" fill="#fbbebe"/>
    <path id="Path_427" data-name="Path 427" d="M342.971,124.312a31.59,31.59,0,0,0-9.475-4.983,11.588,11.588,0,0,0-6.788-.543c-3.011.858-7.039,2.14-8.9,4.66a13.346,13.346,0,0,0-2.292,3.993c-.886,2.979.375,6.153.291,9.259-.1,3.621-2.02,6.927-4.116,9.882s-2.519,7.187-3.757,10.6c-.423,1.17-.559,2.795.531,3.382.958.531,2.116-.132,3-.771l5.33-3.853a4.061,4.061,0,0,1,1.405-.751c1.1-.256,2.172.431,3.09,1.082l11.18,7.906a3.43,3.43,0,0,0,.052-2.907,11.3,11.3,0,0,1,2.735,1.821c.922.623,2.324.826,2.995-.044a2.109,2.109,0,0,0-.583-2.743c-.747-.7-1.729-1.122-2.46-1.845-1.449-1.441-1.6-3.717-2.511-5.538-.655-1.278-1.713-2.348-2.176-3.709-.755-2.224.232-4.62,1.2-6.76,1.154-2.539,2.46-5.25,4.915-6.576.826-.447,1.741-.711,2.587-1.118a13.949,13.949,0,0,0,5.769-5.53C345.894,127.327,344.5,125.494,342.971,124.312Z" transform="translate(-239.859 -87.364)" fill="#3f3d56"/>
    <path id="Path_428" data-name="Path 428" d="M322.8,231.641c1.146.731,2.44,1.2,3.565,1.96a4.352,4.352,0,0,1,2.144,3.278,5.764,5.764,0,0,1-1.6,3.466L317.19,253.11l4.959,1.314a12.951,12.951,0,0,0-1.417,3.8c-.415,1.294-1.2,2.639-2.523,2.979-1.2.307-2.452-.323-3.689-.252-.914.056-1.777.487-2.691.523a5.715,5.715,0,0,1-3.254-1.23c-2.188-1.465-4.36-3.565-4.344-6.2a9.38,9.38,0,0,1,.531-2.611c1.433-4.675,2.919-9.463,5.889-13.352a41.919,41.919,0,0,1,5.5-5.57,5.131,5.131,0,0,1,1.541-1.066c1.278-.479,2.671.112,3.993.5s2.987.439,3.749-.691" transform="translate(-237.823 -155.109)" opacity="0.1"/>
    <path id="Path_429" data-name="Path 429" d="M321.76,229.629c1.146.727,2.44,1.2,3.566,1.96a4.367,4.367,0,0,1,2.148,3.274,5.611,5.611,0,0,1-1.6,3.47l-9.73,12.753,4.959,1.314a12.911,12.911,0,0,0-1.417,3.8,4.11,4.11,0,0,1-2.523,2.979c-1.2.307-2.452-.323-3.689-.252-.914.052-1.777.487-2.691.519a5.716,5.716,0,0,1-3.254-1.23c-2.188-1.461-4.36-3.566-4.34-6.2a9.183,9.183,0,0,1,.527-2.611c1.433-4.679,2.919-9.467,5.889-13.352a43.053,43.053,0,0,1,5.5-5.59,5.278,5.278,0,0,1,1.541-1.066c1.278-.479,2.671.112,3.993.5s2.987.439,3.749-.691" transform="translate(-237.198 -153.883)" fill="#f86d70"/>
    <g id="Group_70" data-name="Group 70" transform="translate(183.253 25.254)" opacity="0.1">
      <path id="Path_430" data-name="Path 430" d="M598.216,119.52a8.228,8.228,0,0,0,3.889,2.7,14.9,14.9,0,0,0,8.7.511c2.795-.679,5.714-2.156,8.337-.99a5.868,5.868,0,0,0,1.873.743,3.194,3.194,0,0,0,1.833-.619,9.447,9.447,0,0,0,3.813-4.164,1.028,1.028,0,0,0,.024.268c.124,2.735-1.928,5.111-4.252,6.544a3.154,3.154,0,0,1-1.829.615,5.88,5.88,0,0,1-1.877-.739c-2.623-1.166-5.558.311-8.337.99a14.965,14.965,0,0,1-8.7-.511,8.236,8.236,0,0,1-3.889-2.7,4.267,4.267,0,0,1-.475-4.508l.06-.1A4.884,4.884,0,0,0,598.216,119.52Z" transform="translate(-596.877 -112.066)"/>
      <path id="Path_431" data-name="Path 431" d="M600.3,104.583a2.8,2.8,0,0,1-.695,1.653,2.522,2.522,0,0,1-.116-.4,3.079,3.079,0,0,1,.6-2.036A2.655,2.655,0,0,1,600.3,104.583Z" transform="translate(-598.434 -103.8)"/>
    </g>
    <path id="Path_432" data-name="Path 432" d="M476.518,53.155l-3.426,9.814a27.012,27.012,0,0,0,3.781,1.777,4.565,4.565,0,0,1,2.727,2.971c.2,1.042-.176,2.24.431,3.114a2.71,2.71,0,0,0,2.643.8,10.118,10.118,0,0,1,2.879-.319c2.4.363,3.286,1.833,5.5.02s3.018.339,5.079,1.5a8.758,8.758,0,0,0,6.233.459,8.385,8.385,0,0,0,3.274-1.377,5.1,5.1,0,0,0,.4-.363,4.448,4.448,0,0,1-1.342,1.661,8.385,8.385,0,0,1-3.274,1.381,8.792,8.792,0,0,1-6.233-.459c-2.06-1.158-2.907-3.27-5.079-1.5s-3.114.343-5.5,0a9.992,9.992,0,0,0-2.879.319,2.7,2.7,0,0,1-2.643-.8c-.607-.87-.236-2.068-.431-3.11a4.566,4.566,0,0,0-2.727-2.971,27.471,27.471,0,0,1-3.781-1.777l3.442-9.842a7.977,7.977,0,0,1,1.637-3.022,13.409,13.409,0,0,0-.711,1.725Z" transform="translate(-338.697 -47.086)" opacity="0.1"/>
    <g id="Group_71" data-name="Group 71" transform="translate(67.764 35.491)" opacity="0.1">
      <path id="Path_433" data-name="Path 433" d="M364.033,168.281a2.092,2.092,0,0,0,2.555-.287c.627-.8.164-2.036-.583-2.743s-1.729-1.122-2.46-1.845c-1.449-1.437-1.6-3.713-2.511-5.534-.655-1.282-1.713-2.352-2.176-3.713-.755-2.22.232-4.62,1.2-6.756,1.154-2.539,2.46-5.25,4.915-6.576.827-.447,1.741-.711,2.587-1.118a13.959,13.959,0,0,0,5.769-5.534c.866-1.8-.355-3.55-1.809-4.735.707.459,1.4.942,2.068,1.457,1.537,1.2,2.923,3.015,2,4.9a13.95,13.95,0,0,1-5.77,5.53c-.846.4-1.761.671-2.587,1.118-2.456,1.326-3.761,4.037-4.915,6.576-.97,2.14-1.956,4.536-1.2,6.76.463,1.362,1.521,2.432,2.176,3.709.926,1.821,1.062,4.1,2.511,5.538.731.723,1.713,1.138,2.46,1.845a2.186,2.186,0,0,1,.583,2.743c-.615.815-2.076.647-2.995.044C365.231,169.244,364.668,168.693,364.033,168.281Z" transform="translate(-338.243 -129.44)"/>
      <path id="Path_434" data-name="Path 434" d="M309.2,210.844l5.33-3.849a4.072,4.072,0,0,1,1.405-.755c1.1-.252,2.172.435,3.09,1.086l11.18,7.906a3.438,3.438,0,0,0,.052-2.911,11.138,11.138,0,0,1,2.663,1.773,2.985,2.985,0,0,0-.4-.148,3.43,3.43,0,0,1-.052,2.907l-11.18-7.906c-.918-.651-2-1.338-3.09-1.082a4.061,4.061,0,0,0-1.405.751l-5.33,3.853c-.886.639-2.044,1.3-3,.771a1.753,1.753,0,0,1-.834-1.541A5.786,5.786,0,0,0,309.2,210.844Z" transform="translate(-307.628 -175.544)"/>
    </g>
    <path id="Path_435" data-name="Path 435" d="M603.83,276.186s-22.878,1.833-27.43-1.409l20.93-3.226Z" transform="translate(-401.323 -179.318)" fill="#e3e8f4"/>
    <path id="Path_436" data-name="Path 436" d="M603.83,276.186s-22.878,1.833-27.43-1.409l20.93-3.226Z" transform="translate(-401.323 -179.318)" opacity="0.1"/>
    <path id="Path_437" data-name="Path 437" d="M598.814,270.659l-6.408-4.057s-19.117,5.494-24.356,3.226l5.33-7.478,18.942,3.693Z" transform="translate(-396.307 -173.791)" fill="#e3e8f4"/>
    <path id="Path_438" data-name="Path 438" d="M560.172,135.2a11.23,11.23,0,0,0-1.681,2.951c-.184.563-.276,1.15-.431,1.721a13.224,13.224,0,0,1-2,3.957c-1.968,2.863-4.428,5.626-4.923,9.063a15.286,15.286,0,0,0,.359,5.1,13.777,13.777,0,0,0,.942,3.222c.507,1.094,1.262,2.056,1.841,3.114a22.119,22.119,0,0,1,1.334,3.226,15.829,15.829,0,0,0,1.633-2.4,3.078,3.078,0,0,1,2.324-1.529c1.11,0,2.024.918,3.122,1.062a.89.89,0,0,0,.511-.048c.4-.188.431-.727.4-1.158-.315-3.015-2.04-5.989-1.226-8.912.751-2.7,3.434-4.392,4.843-6.816a15.651,15.651,0,0,0,1.6-5.857,36.29,36.29,0,0,0,.531-7.283c-.076-1.226-1.05-8.972-2.831-8.161-.619.279-1.158,1.465-1.545,2l-1.6,2.264Z" transform="translate(-386.093 -92.124)" fill="#3f3d56"/>
    <path id="Path_439" data-name="Path 439" d="M272.111,231.174l-12.845,10.457-16.526-2.955,11.128-8.736Z" transform="translate(-145.821 -138.127)" fill="#e3e8f4"/>
    <path id="Path_440" data-name="Path 440" d="M273.271,229.544,260.426,240,243.9,237.046l11.128-8.736Z" transform="translate(-146.517 -137.148)" opacity="0.1"/>
    <path id="Path_441" data-name="Path 441" d="M273.035,228.148,260.19,238.6l-16.53-2.951,11.132-8.74Z" transform="translate(-146.373 -136.307)" fill="#e3e8f4"/>
    <path id="Path_442" data-name="Path 442" d="M273.965,225.124l-12.849,10.457-16.526-2.955,11.132-8.736Z" transform="translate(-146.932 -134.493)" opacity="0.1"/>
    <path id="Path_443" data-name="Path 443" d="M273.731,223.734l-12.845,10.457-16.526-2.955,11.128-8.736Z" transform="translate(-146.794 -133.658)" fill="#e3e8f4"/>
    <path id="Path_444" data-name="Path 444" d="M874.795,623.686h0a2.068,2.068,0,0,1,2.967,1.7l.715,9.267-4.24.767-2.236-6.7Z" transform="translate(-578.898 -390.731)" fill="#3f3d56"/>
    <path id="Path_445" data-name="Path 445" d="M406.107,467.7,341.213,500.63a4.516,4.516,0,0,0,.032,8.061l139.765,70.14a16.965,16.965,0,0,0,15.943-.4l58.869-33.2a4.516,4.516,0,0,0-.268-7.985L410.1,467.654a4.516,4.516,0,0,0-3.989.044Z" transform="translate(-258.56 -296.857)" fill="#3f3d56"/>
    <path id="Path_446" data-name="Path 446" d="M340.531,536.56l-2.032,1.509-.16,7.227a3,3,0,0,0,1.629,2.739l142.153,72.947a2.116,2.116,0,0,0,3.086-1.881V608.6Z" transform="translate(-258.313 -338.517)" fill="#3f3d56"/>
    <path id="Path_447" data-name="Path 447" d="M406.1,446.715,341.2,479.643a4.516,4.516,0,0,0,.02,8.061L481,557.844a16.977,16.977,0,0,0,15.943-.4l58.869-33.2a4.516,4.516,0,0,0-.268-7.985L410.087,446.667a4.516,4.516,0,0,0-3.989.048Z" transform="translate(-258.551 -284.251)" fill="#e3e8f4"/>
    <path id="Path_448" data-name="Path 448" d="M295.6,421.86l-71.5,36.306,122.892,61.448,73.738-37.428Z" transform="translate(-134.623 -253.419)" fill="#3f3d56"/>
    <ellipse id="Ellipse_120" data-name="Ellipse 120" cx="7.542" cy="4.468" rx="7.542" ry="4.468" transform="translate(249.797 246.088)" fill="#3f3d56"/>
    <circle id="Ellipse_121" data-name="Ellipse 121" cx="0.699" cy="0.699" r="0.699" transform="translate(119.083 179.333)" fill="#3f3d56"/>
    <circle id="Ellipse_122" data-name="Ellipse 122" cx="0.838" cy="0.838" r="0.838" transform="translate(116.851 184.64)" fill="#3f3d56"/>
    <line id="Line_37" data-name="Line 37" y1="3.909" x2="8.381" transform="translate(120.76 180.172)" fill="none" stroke="#3f3d56" stroke-miterlimit="10" stroke-width="1"/>
    <rect id="Rectangle_134" data-name="Rectangle 134" width="41.692" height="14.374" rx="7.187" transform="translate(165.12 219.508) rotate(-30)" fill="#6c63ff"/>
    <rect id="Rectangle_135" data-name="Rectangle 135" width="41.692" height="14.374" rx="7.187" transform="translate(186.281 230.29) rotate(-30)" fill="#6c63ff"/>
    <rect id="Rectangle_136" data-name="Rectangle 136" width="41.692" height="14.374" rx="7.187" transform="translate(145.955 207.132) rotate(-30)" fill="#6c63ff"/>
  </g>
</svg>
